<?xml version="1.0" encoding="UTF-8" standalone="no"?>
<svg xmlns="http://www.w3.org/2000/svg" width="11.0236in" height="8.5in" viewBox="0 0 11.0236 8.5">
<title>Scanimation Barrier</title>
<g fill="rgb(0,0,0)" stroke="none">
<rect x="0.0394" y="0" width="0.1575" height="8.5"/>
<rect x="0.2362" y="0" width="0.1575" height="8.5"/>
<rect x="0.4331" y="0" width="0.1575" height="8.5"/>
<rect x="0.6299" y="0" width="0.1575" height="8.5"/>
<rect x="0.8268" y="0" width="0.1575" height="8.5"/>
<rect x="1.0236" y="0" width="0.1575" height="8.5"/>
<rect x="1.2205" y="0" width="0.1575" height="8.5"/>
<rect x="1.4173" y="0" width="0.1575" height="8.5"/>
<rect x="1.6142" y="0" width="0.1575" height="8.5"/>
<rect x="1.811" y="0" width="0.1575" height="8.5"/>
<rect x="2.0079" y="0" width="0.1575" height="8.5"/>
<rect x="2.2047" y="0" width="0.1575" height="8.5"/>
<rect x="2.4016" y="0" width="0.1575" height="8.5"/>
<rect x="2.5984" y="0" width="0.1575" height="8.5"/>
<rect x="2.7953" y="0" width="0.1575" height="8.5"/>
<rect x="2.9921" y="0" width="0.1575" height="8.5"/>
<rect x="3.189" y="0" width="0.1575" height="8.5"/>
<rect x="3.3858" y="0" width="0.1575" height="8.5"/>
<rect x="3.5827" y="0" width="0.1575" height="8.5"/>
<rect x="3.7795" y="0" width="0.1575" height="8.5"/>
<rect x="3.9764" y="0" width="0.1575" height="8.5"/>
<rect x="4.1732" y="0" width="0.1575" height="8.5"/>
<rect x="4.3701" y="0" width="0.1575" height="8.5"/>
<rect x="4.5669" y="0" width="0.1575" height="8.5"/>
<rect x="4.7638" y="0" width="0.1575" height="8.5"/>
<rect x="4.9606" y="0" width="0.1575" height="8.5"/>
<rect x="5.1575" y="0" width="0.1575" height="8.5"/>
<rect x="5.3543" y="0" width="0.1575" height="8.5"/>
<rect x="5.5512" y="0" width="0.1575" height="8.5"/>
<rect x="5.748" y="0" width="0.1575" height="8.5"/>
<rect x="5.9449" y="0" width="0.1575" height="8.5"/>
<rect x="6.1417" y="0" width="0.1575" height="8.5"/>
<rect x="6.3386" y="0" width="0.1575" height="8.5"/>
<rect x="6.5354" y="0" width="0.1575" height="8.5"/>
<rect x="6.7323" y="0" width="0.1575" height="8.5"/>
<rect x="6.9291" y="0" width="0.1575" height="8.5"/>
<rect x="7.126" y="0" width="0.1575" height="8.5"/>
<rect x="7.3228" y="0" width="0.1575" height="8.5"/>
<rect x="7.5197" y="0" width="0.1575" height="8.5"/>
<rect x="7.7165" y="0" width="0.1575" height="8.5"/>
<rect x="7.9134" y="0" width="0.1575" height="8.5"/>
<rect x="8.1102" y="0" width="0.1575" height="8.5"/>
<rect x="8.3071" y="0" width="0.1575" height="8.5"/>
<rect x="8.5039" y="0" width="0.1575" height="8.5"/>
<rect x="8.7008" y="0" width="0.1575" height="8.5"/>
<rect x="8.8976" y="0" width="0.1575" height="8.5"/>
<rect x="9.0945" y="0" width="0.1575" height="8.5"/>
<rect x="9.2913" y="0" width="0.1575" height="8.5"/>
<rect x="9.4882" y="0" width="0.1575" height="8.5"/>
<rect x="9.685" y="0" width="0.1575" height="8.5"/>
<rect x="9.8819" y="0" width="0.1575" height="8.5"/>
<rect x="10.0787" y="0" width="0.1575" height="8.5"/>
<rect x="10.2756" y="0" width="0.1575" height="8.5"/>
<rect x="10.4724" y="0" width="0.1575" height="8.5"/>
<rect x="10.6693" y="0" width="0.1575" height="8.5"/>
<rect x="10.8661" y="0" width="0.1575" height="8.5"/>
</g></svg>