<?xml version="1.0" encoding="UTF-8" standalone="no"?>
<svg xmlns="http://www.w3.org/2000/svg" width="8.5in" height="11.0in" viewBox="0 0 8.5 11.0">
<title>Lamp Template — Lines Page (Barrier + Slit per period)</title>
<g stroke="#000" stroke-width="0.003in" fill="none">
<line x1="0.000000" y1="0" x2="0.000000" y2="11.000000"/>
<line x1="0.157480" y1="0" x2="0.157480" y2="11.000000"/>
<line x1="0.196850" y1="0" x2="0.196850" y2="11.000000"/>
<line x1="0.354331" y1="0" x2="0.354331" y2="11.000000"/>
<line x1="0.393701" y1="0" x2="0.393701" y2="11.000000"/>
<line x1="0.551181" y1="0" x2="0.551181" y2="11.000000"/>
<line x1="0.590551" y1="0" x2="0.590551" y2="11.000000"/>
<line x1="0.748031" y1="0" x2="0.748031" y2="11.000000"/>
<line x1="0.787402" y1="0" x2="0.787402" y2="11.000000"/>
<line x1="0.944882" y1="0" x2="0.944882" y2="11.000000"/>
<line x1="0.984252" y1="0" x2="0.984252" y2="11.000000"/>
<line x1="1.141732" y1="0" x2="1.141732" y2="11.000000"/>
<line x1="1.181102" y1="0" x2="1.181102" y2="11.000000"/>
<line x1="1.338583" y1="0" x2="1.338583" y2="11.000000"/>
<line x1="1.377953" y1="0" x2="1.377953" y2="11.000000"/>
<line x1="1.535433" y1="0" x2="1.535433" y2="11.000000"/>
<line x1="1.574803" y1="0" x2="1.574803" y2="11.000000"/>
<line x1="1.732283" y1="0" x2="1.732283" y2="11.000000"/>
<line x1="1.771654" y1="0" x2="1.771654" y2="11.000000"/>
<line x1="1.929134" y1="0" x2="1.929134" y2="11.000000"/>
<line x1="1.968504" y1="0" x2="1.968504" y2="11.000000"/>
<line x1="2.125984" y1="0" x2="2.125984" y2="11.000000"/>
<line x1="2.165354" y1="0" x2="2.165354" y2="11.000000"/>
<line x1="2.322835" y1="0" x2="2.322835" y2="11.000000"/>
<line x1="2.362205" y1="0" x2="2.362205" y2="11.000000"/>
<line x1="2.519685" y1="0" x2="2.519685" y2="11.000000"/>
<line x1="2.559055" y1="0" x2="2.559055" y2="11.000000"/>
<line x1="2.716535" y1="0" x2="2.716535" y2="11.000000"/>
<line x1="2.755906" y1="0" x2="2.755906" y2="11.000000"/>
<line x1="2.913386" y1="0" x2="2.913386" y2="11.000000"/>
<line x1="2.952756" y1="0" x2="2.952756" y2="11.000000"/>
<line x1="3.110236" y1="0" x2="3.110236" y2="11.000000"/>
<line x1="3.149606" y1="0" x2="3.149606" y2="11.000000"/>
<line x1="3.307087" y1="0" x2="3.307087" y2="11.000000"/>
<line x1="3.346457" y1="0" x2="3.346457" y2="11.000000"/>
<line x1="3.503937" y1="0" x2="3.503937" y2="11.000000"/>
<line x1="3.543307" y1="0" x2="3.543307" y2="11.000000"/>
<line x1="3.700787" y1="0" x2="3.700787" y2="11.000000"/>
<line x1="3.740157" y1="0" x2="3.740157" y2="11.000000"/>
<line x1="3.897638" y1="0" x2="3.897638" y2="11.000000"/>
<line x1="3.937008" y1="0" x2="3.937008" y2="11.000000"/>
<line x1="4.094488" y1="0" x2="4.094488" y2="11.000000"/>
<line x1="4.133858" y1="0" x2="4.133858" y2="11.000000"/>
<line x1="4.291339" y1="0" x2="4.291339" y2="11.000000"/>
<line x1="4.330709" y1="0" x2="4.330709" y2="11.000000"/>
<line x1="4.488189" y1="0" x2="4.488189" y2="11.000000"/>
<line x1="4.527559" y1="0" x2="4.527559" y2="11.000000"/>
<line x1="4.685039" y1="0" x2="4.685039" y2="11.000000"/>
<line x1="4.724409" y1="0" x2="4.724409" y2="11.000000"/>
<line x1="4.881890" y1="0" x2="4.881890" y2="11.000000"/>
<line x1="4.921260" y1="0" x2="4.921260" y2="11.000000"/>
<line x1="5.078740" y1="0" x2="5.078740" y2="11.000000"/>
<line x1="5.118110" y1="0" x2="5.118110" y2="11.000000"/>
<line x1="5.275591" y1="0" x2="5.275591" y2="11.000000"/>
<line x1="5.314961" y1="0" x2="5.314961" y2="11.000000"/>
<line x1="5.472441" y1="0" x2="5.472441" y2="11.000000"/>
<line x1="5.511811" y1="0" x2="5.511811" y2="11.000000"/>
<line x1="5.669291" y1="0" x2="5.669291" y2="11.000000"/>
<line x1="5.708661" y1="0" x2="5.708661" y2="11.000000"/>
<line x1="5.866142" y1="0" x2="5.866142" y2="11.000000"/>
<line x1="5.905512" y1="0" x2="5.905512" y2="11.000000"/>
<line x1="6.062992" y1="0" x2="6.062992" y2="11.000000"/>
<line x1="6.102362" y1="0" x2="6.102362" y2="11.000000"/>
<line x1="6.259843" y1="0" x2="6.259843" y2="11.000000"/>
<line x1="6.299213" y1="0" x2="6.299213" y2="11.000000"/>
<line x1="6.456693" y1="0" x2="6.456693" y2="11.000000"/>
<line x1="6.496063" y1="0" x2="6.496063" y2="11.000000"/>
<line x1="6.653543" y1="0" x2="6.653543" y2="11.000000"/>
<line x1="6.692913" y1="0" x2="6.692913" y2="11.000000"/>
<line x1="6.850394" y1="0" x2="6.850394" y2="11.000000"/>
<line x1="6.889764" y1="0" x2="6.889764" y2="11.000000"/>
<line x1="7.047244" y1="0" x2="7.047244" y2="11.000000"/>
<line x1="7.086614" y1="0" x2="7.086614" y2="11.000000"/>
<line x1="7.244094" y1="0" x2="7.244094" y2="11.000000"/>
<line x1="7.283465" y1="0" x2="7.283465" y2="11.000000"/>
<line x1="7.440945" y1="0" x2="7.440945" y2="11.000000"/>
<line x1="7.480315" y1="0" x2="7.480315" y2="11.000000"/>
<line x1="7.637795" y1="0" x2="7.637795" y2="11.000000"/>
<line x1="7.677165" y1="0" x2="7.677165" y2="11.000000"/>
<line x1="7.834646" y1="0" x2="7.834646" y2="11.000000"/>
<line x1="7.874016" y1="0" x2="7.874016" y2="11.000000"/>
<line x1="8.031496" y1="0" x2="8.031496" y2="11.000000"/>
<line x1="8.070866" y1="0" x2="8.070866" y2="11.000000"/>
<line x1="8.228346" y1="0" x2="8.228346" y2="11.000000"/>
<line x1="8.267717" y1="0" x2="8.267717" y2="11.000000"/>
<line x1="8.425197" y1="0" x2="8.425197" y2="11.000000"/>
<line x1="8.464567" y1="0" x2="8.464567" y2="11.000000"/>
</g></svg>