<?xml version="1.0" encoding="UTF-8" standalone="no"?>
<svg xmlns="http://www.w3.org/2000/svg" width="8.5in" height="11.0in" viewBox="0 0 8.5 11.0">
<title>Lamp Template — Lines Page (Barrier spacing)</title>
<g stroke="#000" stroke-width="0.003in" fill="none">
<line x1="0.000000" y1="0" x2="0.000000" y2="11.000000"/>
<line x1="0.157480" y1="0" x2="0.157480" y2="11.000000"/>
<line x1="0.314961" y1="0" x2="0.314961" y2="11.000000"/>
<line x1="0.472441" y1="0" x2="0.472441" y2="11.000000"/>
<line x1="0.629921" y1="0" x2="0.629921" y2="11.000000"/>
<line x1="0.787402" y1="0" x2="0.787402" y2="11.000000"/>
<line x1="0.944882" y1="0" x2="0.944882" y2="11.000000"/>
<line x1="1.102362" y1="0" x2="1.102362" y2="11.000000"/>
<line x1="1.259843" y1="0" x2="1.259843" y2="11.000000"/>
<line x1="1.417323" y1="0" x2="1.417323" y2="11.000000"/>
<line x1="1.574803" y1="0" x2="1.574803" y2="11.000000"/>
<line x1="1.732283" y1="0" x2="1.732283" y2="11.000000"/>
<line x1="1.889764" y1="0" x2="1.889764" y2="11.000000"/>
<line x1="2.047244" y1="0" x2="2.047244" y2="11.000000"/>
<line x1="2.204724" y1="0" x2="2.204724" y2="11.000000"/>
<line x1="2.362205" y1="0" x2="2.362205" y2="11.000000"/>
<line x1="2.519685" y1="0" x2="2.519685" y2="11.000000"/>
<line x1="2.677165" y1="0" x2="2.677165" y2="11.000000"/>
<line x1="2.834646" y1="0" x2="2.834646" y2="11.000000"/>
<line x1="2.992126" y1="0" x2="2.992126" y2="11.000000"/>
<line x1="3.149606" y1="0" x2="3.149606" y2="11.000000"/>
<line x1="3.307087" y1="0" x2="3.307087" y2="11.000000"/>
<line x1="3.464567" y1="0" x2="3.464567" y2="11.000000"/>
<line x1="3.622047" y1="0" x2="3.622047" y2="11.000000"/>
<line x1="3.779528" y1="0" x2="3.779528" y2="11.000000"/>
<line x1="3.937008" y1="0" x2="3.937008" y2="11.000000"/>
<line x1="4.094488" y1="0" x2="4.094488" y2="11.000000"/>
<line x1="4.251969" y1="0" x2="4.251969" y2="11.000000"/>
<line x1="4.409449" y1="0" x2="4.409449" y2="11.000000"/>
<line x1="4.566929" y1="0" x2="4.566929" y2="11.000000"/>
<line x1="4.724409" y1="0" x2="4.724409" y2="11.000000"/>
<line x1="4.881890" y1="0" x2="4.881890" y2="11.000000"/>
<line x1="5.039370" y1="0" x2="5.039370" y2="11.000000"/>
<line x1="5.196850" y1="0" x2="5.196850" y2="11.000000"/>
<line x1="5.354331" y1="0" x2="5.354331" y2="11.000000"/>
<line x1="5.511811" y1="0" x2="5.511811" y2="11.000000"/>
<line x1="5.669291" y1="0" x2="5.669291" y2="11.000000"/>
<line x1="5.826772" y1="0" x2="5.826772" y2="11.000000"/>
<line x1="5.984252" y1="0" x2="5.984252" y2="11.000000"/>
<line x1="6.141732" y1="0" x2="6.141732" y2="11.000000"/>
<line x1="6.299213" y1="0" x2="6.299213" y2="11.000000"/>
<line x1="6.456693" y1="0" x2="6.456693" y2="11.000000"/>
<line x1="6.614173" y1="0" x2="6.614173" y2="11.000000"/>
<line x1="6.771654" y1="0" x2="6.771654" y2="11.000000"/>
<line x1="6.929134" y1="0" x2="6.929134" y2="11.000000"/>
<line x1="7.086614" y1="0" x2="7.086614" y2="11.000000"/>
<line x1="7.244094" y1="0" x2="7.244094" y2="11.000000"/>
<line x1="7.401575" y1="0" x2="7.401575" y2="11.000000"/>
<line x1="7.559055" y1="0" x2="7.559055" y2="11.000000"/>
<line x1="7.716535" y1="0" x2="7.716535" y2="11.000000"/>
<line x1="7.874016" y1="0" x2="7.874016" y2="11.000000"/>
<line x1="8.031496" y1="0" x2="8.031496" y2="11.000000"/>
<line x1="8.188976" y1="0" x2="8.188976" y2="11.000000"/>
<line x1="8.346457" y1="0" x2="8.346457" y2="11.000000"/>
</g></svg>