<?xml version="1.0" encoding="UTF-8" standalone="no"?>
<svg xmlns="http://www.w3.org/2000/svg"
     width="110.326768mm" height="110.326768mm"
     viewBox="0 0 110.326768 110.326768">
  <title>Lamp Template (Circle, Ticks + Specs)</title>
  <desc>Perimeter=11.024in; bar=4.000mm, slit=1.000mm</desc>
  <polyline points="99.726768,55.163384 99.725071,55.552268 99.719981,55.941122 99.711497,56.329917 99.699621,56.718624 99.684354,57.107212 99.665696,57.495651 99.643648,57.883914 99.618214,58.271969 99.589394,58.659787 99.557191,59.047339 99.521607,59.434595 99.482645,59.821526 99.440308,60.208102 99.394599,60.594294 99.345522,60.980073 99.293080,61.365408 99.237278,61.750272 99.178119,62.134633 99.115608,62.518464 99.049750,62.901734 98.980550,63.284416 98.908013,63.666479 98.832145,64.047894 98.752951,64.428633 98.670438,64.808666 98.584611,65.187964 98.495478,65.566499 98.403045,65.944242 98.307319,66.321164 98.208308,66.697237 98.106018,67.072430 98.000458,67.446717 97.891636,67.820069 97.779560,68.192457 97.664239,68.563852 97.545681,68.934227 97.423895,69.303553 97.298891,69.671803 97.170679,70.038947 97.039267,70.404959 96.904667,70.769810 96.766887,71.133473 96.625939,71.495919 96.481834,71.857122 96.334583,72.217053 96.184195,72.575685 96.030684,72.932992 95.874061,73.288945 95.714338,73.643518 95.551526,73.996684 95.385639,74.348415 95.216688,74.698686 95.044688,75.047469 94.869650,75.394737 94.691588,75.740465 94.510517,76.084626 94.326449,76.427193 94.139398,76.768141 93.949379,77.107444 93.756407,77.445076 93.560495,77.781011 93.361660,78.115224 93.159915,78.447688 92.955277,78.778380 92.747761,79.107273 92.537383,79.434343 92.324158,79.759564 92.108104,80.082912 91.889236,80.404363 91.667571,80.723891 91.443127,81.041473 91.215919,81.357084 90.985966,81.670700 90.753285,81.982298 90.517894,82.291853 90.279810,82.599343 90.039052,82.904743 89.795638,83.208030 89.549587,83.509182 89.300917,83.808175 89.049647,84.104987 88.795797,84.399595 88.539385,84.691976 88.280432,84.982108 88.018957,85.269970 87.754980,85.555539 87.488521,85.838793 87.219600,86.119712 86.948238,86.398273 86.674455,86.674455 86.398273,86.948238 86.119712,87.219600 85.838793,87.488521 85.555539,87.754980 85.269970,88.018957 84.982108,88.280432 84.691976,88.539385 84.399595,88.795797 84.104987,89.049647 83.808175,89.300917 83.509182,89.549587 83.208030,89.795638 82.904743,90.039052 82.599343,90.279810 82.291853,90.517894 81.982298,90.753285 81.670700,90.985966 81.357084,91.215919 81.041473,91.443127 80.723891,91.667571 80.404363,91.889236 80.082912,92.108104 79.759564,92.324158 79.434343,92.537383 79.107273,92.747761 78.778380,92.955277 78.447688,93.159915 78.115224,93.361660 77.781011,93.560495 77.445076,93.756407 77.107444,93.949379 76.768141,94.139398 76.427193,94.326449 76.084626,94.510517 75.740465,94.691588 75.394737,94.869650 75.047469,95.044688 74.698686,95.216688 74.348415,95.385639 73.996684,95.551526 73.643518,95.714338 73.288945,95.874061 72.932992,96.030684 72.575685,96.184195 72.217053,96.334583 71.857122,96.481834 71.495919,96.625939 71.133473,96.766887 70.769810,96.904667 70.404959,97.039267 70.038947,97.170679 69.671803,97.298891 69.303553,97.423895 68.934227,97.545681 68.563852,97.664239 68.192457,97.779560 67.820069,97.891636 67.446717,98.000458 67.072430,98.106018 66.697237,98.208308 66.321164,98.307319 65.944242,98.403045 65.566499,98.495478 65.187964,98.584611 64.808666,98.670438 64.428633,98.752951 64.047894,98.832145 63.666479,98.908013 63.284416,98.980550 62.901734,99.049750 62.518464,99.115608 62.134633,99.178119 61.750272,99.237278 61.365408,99.293080 60.980073,99.345522 60.594294,99.394599 60.208102,99.440308 59.821526,99.482645 59.434595,99.521607 59.047339,99.557191 58.659787,99.589394 58.271969,99.618214 57.883914,99.643648 57.495651,99.665696 57.107212,99.684354 56.718624,99.699621 56.329917,99.711497 55.941122,99.719981 55.552268,99.725071 55.163384,99.726768 54.774500,99.725071 54.385646,99.719981 53.996851,99.711497 53.608144,99.699621 53.219557,99.684354 52.831117,99.665696 52.442855,99.643648 52.054800,99.618214 51.666981,99.589394 51.279429,99.557191 50.892173,99.521607 50.505242,99.482645 50.118666,99.440308 49.732474,99.394599 49.346695,99.345522 48.961360,99.293080 48.576497,99.237278 48.192135,99.178119 47.808304,99.115608 47.425034,99.049750 47.042352,98.980550 46.660290,98.908013 46.278874,98.832145 45.898136,98.752951 45.518102,98.670438 45.138804,98.584611 44.760269,98.495478 44.382526,98.403045 44.005604,98.307319 43.629532,98.208308 43.254338,98.106018 42.880051,98.000458 42.506699,97.891636 42.134311,97.779560 41.762916,97.664239 41.392541,97.545681 41.023215,97.423895 40.654965,97.298891 40.287821,97.170679 39.921809,97.039267 39.556958,96.904667 39.193295,96.766887 38.830849,96.625939 38.469647,96.481834 38.109715,96.334583 37.751083,96.184195 37.393776,96.030684 37.037823,95.874061 36.683250,95.714338 36.330084,95.551526 35.978353,95.385639 35.628082,95.216688 35.279300,95.044688 34.932031,94.869650 34.586303,94.691588 34.242143,94.510517 33.899575,94.326449 33.558627,94.139398 33.219324,93.949379 32.881692,93.756407 32.545757,93.560495 32.211545,93.361660 31.879080,93.159915 31.548388,92.955277 31.219495,92.747761 30.892426,92.537383 30.567204,92.324158 30.243856,92.108104 29.922405,91.889236 29.602877,91.667571 29.285295,91.443127 28.969684,91.215919 28.656068,90.985966 28.344470,90.753285 28.034915,90.517894 27.727425,90.279810 27.422025,90.039052 27.118738,89.795638 26.817586,89.549587 26.518593,89.300917 26.221781,89.049647 25.927174,88.795797 25.634792,88.539385 25.344660,88.280432 25.056798,88.018957 24.771229,87.754980 24.487975,87.488521 24.207056,87.219600 23.928495,86.948238 23.652313,86.674455 23.378530,86.398273 23.107168,86.119712 22.838247,85.838793 22.571788,85.555539 22.307811,85.269970 22.046336,84.982108 21.787383,84.691976 21.530971,84.399595 21.277121,84.104987 21.025851,83.808175 20.777181,83.509182 20.531130,83.208030 20.287716,82.904743 20.046958,82.599343 19.808874,82.291853 19.573483,81.982298 19.340802,81.670700 19.110849,81.357084 18.883642,81.041473 18.659197,80.723891 18.437532,80.404363 18.218664,80.082912 18.002610,79.759564 17.789385,79.434343 17.579007,79.107273 17.371491,78.778380 17.166853,78.447688 16.965108,78.115224 16.766273,77.781011 16.570361,77.445076 16.377389,77.107444 16.187370,76.768141 16.000320,76.427193 15.816251,76.084626 15.635180,75.740465 15.457118,75.394737 15.282080,75.047469 15.110080,74.698686 14.941129,74.348415 14.775242,73.996684 14.612430,73.643518 14.452707,73.288945 14.296084,72.932992 14.142573,72.575685 13.992186,72.217053 13.844934,71.857122 13.700829,71.495919 13.559881,71.133473 13.422102,70.769810 13.287501,70.404959 13.156089,70.038947 13.027877,69.671803 12.902873,69.303553 12.781087,68.934227 12.662529,68.563852 12.547208,68.192457 12.435132,67.820069 12.326310,67.446717 12.220750,67.072430 12.118460,66.697237 12.019449,66.321164 11.923723,65.944242 11.831290,65.566499 11.742157,65.187964 11.656330,64.808666 11.573817,64.428633 11.494623,64.047894 11.418755,63.666479 11.346218,63.284416 11.277018,62.901734 11.211160,62.518464 11.148649,62.134633 11.089490,61.750272 11.033688,61.365408 10.981246,60.980073 10.932169,60.594294 10.886460,60.208102 10.844123,59.821526 10.805161,59.434595 10.769577,59.047339 10.737374,58.659787 10.708554,58.271969 10.683120,57.883914 10.661073,57.495651 10.642414,57.107212 10.627147,56.718624 10.615271,56.329917 10.606787,55.941122 10.601697,55.552268 10.600000,55.163384 10.601697,54.774500 10.606787,54.385646 10.615271,53.996851 10.627147,53.608144 10.642414,53.219557 10.661073,52.831117 10.683120,52.442855 10.708554,52.054800 10.737374,51.666981 10.769577,51.279429 10.805161,50.892173 10.844123,50.505242 10.886460,50.118666 10.932169,49.732474 10.981246,49.346695 11.033688,48.961360 11.089490,48.576497 11.148649,48.192135 11.211160,47.808304 11.277018,47.425034 11.346218,47.042352 11.418755,46.660290 11.494623,46.278874 11.573817,45.898136 11.656330,45.518102 11.742157,45.138804 11.831290,44.760269 11.923723,44.382526 12.019449,44.005604 12.118460,43.629532 12.220750,43.254338 12.326310,42.880051 12.435132,42.506699 12.547208,42.134311 12.662529,41.762916 12.781087,41.392541 12.902873,41.023215 13.027877,40.654965 13.156089,40.287821 13.287501,39.921809 13.422102,39.556958 13.559881,39.193295 13.700829,38.830849 13.844934,38.469647 13.992186,38.109715 14.142573,37.751083 14.296084,37.393776 14.452707,37.037823 14.612430,36.683250 14.775242,36.330084 14.941129,35.978353 15.110080,35.628082 15.282080,35.279300 15.457118,34.932031 15.635180,34.586303 15.816251,34.242143 16.000320,33.899575 16.187370,33.558627 16.377389,33.219324 16.570361,32.881692 16.766273,32.545757 16.965108,32.211545 17.166853,31.879080 17.371491,31.548388 17.579007,31.219495 17.789385,30.892426 18.002610,30.567204 18.218664,30.243856 18.437532,29.922405 18.659197,29.602877 18.883642,29.285295 19.110849,28.969684 19.340802,28.656068 19.573483,28.344470 19.808874,28.034915 20.046958,27.727425 20.287716,27.422025 20.531130,27.118738 20.777181,26.817586 21.025851,26.518593 21.277121,26.221781 21.530971,25.927174 21.787383,25.634792 22.046336,25.344660 22.307811,25.056798 22.571788,24.771229 22.838247,24.487975 23.107168,24.207056 23.378530,23.928495 23.652313,23.652313 23.928495,23.378530 24.207056,23.107168 24.487975,22.838247 24.771229,22.571788 25.056798,22.307811 25.344660,22.046336 25.634792,21.787383 25.927174,21.530971 26.221781,21.277121 26.518593,21.025851 26.817586,20.777181 27.118738,20.531130 27.422025,20.287716 27.727425,20.046958 28.034915,19.808874 28.344470,19.573483 28.656068,19.340802 28.969684,19.110849 29.285295,18.883642 29.602877,18.659197 29.922405,18.437532 30.243856,18.218664 30.567204,18.002610 30.892426,17.789385 31.219495,17.579007 31.548388,17.371491 31.879080,17.166853 32.211545,16.965108 32.545757,16.766273 32.881692,16.570361 33.219324,16.377389 33.558627,16.187370 33.899575,16.000320 34.242143,15.816251 34.586303,15.635180 34.932031,15.457118 35.279300,15.282080 35.628082,15.110080 35.978353,14.941129 36.330084,14.775242 36.683250,14.612430 37.037823,14.452707 37.393776,14.296084 37.751083,14.142573 38.109715,13.992186 38.469647,13.844934 38.830849,13.700829 39.193295,13.559881 39.556958,13.422102 39.921809,13.287501 40.287821,13.156089 40.654965,13.027877 41.023215,12.902873 41.392541,12.781087 41.762916,12.662529 42.134311,12.547208 42.506699,12.435132 42.880051,12.326310 43.254338,12.220750 43.629532,12.118460 44.005604,12.019449 44.382526,11.923723 44.760269,11.831290 45.138804,11.742157 45.518102,11.656330 45.898136,11.573817 46.278874,11.494623 46.660290,11.418755 47.042352,11.346218 47.425034,11.277018 47.808304,11.211160 48.192135,11.148649 48.576497,11.089490 48.961360,11.033688 49.346695,10.981246 49.732474,10.932169 50.118666,10.886460 50.505242,10.844123 50.892173,10.805161 51.279429,10.769577 51.666981,10.737374 52.054800,10.708554 52.442855,10.683120 52.831117,10.661073 53.219557,10.642414 53.608144,10.627147 53.996851,10.615271 54.385646,10.606787 54.774500,10.601697 55.163384,10.600000 55.552268,10.601697 55.941122,10.606787 56.329917,10.615271 56.718624,10.627147 57.107212,10.642414 57.495651,10.661073 57.883914,10.683120 58.271969,10.708554 58.659787,10.737374 59.047339,10.769577 59.434595,10.805161 59.821526,10.844123 60.208102,10.886460 60.594294,10.932169 60.980073,10.981246 61.365408,11.033688 61.750272,11.089490 62.134633,11.148649 62.518464,11.211160 62.901734,11.277018 63.284416,11.346218 63.666479,11.418755 64.047894,11.494623 64.428633,11.573817 64.808666,11.656330 65.187964,11.742157 65.566499,11.831290 65.944242,11.923723 66.321164,12.019449 66.697237,12.118460 67.072430,12.220750 67.446717,12.326310 67.820069,12.435132 68.192457,12.547208 68.563852,12.662529 68.934227,12.781087 69.303553,12.902873 69.671803,13.027877 70.038947,13.156089 70.404959,13.287501 70.769810,13.422102 71.133473,13.559881 71.495919,13.700829 71.857122,13.844934 72.217053,13.992186 72.575685,14.142573 72.932992,14.296084 73.288945,14.452707 73.643518,14.612430 73.996684,14.775242 74.348415,14.941129 74.698686,15.110080 75.047469,15.282080 75.394737,15.457118 75.740465,15.635180 76.084626,15.816251 76.427193,16.000320 76.768141,16.187370 77.107444,16.377389 77.445076,16.570361 77.781011,16.766273 78.115224,16.965108 78.447688,17.166853 78.778380,17.371491 79.107273,17.579007 79.434343,17.789385 79.759564,18.002610 80.082912,18.218664 80.404363,18.437532 80.723891,18.659197 81.041473,18.883642 81.357084,19.110849 81.670700,19.340802 81.982298,19.573483 82.291853,19.808874 82.599343,20.046958 82.904743,20.287716 83.208030,20.531130 83.509182,20.777181 83.808175,21.025851 84.104987,21.277121 84.399595,21.530971 84.691976,21.787383 84.982108,22.046336 85.269970,22.307811 85.555539,22.571788 85.838793,22.838247 86.119712,23.107168 86.398273,23.378530 86.674455,23.652313 86.948238,23.928495 87.219600,24.207056 87.488521,24.487975 87.754980,24.771229 88.018957,25.056798 88.280432,25.344660 88.539385,25.634792 88.795797,25.927174 89.049647,26.221781 89.300917,26.518593 89.549587,26.817586 89.795638,27.118738 90.039052,27.422025 90.279810,27.727425 90.517894,28.034915 90.753285,28.344470 90.985966,28.656068 91.215919,28.969684 91.443127,29.285295 91.667571,29.602877 91.889236,29.922405 92.108104,30.243856 92.324158,30.567204 92.537383,30.892426 92.747761,31.219495 92.955277,31.548388 93.159915,31.879080 93.361660,32.211545 93.560495,32.545757 93.756407,32.881692 93.949379,33.219324 94.139398,33.558627 94.326449,33.899575 94.510517,34.242143 94.691588,34.586303 94.869650,34.932031 95.044688,35.279300 95.216688,35.628082 95.385639,35.978353 95.551526,36.330084 95.714338,36.683250 95.874061,37.037823 96.030684,37.393776 96.184195,37.751083 96.334583,38.109715 96.481834,38.469647 96.625939,38.830849 96.766887,39.193295 96.904667,39.556958 97.039267,39.921809 97.170679,40.287821 97.298891,40.654965 97.423895,41.023215 97.545681,41.392541 97.664239,41.762916 97.779560,42.134311 97.891636,42.506699 98.000458,42.880051 98.106018,43.254338 98.208308,43.629532 98.307319,44.005604 98.403045,44.382526 98.495478,44.760269 98.584611,45.138804 98.670438,45.518102 98.752951,45.898136 98.832145,46.278874 98.908013,46.660290 98.980550,47.042352 99.049750,47.425034 99.115608,47.808304 99.178119,48.192135 99.237278,48.576497 99.293080,48.961360 99.345522,49.346695 99.394599,49.732474 99.440308,50.118666 99.482645,50.505242 99.521607,50.892173 99.557191,51.279429 99.589394,51.666981 99.618214,52.054800 99.643648,52.442855 99.665696,52.831117 99.684354,53.219557 99.699621,53.608144 99.711497,53.996851 99.719981,54.385646 99.725071,54.774500 99.726768,55.163384" fill="none" stroke="#000" stroke-width="0.300000"/><line x1="96.365930" y1="56.090214" x2="99.565169" y2="56.160022" stroke="#000" stroke-width="0.300000" stroke-linecap="round"/><line x1="96.116266" y1="59.788189" x2="99.297246" y2="60.136563" stroke="#000" stroke-width="0.300000" stroke-linecap="round"/><line x1="96.003644" y1="60.693485" x2="99.174415" y2="61.125008" stroke="#000" stroke-width="0.300000" stroke-linecap="round"/><line x1="95.341730" y1="64.340288" x2="98.462825" y2="65.046520" stroke="#000" stroke-width="0.300000" stroke-linecap="round"/><line x1="95.128763" y1="65.227355" x2="98.230302" y2="66.015045" stroke="#000" stroke-width="0.300000" stroke-linecap="round"/><line x1="94.062913" y1="68.777181" x2="97.083998" y2="69.832191" stroke="#000" stroke-width="0.300000" stroke-linecap="round"/><line x1="93.752263" y1="69.634934" x2="96.744696" y2="70.768666" stroke="#000" stroke-width="0.300000" stroke-linecap="round"/><line x1="92.295865" y1="73.043197" x2="95.178099" y2="74.433422" stroke="#000" stroke-width="0.300000" stroke-linecap="round"/><line x1="91.891412" y1="73.860919" x2="94.736267" y2="75.326115" stroke="#000" stroke-width="0.300000" stroke-linecap="round"/><line x1="90.062756" y1="77.084808" x2="92.769085" y2="78.792374" stroke="#000" stroke-width="0.300000" stroke-linecap="round"/><line x1="89.553015" y1="77.876390" x2="92.229131" y2="79.630929" stroke="#000" stroke-width="0.300000" stroke-linecap="round"/><line x1="87.391606" y1="80.851300" x2="89.887236" y2="82.854255" stroke="#000" stroke-width="0.300000" stroke-linecap="round"/><line x1="86.796282" y1="81.580704" x2="89.256576" y2="83.626908" stroke="#000" stroke-width="0.300000" stroke-linecap="round"/><line x1="84.315927" y1="84.295412" x2="86.568774" y2="86.568006" stroke="#000" stroke-width="0.300000" stroke-linecap="round"/><line x1="83.642536" y1="84.953429" x2="85.855378" y2="87.264993" stroke="#000" stroke-width="0.300000" stroke-linecap="round"/><line x1="80.851127" y1="87.391745" x2="82.854082" y2="89.887375" stroke="#000" stroke-width="0.300000" stroke-linecap="round"/><line x1="80.131348" y1="87.952248" x2="82.068289" y2="90.499454" stroke="#000" stroke-width="0.300000" stroke-linecap="round"/><line x1="77.084620" y1="90.062875" x2="78.792186" y2="92.769204" stroke="#000" stroke-width="0.300000" stroke-linecap="round"/><line x1="76.306777" y1="90.539533" x2="77.942915" y2="93.289634" stroke="#000" stroke-width="0.300000" stroke-linecap="round"/><line x1="73.042997" y1="92.295961" x2="74.433222" y2="95.178196" stroke="#000" stroke-width="0.300000" stroke-linecap="round"/><line x1="72.216809" y1="92.682819" x2="73.531110" y2="95.600457" stroke="#000" stroke-width="0.300000" stroke-linecap="round"/><line x1="68.776971" y1="94.062986" x2="69.831981" y2="97.084071" stroke="#000" stroke-width="0.300000" stroke-linecap="round"/><line x1="67.912762" y1="94.355209" x2="68.888328" y2="97.402876" stroke="#000" stroke-width="0.300000" stroke-linecap="round"/><line x1="64.340071" y1="95.341779" x2="65.046303" y2="98.462874" stroke="#000" stroke-width="0.300000" stroke-linecap="round"/><line x1="63.419896" y1="95.541069" x2="64.071549" y2="98.674014" stroke="#000" stroke-width="0.300000" stroke-linecap="round"/><line x1="59.787968" y1="96.116290" x2="60.136342" y2="99.297270" stroke="#000" stroke-width="0.300000" stroke-linecap="round"/><line x1="58.851245" y1="96.211097" x2="59.144050" y2="99.397673" stroke="#000" stroke-width="0.300000" stroke-linecap="round"/><line x1="55.177779" y1="96.376799" x2="55.163816" y2="99.576769" stroke="#000" stroke-width="0.300000" stroke-linecap="round"/><line x1="54.236332" y1="96.365925" x2="54.166524" y2="99.565164" stroke="#000" stroke-width="0.300000" stroke-linecap="round"/><line x1="50.538358" y1="96.116242" x2="50.189984" y2="99.297222" stroke="#000" stroke-width="0.300000" stroke-linecap="round"/><line x1="49.633063" y1="96.003614" x2="49.201540" y2="99.174385" stroke="#000" stroke-width="0.300000" stroke-linecap="round"/><line x1="45.986264" y1="95.341681" x2="45.280032" y2="98.462776" stroke="#000" stroke-width="0.300000" stroke-linecap="round"/><line x1="45.099198" y1="95.128708" x2="44.311508" y2="98.230247" stroke="#000" stroke-width="0.300000" stroke-linecap="round"/><line x1="41.549377" y1="94.062840" x2="40.494367" y2="97.083925" stroke="#000" stroke-width="0.300000" stroke-linecap="round"/><line x1="40.691626" y1="93.752184" x2="39.557895" y2="96.744617" stroke="#000" stroke-width="0.300000" stroke-linecap="round"/><line x1="37.283371" y1="92.295768" x2="35.893146" y2="95.178003" stroke="#000" stroke-width="0.300000" stroke-linecap="round"/><line x1="36.465652" y1="91.891310" x2="35.000455" y2="94.736165" stroke="#000" stroke-width="0.300000" stroke-linecap="round"/><line x1="33.241773" y1="90.062638" x2="31.534206" y2="92.768967" stroke="#000" stroke-width="0.300000" stroke-linecap="round"/><line x1="32.450192" y1="89.552893" x2="30.695654" y2="92.229009" stroke="#000" stroke-width="0.300000" stroke-linecap="round"/><line x1="29.475295" y1="87.391467" x2="27.472340" y2="89.887097" stroke="#000" stroke-width="0.300000" stroke-linecap="round"/><line x1="28.745894" y1="86.796140" x2="26.699689" y2="89.256434" stroke="#000" stroke-width="0.300000" stroke-linecap="round"/><line x1="26.031199" y1="84.315769" x2="23.758606" y2="86.568616" stroke="#000" stroke-width="0.300000" stroke-linecap="round"/><line x1="25.373186" y1="83.642375" x2="23.061621" y2="85.855217" stroke="#000" stroke-width="0.300000" stroke-linecap="round"/><line x1="22.934884" y1="80.850954" x2="20.439254" y2="82.853909" stroke="#000" stroke-width="0.300000" stroke-linecap="round"/><line x1="22.374386" y1="80.131172" x2="19.827180" y2="82.068112" stroke="#000" stroke-width="0.300000" stroke-linecap="round"/><line x1="20.263775" y1="77.084432" x2="17.557446" y2="78.791998" stroke="#000" stroke-width="0.300000" stroke-linecap="round"/><line x1="19.787122" y1="76.306586" x2="17.037021" y2="77.942724" stroke="#000" stroke-width="0.300000" stroke-linecap="round"/><line x1="18.030710" y1="73.042797" x2="15.148476" y2="74.433022" stroke="#000" stroke-width="0.300000" stroke-linecap="round"/><line x1="17.643858" y1="72.216607" x2="14.726219" y2="73.530907" stroke="#000" stroke-width="0.300000" stroke-linecap="round"/><line x1="16.263708" y1="68.776762" x2="13.242624" y2="69.831772" stroke="#000" stroke-width="0.300000" stroke-linecap="round"/><line x1="15.971491" y1="67.912551" x2="12.923825" y2="68.888117" stroke="#000" stroke-width="0.300000" stroke-linecap="round"/><line x1="14.984941" y1="64.339855" x2="11.863845" y2="65.046086" stroke="#000" stroke-width="0.300000" stroke-linecap="round"/><line x1="14.785654" y1="63.419678" x2="11.652709" y2="64.071332" stroke="#000" stroke-width="0.300000" stroke-linecap="round"/><line x1="14.210454" y1="59.787747" x2="11.029474" y2="60.136121" stroke="#000" stroke-width="0.300000" stroke-linecap="round"/><line x1="14.115651" y1="58.851023" x2="10.929075" y2="59.143829" stroke="#000" stroke-width="0.300000" stroke-linecap="round"/><line x1="13.949970" y1="55.177557" x2="10.750001" y2="55.163594" stroke="#000" stroke-width="0.300000" stroke-linecap="round"/><line x1="13.960848" y1="54.236110" x2="10.761609" y2="54.166302" stroke="#000" stroke-width="0.300000" stroke-linecap="round"/><line x1="14.210551" y1="50.538138" x2="11.029570" y2="50.189764" stroke="#000" stroke-width="0.300000" stroke-linecap="round"/><line x1="14.323184" y1="49.632843" x2="11.152413" y2="49.201320" stroke="#000" stroke-width="0.300000" stroke-linecap="round"/><line x1="14.985137" y1="45.986047" x2="11.864041" y2="45.279815" stroke="#000" stroke-width="0.300000" stroke-linecap="round"/><line x1="15.198115" y1="45.098983" x2="12.096576" y2="44.311292" stroke="#000" stroke-width="0.300000" stroke-linecap="round"/><line x1="16.264001" y1="41.549168" x2="13.242917" y2="40.494158" stroke="#000" stroke-width="0.300000" stroke-linecap="round"/><line x1="16.574663" y1="40.691418" x2="13.582230" y2="39.557687" stroke="#000" stroke-width="0.300000" stroke-linecap="round"/><line x1="18.031096" y1="37.283171" x2="15.148862" y2="35.892946" stroke="#000" stroke-width="0.300000" stroke-linecap="round"/><line x1="18.435559" y1="36.465455" x2="15.590705" y2="35.000258" stroke="#000" stroke-width="0.300000" stroke-linecap="round"/><line x1="20.264249" y1="33.241585" x2="17.557920" y2="31.534018" stroke="#000" stroke-width="0.300000" stroke-linecap="round"/><line x1="20.773997" y1="32.450006" x2="18.097881" y2="30.695468" stroke="#000" stroke-width="0.300000" stroke-linecap="round"/><line x1="22.935440" y1="29.475121" x2="20.439810" y2="27.472166" stroke="#000" stroke-width="0.300000" stroke-linecap="round"/><line x1="23.530770" y1="28.745723" x2="21.070476" y2="26.699518" stroke="#000" stroke-width="0.300000" stroke-linecap="round"/><line x1="26.011157" y1="26.031043" x2="23.758310" y2="23.758450" stroke="#000" stroke-width="0.300000" stroke-linecap="round"/><line x1="26.684553" y1="25.373032" x2="24.471711" y2="23.061468" stroke="#000" stroke-width="0.300000" stroke-linecap="round"/><line x1="29.475988" y1="22.934745" x2="27.473032" y2="20.439115" stroke="#000" stroke-width="0.300000" stroke-linecap="round"/><line x1="30.195773" y1="22.374252" x2="28.258833" y2="19.827045" stroke="#000" stroke-width="0.300000" stroke-linecap="round"/><line x1="33.242524" y1="20.263656" x2="31.534958" y2="17.557327" stroke="#000" stroke-width="0.300000" stroke-linecap="round"/><line x1="34.020373" y1="19.787008" x2="32.384235" y2="17.036907" stroke="#000" stroke-width="0.300000" stroke-linecap="round"/><line x1="37.284171" y1="18.030614" x2="35.893947" y2="15.148380" stroke="#000" stroke-width="0.300000" stroke-linecap="round"/><line x1="38.110364" y1="17.643767" x2="36.796064" y2="14.726128" stroke="#000" stroke-width="0.300000" stroke-linecap="round"/><line x1="41.550216" y1="16.263635" x2="40.495206" y2="13.242550" stroke="#000" stroke-width="0.300000" stroke-linecap="round"/><line x1="42.414429" y1="15.971424" x2="41.438863" y2="12.923757" stroke="#000" stroke-width="0.300000" stroke-linecap="round"/><line x1="45.987130" y1="14.984892" x2="45.280898" y2="11.863796" stroke="#000" stroke-width="0.300000" stroke-linecap="round"/><line x1="46.907307" y1="14.785609" x2="46.255654" y2="11.652663" stroke="#000" stroke-width="0.300000" stroke-linecap="round"/><line x1="50.539242" y1="14.210430" x2="50.190868" y2="11.029449" stroke="#000" stroke-width="0.300000" stroke-linecap="round"/><line x1="51.475966" y1="14.115631" x2="51.183161" y2="10.929055" stroke="#000" stroke-width="0.300000" stroke-linecap="round"/><line x1="55.149433" y1="13.949971" x2="55.163396" y2="10.750001" stroke="#000" stroke-width="0.300000" stroke-linecap="round"/><line x1="56.090880" y1="13.960852" x2="56.160688" y2="10.761614" stroke="#000" stroke-width="0.300000" stroke-linecap="round"/><line x1="59.788851" y1="14.210575" x2="60.137225" y2="11.029594" stroke="#000" stroke-width="0.300000" stroke-linecap="round"/><line x1="60.694145" y1="14.323214" x2="61.125668" y2="11.152443" stroke="#000" stroke-width="0.300000" stroke-linecap="round"/><line x1="64.340938" y1="14.985186" x2="65.047170" y2="11.864090" stroke="#000" stroke-width="0.300000" stroke-linecap="round"/><line x1="65.228001" y1="15.198169" x2="66.015691" y2="12.096630" stroke="#000" stroke-width="0.300000" stroke-linecap="round"/><line x1="68.777810" y1="16.264075" x2="69.832820" y2="13.242990" stroke="#000" stroke-width="0.300000" stroke-linecap="round"/><line x1="69.635558" y1="16.574741" x2="70.769289" y2="13.582309" stroke="#000" stroke-width="0.300000" stroke-linecap="round"/><line x1="73.043797" y1="18.031193" x2="74.434022" y2="15.148958" stroke="#000" stroke-width="0.300000" stroke-linecap="round"/><line x1="73.861511" y1="18.435661" x2="75.326708" y2="15.590806" stroke="#000" stroke-width="0.300000" stroke-linecap="round"/><line x1="77.085371" y1="20.264367" x2="78.792938" y2="17.558038" stroke="#000" stroke-width="0.300000" stroke-linecap="round"/><line x1="77.876948" y1="20.774118" x2="79.631486" y2="18.098003" stroke="#000" stroke-width="0.300000" stroke-linecap="round"/><line x1="80.851820" y1="22.935579" x2="82.854775" y2="20.439949" stroke="#000" stroke-width="0.300000" stroke-linecap="round"/><line x1="81.581216" y1="23.530912" x2="83.627421" y2="21.070618" stroke="#000" stroke-width="0.300000" stroke-linecap="round"/><line x1="84.295881" y1="26.011314" x2="86.568475" y2="23.758467" stroke="#000" stroke-width="0.300000" stroke-linecap="round"/><line x1="84.953889" y1="26.684714" x2="87.265454" y2="24.471872" stroke="#000" stroke-width="0.300000" stroke-linecap="round"/><line x1="87.392162" y1="29.476161" x2="89.887792" y2="27.473206" stroke="#000" stroke-width="0.300000" stroke-linecap="round"/><line x1="87.952651" y1="30.195950" x2="90.499857" y2="28.259009" stroke="#000" stroke-width="0.300000" stroke-linecap="round"/><line x1="90.063230" y1="33.242712" x2="92.769559" y2="31.535145" stroke="#000" stroke-width="0.300000" stroke-linecap="round"/><line x1="90.539874" y1="34.020564" x2="93.289974" y2="32.384426" stroke="#000" stroke-width="0.300000" stroke-linecap="round"/><line x1="92.296251" y1="37.284372" x2="95.178485" y2="35.894147" stroke="#000" stroke-width="0.300000" stroke-linecap="round"/><line x1="92.683093" y1="38.110566" x2="95.600731" y2="36.796266" stroke="#000" stroke-width="0.300000" stroke-linecap="round"/><line x1="94.063206" y1="41.550426" x2="97.084291" y2="40.495416" stroke="#000" stroke-width="0.300000" stroke-linecap="round"/><line x1="94.355412" y1="42.414640" x2="97.403079" y2="41.439075" stroke="#000" stroke-width="0.300000" stroke-linecap="round"/><line x1="95.341926" y1="45.987347" x2="98.463021" y2="45.281115" stroke="#000" stroke-width="0.300000" stroke-linecap="round"/><line x1="95.541204" y1="46.907525" x2="98.674150" y2="46.255871" stroke="#000" stroke-width="0.300000" stroke-linecap="round"/><line x1="96.116363" y1="50.539462" x2="99.297343" y2="50.191088" stroke="#000" stroke-width="0.300000" stroke-linecap="round"/><line x1="96.211158" y1="51.476187" x2="99.397734" y2="51.183382" stroke="#000" stroke-width="0.300000" stroke-linecap="round"/><line x1="96.376796" y1="55.149655" x2="99.576766" y2="55.163618" stroke="#000" stroke-width="0.300000" stroke-linecap="round"/><circle cx="97.080940" cy="57.994327" r="0.720000" fill="#000"/><circle cx="96.500899" cy="62.666678" r="0.720000" fill="#000"/><circle cx="95.401785" cy="67.244803" r="0.720000" fill="#000"/><circle cx="93.797395" cy="71.671229" r="0.720000" fill="#000"/><circle cx="91.707869" cy="75.890389" r="0.720000" fill="#000"/><circle cx="89.159433" cy="79.849316" r="0.720000" fill="#000"/><circle cx="86.168684" cy="83.514389" r="0.720000" fill="#000"/><circle cx="82.801710" cy="86.805425" r="0.720000" fill="#000"/><circle cx="79.087700" cy="89.699115" r="0.720000" fill="#000"/><circle cx="75.073279" cy="92.159136" r="0.720000" fill="#000"/><circle cx="70.808843" cy="94.154605" r="0.720000" fill="#000"/><circle cx="66.347924" cy="95.660472" r="0.720000" fill="#000"/><circle cx="61.746521" cy="96.657827" r="0.720000" fill="#000"/><circle cx="57.040143" cy="97.134635" r="0.720000" fill="#000"/><circle cx="52.332219" cy="97.080926" r="0.720000" fill="#000"/><circle cx="47.659871" cy="96.500859" r="0.720000" fill="#000"/><circle cx="43.081753" cy="95.401721" r="0.720000" fill="#000"/><circle cx="38.655335" cy="93.797307" r="0.720000" fill="#000"/><circle cx="34.436187" cy="91.707758" r="0.720000" fill="#000"/><circle cx="30.477273" cy="89.159301" r="0.720000" fill="#000"/><circle cx="26.812215" cy="86.168535" r="0.720000" fill="#000"/><circle cx="23.521197" cy="82.801543" r="0.720000" fill="#000"/><circle cx="20.627527" cy="79.087517" r="0.720000" fill="#000"/><circle cx="18.167527" cy="75.073084" r="0.720000" fill="#000"/><circle cx="16.172081" cy="70.808637" r="0.720000" fill="#000"/><circle cx="14.666238" cy="66.347710" r="0.720000" fill="#000"/><circle cx="13.668907" cy="61.746301" r="0.720000" fill="#000"/><circle cx="13.192122" cy="57.039921" r="0.720000" fill="#000"/><circle cx="13.245857" cy="52.331998" r="0.720000" fill="#000"/><circle cx="13.825948" cy="47.659653" r="0.720000" fill="#000"/><circle cx="14.925111" cy="43.081540" r="0.720000" fill="#000"/><circle cx="16.529549" cy="38.655131" r="0.720000" fill="#000"/><circle cx="18.619120" cy="34.435994" r="0.720000" fill="#000"/><circle cx="21.167598" cy="30.477094" r="0.720000" fill="#000"/><circle cx="24.158383" cy="26.812050" r="0.720000" fill="#000"/><circle cx="27.525393" cy="23.521051" r="0.720000" fill="#000"/><circle cx="31.239434" cy="20.627400" r="0.720000" fill="#000"/><circle cx="35.253880" cy="18.167422" r="0.720000" fill="#000"/><circle cx="39.518338" cy="16.171998" r="0.720000" fill="#000"/><circle cx="43.979273" cy="14.666180" r="0.720000" fill="#000"/><circle cx="48.580686" cy="13.668873" r="0.720000" fill="#000"/><circle cx="53.287069" cy="13.192112" r="0.720000" fill="#000"/><circle cx="57.994992" cy="13.245872" r="0.720000" fill="#000"/><circle cx="62.667334" cy="13.825988" r="0.720000" fill="#000"/><circle cx="67.245441" cy="14.925175" r="0.720000" fill="#000"/><circle cx="71.671841" cy="16.529636" r="0.720000" fill="#000"/><circle cx="75.890967" cy="18.619230" r="0.720000" fill="#000"/><circle cx="79.849853" cy="21.167729" r="0.720000" fill="#000"/><circle cx="83.514882" cy="24.158532" r="0.720000" fill="#000"/><circle cx="86.805864" cy="27.525560" r="0.720000" fill="#000"/><circle cx="89.699495" cy="31.239616" r="0.720000" fill="#000"/><circle cx="92.159451" cy="35.254076" r="0.720000" fill="#000"/><circle cx="94.154852" cy="39.518544" r="0.720000" fill="#000"/><circle cx="95.660647" cy="43.979487" r="0.720000" fill="#000"/><circle cx="96.657929" cy="48.580906" r="0.720000" fill="#000"/><circle cx="97.134667" cy="53.287290" r="0.720000" fill="#000"/><text x="55.163384" y="51.191620" font-family="Arial, Helvetica, sans-serif" font-size="3.309803" text-anchor="middle" fill="#000">Shape: Circle  |  Perimeter: 11.024in</text><text x="55.163384" y="55.163384" font-family="Arial, Helvetica, sans-serif" font-size="3.309803" text-anchor="middle" fill="#000">Barrier: 4.000mm  |  Slit: 1.000mm  |  Period: 5.000mm</text><text x="55.163384" y="59.135148" font-family="Arial, Helvetica, sans-serif" font-size="3.309803" text-anchor="middle" fill="#000">N images: 5  |  Periods: 56.000</text>
</svg>
