<?xml version="1.0" encoding="UTF-8" standalone="no"?>
<svg xmlns="http://www.w3.org/2000/svg"
     width="142.157757mm" height="142.157757mm"
     viewBox="0 0 142.157757 142.157757">
  <title>Lamp Template (Circle, Ticks + Specs)</title>
  <desc>Perimeter=38.000cm; bar=4.000mm, slit=1.000mm</desc>
  <polyline points="131.557757,71.078878 131.555454,71.606649 131.548546,72.134380 131.537032,72.662031 131.520915,73.189561 131.500194,73.716930 131.474873,74.244098 131.444951,74.771026 131.410433,75.297672 131.371321,75.823996 131.327616,76.349960 131.279324,76.875522 131.226447,77.400643 131.168990,77.925282 131.106956,78.449400 131.040352,78.972956 130.969180,79.495911 130.893448,80.018226 130.813161,80.539859 130.728325,81.060772 130.638947,81.580925 130.545032,82.100279 130.446589,82.618792 130.343625,83.136427 130.236148,83.653144 130.124166,84.168903 130.007687,84.683666 129.886721,85.197392 129.761276,85.710043 129.631362,86.221580 129.496989,86.731964 129.358167,87.241156 129.214908,87.749116 129.067221,88.255808 128.915117,88.761191 128.758610,89.265228 128.597710,89.767880 128.432429,90.269108 128.262781,90.768875 128.088778,91.267143 127.910434,91.763873 127.727762,92.259028 127.540775,92.752570 127.349489,93.244461 127.153918,93.734665 126.954076,94.223143 126.749979,94.709859 126.541643,95.194775 126.329083,95.677854 126.112315,96.159061 125.891357,96.638357 125.666224,97.115707 125.436934,97.591074 125.203505,98.064422 124.965954,98.535715 124.724299,99.004917 124.478558,99.471992 124.228752,99.936905 123.974897,100.399620 123.717015,100.860103 123.455123,101.318318 123.189244,101.774229 122.919395,102.227803 122.645599,102.679006 122.367876,103.127801 122.086247,103.574156 121.800734,104.018036 121.511358,104.459408 121.218141,104.898238 120.921106,105.334492 120.620275,105.768138 120.315672,106.199142 120.007319,106.627471 119.695240,107.053093 119.379458,107.475976 119.059999,107.896087 118.736885,108.313394 118.410142,108.727865 118.079794,109.139470 117.745868,109.548176 117.408387,109.953952 117.067378,110.356768 116.722867,110.756593 116.374880,111.153396 116.023444,111.547147 115.668585,111.937816 115.310330,112.325374 114.948707,112.709791 114.583743,113.091037 114.215466,113.469085 113.843903,113.843903 113.469085,114.215466 113.091037,114.583743 112.709791,114.948707 112.325374,115.310330 111.937816,115.668585 111.547147,116.023444 111.153396,116.374880 110.756593,116.722867 110.356768,117.067378 109.953952,117.408387 109.548176,117.745868 109.139470,118.079794 108.727865,118.410142 108.313394,118.736885 107.896087,119.059999 107.475976,119.379458 107.053093,119.695240 106.627471,120.007319 106.199142,120.315672 105.768138,120.620275 105.334492,120.921106 104.898238,121.218141 104.459408,121.511358 104.018036,121.800734 103.574156,122.086247 103.127801,122.367876 102.679006,122.645599 102.227803,122.919395 101.774229,123.189244 101.318318,123.455123 100.860103,123.717015 100.399620,123.974897 99.936905,124.228752 99.471992,124.478558 99.004917,124.724299 98.535715,124.965954 98.064422,125.203505 97.591074,125.436934 97.115707,125.666224 96.638357,125.891357 96.159061,126.112315 95.677854,126.329083 95.194775,126.541643 94.709859,126.749979 94.223143,126.954076 93.734665,127.153918 93.244461,127.349489 92.752570,127.540775 92.259028,127.727762 91.763873,127.910434 91.267143,128.088778 90.768875,128.262781 90.269108,128.432429 89.767880,128.597710 89.265228,128.758610 88.761191,128.915117 88.255808,129.067221 87.749116,129.214908 87.241156,129.358167 86.731964,129.496989 86.221580,129.631362 85.710043,129.761276 85.197392,129.886721 84.683666,130.007687 84.168903,130.124166 83.653144,130.236148 83.136427,130.343625 82.618792,130.446589 82.100279,130.545032 81.580925,130.638947 81.060772,130.728325 80.539859,130.813161 80.018226,130.893448 79.495911,130.969180 78.972956,131.040352 78.449400,131.106956 77.925282,131.168990 77.400643,131.226447 76.875522,131.279324 76.349960,131.327616 75.823996,131.371321 75.297672,131.410433 74.771026,131.444951 74.244098,131.474873 73.716930,131.500194 73.189561,131.520915 72.662031,131.537032 72.134380,131.548546 71.606649,131.555454 71.078878,131.557757 70.551107,131.555454 70.023376,131.548546 69.495726,131.537032 68.968196,131.520915 68.440827,131.500194 67.913658,131.474873 67.386731,131.444951 66.860085,131.410433 66.333760,131.371321 65.807797,131.327616 65.282235,131.279324 64.757114,131.226447 64.232475,131.168990 63.708357,131.106956 63.184801,131.040352 62.661845,130.969180 62.139531,130.893448 61.617897,130.813161 61.096984,130.728325 60.576831,130.638947 60.057478,130.545032 59.538964,130.446589 59.021329,130.343625 58.504613,130.236148 57.988853,130.124166 57.474091,130.007687 56.960365,129.886721 56.447713,129.761276 55.936177,129.631362 55.425793,129.496989 54.916601,129.358167 54.408640,129.214908 53.901949,129.067221 53.396566,128.915117 52.892529,128.758610 52.389877,128.597710 51.888649,128.432429 51.388882,128.262781 50.890614,128.088778 50.393884,127.910434 49.898729,127.727762 49.405187,127.540775 48.913295,127.349489 48.423092,127.153918 47.934614,126.954076 47.447898,126.749979 46.962982,126.541643 46.479902,126.329083 45.998696,126.112315 45.519400,125.891357 45.042050,125.666224 44.566683,125.436934 44.093335,125.203505 43.622042,124.965954 43.152840,124.724299 42.685765,124.478558 42.220852,124.228752 41.758136,123.974897 41.297654,123.717015 40.839439,123.455123 40.383527,123.189244 39.929953,122.919395 39.478751,122.645599 39.029956,122.367876 38.583601,122.086247 38.139720,121.800734 37.698349,121.511358 37.259519,121.218141 36.823264,120.921106 36.389619,120.620275 35.958615,120.315672 35.530286,120.007319 35.104663,119.695240 34.681781,119.379458 34.261670,119.059999 33.844363,118.736885 33.429891,118.410142 33.018287,118.079794 32.609581,117.745868 32.203805,117.408387 31.800989,117.067378 31.401164,116.722867 31.004361,116.374880 30.610610,116.023444 30.219940,115.668585 29.832383,115.310330 29.447966,114.948707 29.066719,114.583743 28.688672,114.215466 28.313853,113.843903 27.942291,113.469085 27.574014,113.091037 27.209050,112.709791 26.847427,112.325374 26.489172,111.937816 26.134313,111.547147 25.782876,111.153396 25.434889,110.756593 25.090378,110.356768 24.749370,109.953952 24.411889,109.548176 24.077962,109.139470 23.747615,108.727865 23.420872,108.313394 23.097758,107.896087 22.778298,107.475976 22.462517,107.053093 22.150438,106.627471 21.842085,106.199142 21.537482,105.768138 21.236651,105.334492 20.939616,104.898238 20.646399,104.459408 20.357023,104.018036 20.071510,103.574156 19.789881,103.127801 19.512158,102.679006 19.238361,102.227803 18.968513,101.774229 18.702633,101.318318 18.440742,100.860103 18.182859,100.399620 17.929005,99.936905 17.679198,99.471992 17.433458,99.004917 17.191803,98.535715 16.954252,98.064422 16.720823,97.591074 16.491533,97.115707 16.266400,96.638357 16.045441,96.159061 15.828674,95.677854 15.616114,95.194775 15.407777,94.709859 15.203680,94.223143 15.003839,93.734665 14.808267,93.244461 14.616981,92.752570 14.429995,92.259028 14.247323,91.763873 14.068978,91.267143 13.894975,90.768875 13.725327,90.269108 13.560047,89.767880 13.399147,89.265228 13.242639,88.761191 13.090536,88.255808 12.942849,87.749116 12.799589,87.241156 12.660768,86.731964 12.526395,86.221580 12.396481,85.710043 12.271036,85.197392 12.150070,84.683666 12.033591,84.168903 11.921609,83.653144 11.814131,83.136427 11.711167,82.618792 11.612724,82.100279 11.518810,81.580925 11.429431,81.060772 11.344595,80.539859 11.264308,80.018226 11.188576,79.495911 11.117405,78.972956 11.050800,78.449400 10.988767,77.925282 10.931310,77.400643 10.878433,76.875522 10.830140,76.349960 10.786436,75.823996 10.747324,75.297672 10.712805,74.771026 10.682884,74.244098 10.657562,73.716930 10.636842,73.189561 10.620725,72.662031 10.609211,72.134380 10.602303,71.606649 10.600000,71.078878 10.602303,70.551107 10.609211,70.023376 10.620725,69.495726 10.636842,68.968196 10.657562,68.440827 10.682884,67.913658 10.712805,67.386731 10.747324,66.860085 10.786436,66.333760 10.830140,65.807797 10.878433,65.282235 10.931310,64.757114 10.988767,64.232475 11.050800,63.708357 11.117405,63.184801 11.188576,62.661845 11.264308,62.139531 11.344595,61.617897 11.429431,61.096984 11.518810,60.576831 11.612724,60.057478 11.711167,59.538964 11.814131,59.021329 11.921609,58.504613 12.033591,57.988853 12.150070,57.474091 12.271036,56.960365 12.396481,56.447713 12.526395,55.936177 12.660768,55.425793 12.799589,54.916601 12.942849,54.408640 13.090536,53.901949 13.242639,53.396566 13.399147,52.892529 13.560047,52.389877 13.725327,51.888649 13.894975,51.388882 14.068978,50.890614 14.247323,50.393884 14.429995,49.898729 14.616981,49.405187 14.808267,48.913295 15.003839,48.423092 15.203680,47.934614 15.407777,47.447898 15.616114,46.962982 15.828674,46.479902 16.045441,45.998696 16.266400,45.519400 16.491533,45.042050 16.720823,44.566683 16.954252,44.093335 17.191803,43.622042 17.433458,43.152840 17.679198,42.685765 17.929005,42.220852 18.182859,41.758136 18.440742,41.297654 18.702633,40.839439 18.968513,40.383527 19.238361,39.929953 19.512158,39.478751 19.789881,39.029956 20.071510,38.583601 20.357023,38.139720 20.646399,37.698349 20.939616,37.259519 21.236651,36.823264 21.537482,36.389619 21.842085,35.958615 22.150438,35.530286 22.462517,35.104663 22.778298,34.681781 23.097758,34.261670 23.420872,33.844363 23.747615,33.429891 24.077962,33.018287 24.411889,32.609581 24.749370,32.203805 25.090378,31.800989 25.434889,31.401164 25.782876,31.004361 26.134313,30.610610 26.489172,30.219940 26.847427,29.832383 27.209050,29.447966 27.574014,29.066719 27.942291,28.688672 28.313853,28.313853 28.688672,27.942291 29.066719,27.574014 29.447966,27.209050 29.832383,26.847427 30.219940,26.489172 30.610610,26.134313 31.004361,25.782876 31.401164,25.434889 31.800989,25.090378 32.203805,24.749370 32.609581,24.411889 33.018287,24.077962 33.429891,23.747615 33.844363,23.420872 34.261670,23.097758 34.681781,22.778298 35.104663,22.462517 35.530286,22.150438 35.958615,21.842085 36.389619,21.537482 36.823264,21.236651 37.259519,20.939616 37.698349,20.646399 38.139720,20.357023 38.583601,20.071510 39.029956,19.789881 39.478751,19.512158 39.929953,19.238361 40.383527,18.968513 40.839439,18.702633 41.297654,18.440742 41.758136,18.182859 42.220852,17.929005 42.685765,17.679198 43.152840,17.433458 43.622042,17.191803 44.093335,16.954252 44.566683,16.720823 45.042050,16.491533 45.519400,16.266400 45.998696,16.045441 46.479902,15.828674 46.962982,15.616114 47.447898,15.407777 47.934614,15.203680 48.423092,15.003839 48.913295,14.808267 49.405187,14.616981 49.898729,14.429995 50.393884,14.247323 50.890614,14.068978 51.388882,13.894975 51.888649,13.725327 52.389877,13.560047 52.892529,13.399147 53.396566,13.242639 53.901949,13.090536 54.408640,12.942849 54.916601,12.799589 55.425793,12.660768 55.936177,12.526395 56.447713,12.396481 56.960365,12.271036 57.474091,12.150070 57.988853,12.033591 58.504613,11.921609 59.021329,11.814131 59.538964,11.711167 60.057478,11.612724 60.576831,11.518810 61.096984,11.429431 61.617897,11.344595 62.139531,11.264308 62.661845,11.188576 63.184801,11.117405 63.708357,11.050800 64.232475,10.988767 64.757114,10.931310 65.282235,10.878433 65.807797,10.830140 66.333760,10.786436 66.860085,10.747324 67.386731,10.712805 67.913658,10.682884 68.440827,10.657562 68.968196,10.636842 69.495726,10.620725 70.023376,10.609211 70.551107,10.602303 71.078878,10.600000 71.606649,10.602303 72.134380,10.609211 72.662031,10.620725 73.189561,10.636842 73.716930,10.657562 74.244098,10.682884 74.771026,10.712805 75.297672,10.747324 75.823996,10.786436 76.349960,10.830140 76.875522,10.878433 77.400643,10.931310 77.925282,10.988767 78.449400,11.050800 78.972956,11.117405 79.495911,11.188576 80.018226,11.264308 80.539859,11.344595 81.060772,11.429431 81.580925,11.518810 82.100279,11.612724 82.618792,11.711167 83.136427,11.814131 83.653144,11.921609 84.168903,12.033591 84.683666,12.150070 85.197392,12.271036 85.710043,12.396481 86.221580,12.526395 86.731964,12.660768 87.241156,12.799589 87.749116,12.942849 88.255808,13.090536 88.761191,13.242639 89.265228,13.399147 89.767880,13.560047 90.269108,13.725327 90.768875,13.894975 91.267143,14.068978 91.763873,14.247323 92.259028,14.429995 92.752570,14.616981 93.244461,14.808267 93.734665,15.003839 94.223143,15.203680 94.709859,15.407777 95.194775,15.616114 95.677854,15.828674 96.159061,16.045441 96.638357,16.266400 97.115707,16.491533 97.591074,16.720823 98.064422,16.954252 98.535715,17.191803 99.004917,17.433458 99.471992,17.679198 99.936905,17.929005 100.399620,18.182859 100.860103,18.440742 101.318318,18.702633 101.774229,18.968513 102.227803,19.238361 102.679006,19.512158 103.127801,19.789881 103.574156,20.071510 104.018036,20.357023 104.459408,20.646399 104.898238,20.939616 105.334492,21.236651 105.768138,21.537482 106.199142,21.842085 106.627471,22.150438 107.053093,22.462517 107.475976,22.778298 107.896087,23.097758 108.313394,23.420872 108.727865,23.747615 109.139470,24.077962 109.548176,24.411889 109.953952,24.749370 110.356768,25.090378 110.756593,25.434889 111.153396,25.782876 111.547147,26.134313 111.937816,26.489172 112.325374,26.847427 112.709791,27.209050 113.091037,27.574014 113.469085,27.942291 113.843903,28.313853 114.215466,28.688672 114.583743,29.066719 114.948707,29.447966 115.310330,29.832383 115.668585,30.219940 116.023444,30.610610 116.374880,31.004361 116.722867,31.401164 117.067378,31.800989 117.408387,32.203805 117.745868,32.609581 118.079794,33.018287 118.410142,33.429891 118.736885,33.844363 119.059999,34.261670 119.379458,34.681781 119.695240,35.104663 120.007319,35.530286 120.315672,35.958615 120.620275,36.389619 120.921106,36.823264 121.218141,37.259519 121.511358,37.698349 121.800734,38.139720 122.086247,38.583601 122.367876,39.029956 122.645599,39.478751 122.919395,39.929953 123.189244,40.383527 123.455123,40.839439 123.717015,41.297654 123.974897,41.758136 124.228752,42.220852 124.478558,42.685765 124.724299,43.152840 124.965954,43.622042 125.203505,44.093335 125.436934,44.566683 125.666224,45.042050 125.891357,45.519400 126.112315,45.998696 126.329083,46.479902 126.541643,46.962982 126.749979,47.447898 126.954076,47.934614 127.153918,48.423092 127.349489,48.913295 127.540775,49.405187 127.727762,49.898729 127.910434,50.393884 128.088778,50.890614 128.262781,51.388882 128.432429,51.888649 128.597710,52.389877 128.758610,52.892529 128.915117,53.396566 129.067221,53.901949 129.214908,54.408640 129.358167,54.916601 129.496989,55.425793 129.631362,55.936177 129.761276,56.447713 129.886721,56.960365 130.007687,57.474091 130.124166,57.988853 130.236148,58.504613 130.343625,59.021329 130.446589,59.538964 130.545032,60.057478 130.638947,60.576831 130.728325,61.096984 130.813161,61.617897 130.893448,62.139531 130.969180,62.661845 131.040352,63.184801 131.106956,63.708357 131.168990,64.232475 131.226447,64.757114 131.279324,65.282235 131.327616,65.807797 131.371321,66.333760 131.410433,66.860085 131.444951,67.386731 131.474873,67.913658 131.500194,68.440827 131.520915,68.968196 131.537032,69.495726 131.548546,70.023376 131.555454,70.551107 131.557757,71.078878" fill="none" stroke="#000" stroke-width="0.300000"/><line x1="131.549273" y1="72.078833" x2="71.078878" y2="71.078878" stroke="#000" stroke-width="0.300000" stroke-linecap="round"/><line x1="131.350617" y1="76.073153" x2="71.078878" y2="71.078878" stroke="#000" stroke-width="0.300000" stroke-linecap="round"/><line x1="131.549273" y1="72.078833" x2="142.137066" y2="72.587401" stroke="#000" stroke-width="0.300000" stroke-linecap="round"/><line x1="131.350617" y1="76.073153" x2="141.938410" y2="76.581721" stroke="#000" stroke-width="0.300000" stroke-linecap="round"/><line x1="131.259841" y1="77.069006" x2="71.078878" y2="71.078878" stroke="#000" stroke-width="0.300000" stroke-linecap="round"/><line x1="130.732785" y1="81.033387" x2="71.078878" y2="71.078878" stroke="#000" stroke-width="0.300000" stroke-linecap="round"/><line x1="131.259841" y1="77.069006" x2="141.763020" y2="78.498426" stroke="#000" stroke-width="0.300000" stroke-linecap="round"/><line x1="130.732785" y1="81.033387" x2="141.235964" y2="82.462807" stroke="#000" stroke-width="0.300000" stroke-linecap="round"/><line x1="130.559855" y1="82.018310" x2="71.078878" y2="71.078878" stroke="#000" stroke-width="0.300000" stroke-linecap="round"/><line x1="129.706563" y1="85.925473" x2="71.078878" y2="71.078878" stroke="#000" stroke-width="0.300000" stroke-linecap="round"/><line x1="130.559855" y1="82.018310" x2="140.918504" y2="84.267393" stroke="#000" stroke-width="0.300000" stroke-linecap="round"/><line x1="129.706563" y1="85.925473" x2="140.065213" y2="88.174557" stroke="#000" stroke-width="0.300000" stroke-linecap="round"/><line x1="129.453137" y1="86.892810" x2="71.078878" y2="71.078878" stroke="#000" stroke-width="0.300000" stroke-linecap="round"/><line x1="128.280619" y1="90.716328" x2="71.078878" y2="71.078878" stroke="#000" stroke-width="0.300000" stroke-linecap="round"/><line x1="129.453137" y1="86.892810" x2="139.576349" y2="90.036151" stroke="#000" stroke-width="0.300000" stroke-linecap="round"/><line x1="128.280619" y1="90.716328" x2="138.403830" y2="93.859669" stroke="#000" stroke-width="0.300000" stroke-linecap="round"/><line x1="127.947958" y1="91.659361" x2="71.078878" y2="71.078878" stroke="#000" stroke-width="0.300000" stroke-linecap="round"/><line x1="126.463300" y1="95.372824" x2="71.078878" y2="71.078878" stroke="#000" stroke-width="0.300000" stroke-linecap="round"/><line x1="127.947958" y1="91.659361" x2="137.793339" y2="95.587270" stroke="#000" stroke-width="0.300000" stroke-linecap="round"/><line x1="126.463300" y1="95.372824" x2="136.308681" y2="99.300733" stroke="#000" stroke-width="0.300000" stroke-linecap="round"/><line x1="126.054134" y1="96.285266" x2="71.078878" y2="71.078878" stroke="#000" stroke-width="0.300000" stroke-linecap="round"/><line x1="124.268150" y1="99.863582" x2="71.078878" y2="71.078878" stroke="#000" stroke-width="0.300000" stroke-linecap="round"/><line x1="126.054134" y1="96.285266" x2="135.519711" y2="101.056310" stroke="#000" stroke-width="0.300000" stroke-linecap="round"/><line x1="124.268150" y1="99.863582" x2="133.733727" y2="104.634625" stroke="#000" stroke-width="0.300000" stroke-linecap="round"/><line x1="123.784830" y1="100.739009" x2="71.078878" y2="71.078878" stroke="#000" stroke-width="0.300000" stroke-linecap="round"/><line x1="121.709291" y1="104.157510" x2="71.078878" y2="71.078878" stroke="#000" stroke-width="0.300000" stroke-linecap="round"/><line x1="123.784830" y1="100.739009" x2="132.846896" y2="106.238006" stroke="#000" stroke-width="0.300000" stroke-linecap="round"/><line x1="121.709291" y1="104.157510" x2="130.771357" y2="109.656506" stroke="#000" stroke-width="0.300000" stroke-linecap="round"/><line x1="121.155543" y1="104.990175" x2="71.078878" y2="71.078878" stroke="#000" stroke-width="0.300000" stroke-linecap="round"/><line x1="118.804831" y1="108.225640" x2="71.078878" y2="71.078878" stroke="#000" stroke-width="0.300000" stroke-linecap="round"/><line x1="121.155543" y1="104.990175" x2="129.703856" y2="111.258058" stroke="#000" stroke-width="0.300000" stroke-linecap="round"/><line x1="118.804831" y1="108.225640" x2="127.353144" y2="114.493522" stroke="#000" stroke-width="0.300000" stroke-linecap="round"/><line x1="118.184033" y1="109.009591" x2="71.078878" y2="71.078878" stroke="#000" stroke-width="0.300000" stroke-linecap="round"/><line x1="115.574210" y1="112.039910" x2="71.078878" y2="71.078878" stroke="#000" stroke-width="0.300000" stroke-linecap="round"/><line x1="118.184033" y1="109.009591" x2="126.214222" y2="115.928844" stroke="#000" stroke-width="0.300000" stroke-linecap="round"/><line x1="115.574210" y1="112.039910" x2="123.604399" y2="118.959164" stroke="#000" stroke-width="0.300000" stroke-linecap="round"/><line x1="114.890980" y1="112.770093" x2="71.078878" y2="71.078878" stroke="#000" stroke-width="0.300000" stroke-linecap="round"/><line x1="112.039689" y1="115.574415" x2="71.078878" y2="71.078878" stroke="#000" stroke-width="0.300000" stroke-linecap="round"/><line x1="114.890980" y1="112.770093" x2="122.353536" y2="120.298058" stroke="#000" stroke-width="0.300000" stroke-linecap="round"/><line x1="112.039689" y1="115.574415" x2="119.502245" y2="123.102380" stroke="#000" stroke-width="0.300000" stroke-linecap="round"/><line x1="111.298341" y1="116.245511" x2="71.078878" y2="71.078878" stroke="#000" stroke-width="0.300000" stroke-linecap="round"/><line x1="108.225402" y1="118.805016" x2="71.078878" y2="71.078878" stroke="#000" stroke-width="0.300000" stroke-linecap="round"/><line x1="111.298341" y1="116.245511" x2="118.076395" y2="124.395235" stroke="#000" stroke-width="0.300000" stroke-linecap="round"/><line x1="108.225402" y1="118.805016" x2="115.003455" y2="126.954739" stroke="#000" stroke-width="0.300000" stroke-linecap="round"/><line x1="107.431320" y1="119.412805" x2="71.078878" y2="71.078878" stroke="#000" stroke-width="0.300000" stroke-linecap="round"/><line x1="104.157258" y1="121.709456" x2="71.078878" y2="71.078878" stroke="#000" stroke-width="0.300000" stroke-linecap="round"/><line x1="107.431320" y1="119.412805" x2="113.549059" y2="128.069205" stroke="#000" stroke-width="0.300000" stroke-linecap="round"/><line x1="104.157258" y1="121.709456" x2="110.274997" y2="130.365857" stroke="#000" stroke-width="0.300000" stroke-linecap="round"/><line x1="103.315576" y1="122.249399" x2="71.078878" y2="71.078878" stroke="#000" stroke-width="0.300000" stroke-linecap="round"/><line x1="99.863316" y1="124.268292" x2="71.078878" y2="71.078878" stroke="#000" stroke-width="0.300000" stroke-linecap="round"/><line x1="103.315576" y1="122.249399" x2="108.655580" y2="131.406055" stroke="#000" stroke-width="0.300000" stroke-linecap="round"/><line x1="99.863316" y1="124.268292" x2="105.203320" y2="133.424949" stroke="#000" stroke-width="0.300000" stroke-linecap="round"/><line x1="98.980036" y1="124.737113" x2="71.078878" y2="71.078878" stroke="#000" stroke-width="0.300000" stroke-linecap="round"/><line x1="95.372548" y1="126.463421" x2="71.078878" y2="71.078878" stroke="#000" stroke-width="0.300000" stroke-linecap="round"/><line x1="98.980036" y1="124.737113" x2="103.585155" y2="134.284515" stroke="#000" stroke-width="0.300000" stroke-linecap="round"/><line x1="95.372548" y1="126.463421" x2="99.977668" y2="136.010822" stroke="#000" stroke-width="0.300000" stroke-linecap="round"/><line x1="94.453485" y1="126.857486" x2="71.078878" y2="71.078878" stroke="#000" stroke-width="0.300000" stroke-linecap="round"/><line x1="90.716043" y1="128.280715" x2="71.078878" y2="71.078878" stroke="#000" stroke-width="0.300000" stroke-linecap="round"/><line x1="94.453485" y1="126.857486" x2="98.208970" y2="136.769919" stroke="#000" stroke-width="0.300000" stroke-linecap="round"/><line x1="90.716043" y1="128.280715" x2="94.471528" y2="138.193149" stroke="#000" stroke-width="0.300000" stroke-linecap="round"/><line x1="89.767650" y1="128.597783" x2="71.078878" y2="71.078878" stroke="#000" stroke-width="0.300000" stroke-linecap="round"/><line x1="85.925181" y1="129.706638" x2="71.078878" y2="71.078878" stroke="#000" stroke-width="0.300000" stroke-linecap="round"/><line x1="89.767650" y1="128.597783" x2="92.733837" y2="138.774312" stroke="#000" stroke-width="0.300000" stroke-linecap="round"/><line x1="85.925181" y1="129.706638" x2="88.891369" y2="139.883166" stroke="#000" stroke-width="0.300000" stroke-linecap="round"/><line x1="84.953798" y1="129.944079" x2="71.078878" y2="71.078878" stroke="#000" stroke-width="0.300000" stroke-linecap="round"/><line x1="81.033090" y1="130.732834" x2="71.078878" y2="71.078878" stroke="#000" stroke-width="0.300000" stroke-linecap="round"/><line x1="84.953798" y1="129.944079" x2="87.021755" y2="140.340403" stroke="#000" stroke-width="0.300000" stroke-linecap="round"/><line x1="81.033090" y1="130.732834" x2="83.101047" y2="141.129158" stroke="#000" stroke-width="0.300000" stroke-linecap="round"/><line x1="80.045410" y1="130.889264" x2="71.078878" y2="71.078878" stroke="#000" stroke-width="0.300000" stroke-linecap="round"/><line x1="76.072852" y1="131.350642" x2="71.078878" y2="71.078878" stroke="#000" stroke-width="0.300000" stroke-linecap="round"/><line x1="80.045410" y1="130.889264" x2="81.291307" y2="141.415790" stroke="#000" stroke-width="0.300000" stroke-linecap="round"/><line x1="76.072852" y1="131.350642" x2="77.318749" y2="141.877168" stroke="#000" stroke-width="0.300000" stroke-linecap="round"/><line x1="75.075638" y1="131.424986" x2="71.078878" y2="71.078878" stroke="#000" stroke-width="0.300000" stroke-linecap="round"/><line x1="71.078577" y1="131.557755" x2="71.078878" y2="71.078878" stroke="#000" stroke-width="0.300000" stroke-linecap="round"/><line x1="75.075638" y1="131.424986" x2="75.399346" y2="142.020042" stroke="#000" stroke-width="0.300000" stroke-linecap="round"/><line x1="71.078577" y1="131.557755" x2="71.402285" y2="142.152811" stroke="#000" stroke-width="0.300000" stroke-linecap="round"/><line x1="70.078622" y1="131.549269" x2="71.078878" y2="71.078878" stroke="#000" stroke-width="0.300000" stroke-linecap="round"/><line x1="66.084303" y1="131.350592" x2="71.078878" y2="71.078878" stroke="#000" stroke-width="0.300000" stroke-linecap="round"/><line x1="70.078622" y1="131.549269" x2="69.570054" y2="142.137062" stroke="#000" stroke-width="0.300000" stroke-linecap="round"/><line x1="66.084303" y1="131.350592" x2="65.575735" y2="141.938385" stroke="#000" stroke-width="0.300000" stroke-linecap="round"/><line x1="65.088450" y1="131.259811" x2="71.078878" y2="71.078878" stroke="#000" stroke-width="0.300000" stroke-linecap="round"/><line x1="61.124072" y1="130.732737" x2="71.078878" y2="71.078878" stroke="#000" stroke-width="0.300000" stroke-linecap="round"/><line x1="65.088450" y1="131.259811" x2="63.659031" y2="141.762989" stroke="#000" stroke-width="0.300000" stroke-linecap="round"/><line x1="61.124072" y1="130.732737" x2="59.694652" y2="141.235915" stroke="#000" stroke-width="0.300000" stroke-linecap="round"/><line x1="60.139150" y1="130.559801" x2="71.078878" y2="71.078878" stroke="#000" stroke-width="0.300000" stroke-linecap="round"/><line x1="56.231991" y1="129.706489" x2="71.078878" y2="71.078878" stroke="#000" stroke-width="0.300000" stroke-linecap="round"/><line x1="60.139150" y1="130.559801" x2="57.890067" y2="140.918451" stroke="#000" stroke-width="0.300000" stroke-linecap="round"/><line x1="56.231991" y1="129.706489" x2="53.982908" y2="140.065139" stroke="#000" stroke-width="0.300000" stroke-linecap="round"/><line x1="55.264656" y1="129.453058" x2="71.078878" y2="71.078878" stroke="#000" stroke-width="0.300000" stroke-linecap="round"/><line x1="51.441143" y1="128.280522" x2="71.078878" y2="71.078878" stroke="#000" stroke-width="0.300000" stroke-linecap="round"/><line x1="55.264656" y1="129.453058" x2="52.121315" y2="139.576269" stroke="#000" stroke-width="0.300000" stroke-linecap="round"/><line x1="51.441143" y1="128.280522" x2="48.297802" y2="138.403733" stroke="#000" stroke-width="0.300000" stroke-linecap="round"/><line x1="50.498112" y1="127.947856" x2="71.078878" y2="71.078878" stroke="#000" stroke-width="0.300000" stroke-linecap="round"/><line x1="46.784657" y1="126.463178" x2="71.078878" y2="71.078878" stroke="#000" stroke-width="0.300000" stroke-linecap="round"/><line x1="50.498112" y1="127.947856" x2="46.570203" y2="137.793237" stroke="#000" stroke-width="0.300000" stroke-linecap="round"/><line x1="46.784657" y1="126.463178" x2="42.856748" y2="136.308559" stroke="#000" stroke-width="0.300000" stroke-linecap="round"/><line x1="45.872217" y1="126.054008" x2="71.078878" y2="71.078878" stroke="#000" stroke-width="0.300000" stroke-linecap="round"/><line x1="42.293910" y1="124.268007" x2="71.078878" y2="71.078878" stroke="#000" stroke-width="0.300000" stroke-linecap="round"/><line x1="45.872217" y1="126.054008" x2="41.101173" y2="135.519584" stroke="#000" stroke-width="0.300000" stroke-linecap="round"/><line x1="42.293910" y1="124.268007" x2="37.522866" y2="133.733584" stroke="#000" stroke-width="0.300000" stroke-linecap="round"/><line x1="41.418485" y1="123.784683" x2="71.078878" y2="71.078878" stroke="#000" stroke-width="0.300000" stroke-linecap="round"/><line x1="37.999995" y1="121.709126" x2="71.078878" y2="71.078878" stroke="#000" stroke-width="0.300000" stroke-linecap="round"/><line x1="41.418485" y1="123.784683" x2="35.919488" y2="132.846749" stroke="#000" stroke-width="0.300000" stroke-linecap="round"/><line x1="37.999995" y1="121.709126" x2="32.500998" y2="130.771191" stroke="#000" stroke-width="0.300000" stroke-linecap="round"/><line x1="37.167332" y1="121.155373" x2="71.078878" y2="71.078878" stroke="#000" stroke-width="0.300000" stroke-linecap="round"/><line x1="33.931878" y1="118.804647" x2="71.078878" y2="71.078878" stroke="#000" stroke-width="0.300000" stroke-linecap="round"/><line x1="37.167332" y1="121.155373" x2="30.899450" y2="129.703686" stroke="#000" stroke-width="0.300000" stroke-linecap="round"/><line x1="33.931878" y1="118.804647" x2="27.663996" y2="127.352959" stroke="#000" stroke-width="0.300000" stroke-linecap="round"/><line x1="33.147931" y1="118.183845" x2="71.078878" y2="71.078878" stroke="#000" stroke-width="0.300000" stroke-linecap="round"/><line x1="30.117625" y1="115.574006" x2="71.078878" y2="71.078878" stroke="#000" stroke-width="0.300000" stroke-linecap="round"/><line x1="33.147931" y1="118.183845" x2="26.228677" y2="126.214033" stroke="#000" stroke-width="0.300000" stroke-linecap="round"/><line x1="30.117625" y1="115.574006" x2="23.198372" y2="123.604194" stroke="#000" stroke-width="0.300000" stroke-linecap="round"/><line x1="29.387446" y1="114.890771" x2="71.078878" y2="71.078878" stroke="#000" stroke-width="0.300000" stroke-linecap="round"/><line x1="26.583137" y1="112.039467" x2="71.078878" y2="71.078878" stroke="#000" stroke-width="0.300000" stroke-linecap="round"/><line x1="29.387446" y1="114.890771" x2="21.859481" y2="122.353328" stroke="#000" stroke-width="0.300000" stroke-linecap="round"/><line x1="26.583137" y1="112.039467" x2="19.055172" y2="119.502024" stroke="#000" stroke-width="0.300000" stroke-linecap="round"/><line x1="25.912045" y1="111.298116" x2="71.078878" y2="71.078878" stroke="#000" stroke-width="0.300000" stroke-linecap="round"/><line x1="23.352557" y1="108.225163" x2="71.078878" y2="71.078878" stroke="#000" stroke-width="0.300000" stroke-linecap="round"/><line x1="25.912045" y1="111.298116" x2="17.762321" y2="118.076170" stroke="#000" stroke-width="0.300000" stroke-linecap="round"/><line x1="23.352557" y1="108.225163" x2="15.202833" y2="115.003217" stroke="#000" stroke-width="0.300000" stroke-linecap="round"/><line x1="22.744772" y1="107.431078" x2="71.078878" y2="71.078878" stroke="#000" stroke-width="0.300000" stroke-linecap="round"/><line x1="20.448135" y1="104.157006" x2="71.078878" y2="71.078878" stroke="#000" stroke-width="0.300000" stroke-linecap="round"/><line x1="22.744772" y1="107.431078" x2="14.088371" y2="113.548817" stroke="#000" stroke-width="0.300000" stroke-linecap="round"/><line x1="20.448135" y1="104.157006" x2="11.791735" y2="110.274745" stroke="#000" stroke-width="0.300000" stroke-linecap="round"/><line x1="19.908197" y1="103.315321" x2="71.078878" y2="71.078878" stroke="#000" stroke-width="0.300000" stroke-linecap="round"/><line x1="17.889322" y1="99.863050" x2="71.078878" y2="71.078878" stroke="#000" stroke-width="0.300000" stroke-linecap="round"/><line x1="19.908197" y1="103.315321" x2="10.751541" y2="108.655326" stroke="#000" stroke-width="0.300000" stroke-linecap="round"/><line x1="17.889322" y1="99.863050" x2="8.732665" y2="105.203055" stroke="#000" stroke-width="0.300000" stroke-linecap="round"/><line x1="17.420505" y1="98.979768" x2="71.078878" y2="71.078878" stroke="#000" stroke-width="0.300000" stroke-linecap="round"/><line x1="15.694214" y1="95.372272" x2="71.078878" y2="71.078878" stroke="#000" stroke-width="0.300000" stroke-linecap="round"/><line x1="17.420505" y1="98.979768" x2="7.873104" y2="103.584887" stroke="#000" stroke-width="0.300000" stroke-linecap="round"/><line x1="15.694214" y1="95.372272" x2="6.146813" y2="99.977392" stroke="#000" stroke-width="0.300000" stroke-linecap="round"/><line x1="15.300154" y1="94.453207" x2="71.078878" y2="71.078878" stroke="#000" stroke-width="0.300000" stroke-linecap="round"/><line x1="13.876944" y1="90.715757" x2="71.078878" y2="71.078878" stroke="#000" stroke-width="0.300000" stroke-linecap="round"/><line x1="15.300154" y1="94.453207" x2="5.387721" y2="98.208692" stroke="#000" stroke-width="0.300000" stroke-linecap="round"/><line x1="13.876944" y1="90.715757" x2="3.964511" y2="94.471242" stroke="#000" stroke-width="0.300000" stroke-linecap="round"/><line x1="13.559882" y1="89.767363" x2="71.078878" y2="71.078878" stroke="#000" stroke-width="0.300000" stroke-linecap="round"/><line x1="12.451045" y1="85.924889" x2="71.078878" y2="71.078878" stroke="#000" stroke-width="0.300000" stroke-linecap="round"/><line x1="13.559882" y1="89.767363" x2="3.383353" y2="92.733550" stroke="#000" stroke-width="0.300000" stroke-linecap="round"/><line x1="12.451045" y1="85.924889" x2="2.274517" y2="88.891077" stroke="#000" stroke-width="0.300000" stroke-linecap="round"/><line x1="12.213608" y1="84.953505" x2="71.078878" y2="71.078878" stroke="#000" stroke-width="0.300000" stroke-linecap="round"/><line x1="11.424875" y1="81.032792" x2="71.078878" y2="71.078878" stroke="#000" stroke-width="0.300000" stroke-linecap="round"/><line x1="12.213608" y1="84.953505" x2="1.817284" y2="87.021462" stroke="#000" stroke-width="0.300000" stroke-linecap="round"/><line x1="11.424875" y1="81.032792" x2="1.028551" y2="83.100750" stroke="#000" stroke-width="0.300000" stroke-linecap="round"/><line x1="11.268447" y1="80.045113" x2="71.078878" y2="71.078878" stroke="#000" stroke-width="0.300000" stroke-linecap="round"/><line x1="10.807090" y1="76.072552" x2="71.078878" y2="71.078878" stroke="#000" stroke-width="0.300000" stroke-linecap="round"/><line x1="11.268447" y1="80.045113" x2="0.741921" y2="81.291009" stroke="#000" stroke-width="0.300000" stroke-linecap="round"/><line x1="10.807090" y1="76.072552" x2="0.280564" y2="77.318448" stroke="#000" stroke-width="0.300000" stroke-linecap="round"/><line x1="10.732751" y1="75.075337" x2="71.078878" y2="71.078878" stroke="#000" stroke-width="0.300000" stroke-linecap="round"/><line x1="10.600003" y1="71.078275" x2="71.078878" y2="71.078878" stroke="#000" stroke-width="0.300000" stroke-linecap="round"/><line x1="10.732751" y1="75.075337" x2="0.137695" y2="75.399045" stroke="#000" stroke-width="0.300000" stroke-linecap="round"/><line x1="10.600003" y1="71.078275" x2="0.004947" y2="71.401984" stroke="#000" stroke-width="0.300000" stroke-linecap="round"/><line x1="10.608492" y1="70.078321" x2="71.078878" y2="71.078878" stroke="#000" stroke-width="0.300000" stroke-linecap="round"/><line x1="10.807189" y1="66.084003" x2="71.078878" y2="71.078878" stroke="#000" stroke-width="0.300000" stroke-linecap="round"/><line x1="10.608492" y1="70.078321" x2="0.020699" y2="69.569753" stroke="#000" stroke-width="0.300000" stroke-linecap="round"/><line x1="10.807189" y1="66.084003" x2="0.219397" y2="65.575435" stroke="#000" stroke-width="0.300000" stroke-linecap="round"/><line x1="10.897976" y1="65.088150" x2="71.078878" y2="71.078878" stroke="#000" stroke-width="0.300000" stroke-linecap="round"/><line x1="11.425068" y1="61.123774" x2="71.078878" y2="71.078878" stroke="#000" stroke-width="0.300000" stroke-linecap="round"/><line x1="10.897976" y1="65.088150" x2="0.394798" y2="63.658731" stroke="#000" stroke-width="0.300000" stroke-linecap="round"/><line x1="11.425068" y1="61.123774" x2="0.921890" y2="59.694355" stroke="#000" stroke-width="0.300000" stroke-linecap="round"/><line x1="11.598009" y1="60.138854" x2="71.078878" y2="71.078878" stroke="#000" stroke-width="0.300000" stroke-linecap="round"/><line x1="12.451342" y1="56.231699" x2="71.078878" y2="71.078878" stroke="#000" stroke-width="0.300000" stroke-linecap="round"/><line x1="11.598009" y1="60.138854" x2="1.239360" y2="57.889770" stroke="#000" stroke-width="0.300000" stroke-linecap="round"/><line x1="12.451342" y1="56.231699" x2="2.092692" y2="53.982616" stroke="#000" stroke-width="0.300000" stroke-linecap="round"/><line x1="12.704778" y1="55.264365" x2="71.078878" y2="71.078878" stroke="#000" stroke-width="0.300000" stroke-linecap="round"/><line x1="13.877332" y1="51.440858" x2="71.078878" y2="71.078878" stroke="#000" stroke-width="0.300000" stroke-linecap="round"/><line x1="12.704778" y1="55.264365" x2="2.581567" y2="52.121024" stroke="#000" stroke-width="0.300000" stroke-linecap="round"/><line x1="13.877332" y1="51.440858" x2="3.754121" y2="48.297517" stroke="#000" stroke-width="0.300000" stroke-linecap="round"/><line x1="14.210003" y1="50.497828" x2="71.078878" y2="71.078878" stroke="#000" stroke-width="0.300000" stroke-linecap="round"/><line x1="15.694700" y1="46.784381" x2="71.078878" y2="71.078878" stroke="#000" stroke-width="0.300000" stroke-linecap="round"/><line x1="14.210003" y1="50.497828" x2="4.364621" y2="46.569920" stroke="#000" stroke-width="0.300000" stroke-linecap="round"/><line x1="15.694700" y1="46.784381" x2="5.849319" y2="42.856472" stroke="#000" stroke-width="0.300000" stroke-linecap="round"/><line x1="16.103875" y1="45.871943" x2="71.078878" y2="71.078878" stroke="#000" stroke-width="0.300000" stroke-linecap="round"/><line x1="17.889892" y1="42.293644" x2="71.078878" y2="71.078878" stroke="#000" stroke-width="0.300000" stroke-linecap="round"/><line x1="16.103875" y1="45.871943" x2="6.638298" y2="41.100900" stroke="#000" stroke-width="0.300000" stroke-linecap="round"/><line x1="17.889892" y1="42.293644" x2="8.424316" y2="37.522601" stroke="#000" stroke-width="0.300000" stroke-linecap="round"/><line x1="18.373221" y1="41.418222" x2="71.078878" y2="71.078878" stroke="#000" stroke-width="0.300000" stroke-linecap="round"/><line x1="20.448796" y1="37.999743" x2="71.078878" y2="71.078878" stroke="#000" stroke-width="0.300000" stroke-linecap="round"/><line x1="18.373221" y1="41.418222" x2="9.311155" y2="35.919225" stroke="#000" stroke-width="0.300000" stroke-linecap="round"/><line x1="20.448796" y1="37.999743" x2="11.386731" y2="32.500746" stroke="#000" stroke-width="0.300000" stroke-linecap="round"/><line x1="21.002553" y1="37.167083" x2="71.078878" y2="71.078878" stroke="#000" stroke-width="0.300000" stroke-linecap="round"/><line x1="23.353295" y1="33.931640" x2="71.078878" y2="71.078878" stroke="#000" stroke-width="0.300000" stroke-linecap="round"/><line x1="21.002553" y1="37.167083" x2="12.454240" y2="30.899201" stroke="#000" stroke-width="0.300000" stroke-linecap="round"/><line x1="23.353295" y1="33.931640" x2="14.804982" y2="27.663758" stroke="#000" stroke-width="0.300000" stroke-linecap="round"/><line x1="23.974101" y1="33.147696" x2="71.078878" y2="71.078878" stroke="#000" stroke-width="0.300000" stroke-linecap="round"/><line x1="26.583956" y1="30.117404" x2="71.078878" y2="71.078878" stroke="#000" stroke-width="0.300000" stroke-linecap="round"/><line x1="23.974101" y1="33.147696" x2="15.943912" y2="26.228442" stroke="#000" stroke-width="0.300000" stroke-linecap="round"/><line x1="26.583956" y1="30.117404" x2="18.553767" y2="23.198151" stroke="#000" stroke-width="0.300000" stroke-linecap="round"/><line x1="27.267194" y1="29.387228" x2="71.078878" y2="71.078878" stroke="#000" stroke-width="0.300000" stroke-linecap="round"/><line x1="30.118511" y1="26.582933" x2="71.078878" y2="71.078878" stroke="#000" stroke-width="0.300000" stroke-linecap="round"/><line x1="27.267194" y1="29.387228" x2="19.804638" y2="21.859263" stroke="#000" stroke-width="0.300000" stroke-linecap="round"/><line x1="30.118511" y1="26.582933" x2="22.655955" y2="19.054968" stroke="#000" stroke-width="0.300000" stroke-linecap="round"/><line x1="30.859865" y1="25.911844" x2="71.078878" y2="71.078878" stroke="#000" stroke-width="0.300000" stroke-linecap="round"/><line x1="33.932832" y1="23.352372" x2="71.078878" y2="71.078878" stroke="#000" stroke-width="0.300000" stroke-linecap="round"/><line x1="30.859865" y1="25.911844" x2="24.081812" y2="17.762120" stroke="#000" stroke-width="0.300000" stroke-linecap="round"/><line x1="33.932832" y1="23.352372" x2="27.154778" y2="15.202649" stroke="#000" stroke-width="0.300000" stroke-linecap="round"/><line x1="34.726920" y1="22.744591" x2="71.078878" y2="71.078878" stroke="#000" stroke-width="0.300000" stroke-linecap="round"/><line x1="38.001003" y1="20.447970" x2="71.078878" y2="71.078878" stroke="#000" stroke-width="0.300000" stroke-linecap="round"/><line x1="34.726920" y1="22.744591" x2="28.609181" y2="14.088191" stroke="#000" stroke-width="0.300000" stroke-linecap="round"/><line x1="38.001003" y1="20.447970" x2="31.883264" y2="11.791570" stroke="#000" stroke-width="0.300000" stroke-linecap="round"/><line x1="38.842690" y1="19.908036" x2="71.078878" y2="71.078878" stroke="#000" stroke-width="0.300000" stroke-linecap="round"/><line x1="42.294972" y1="17.889179" x2="71.078878" y2="71.078878" stroke="#000" stroke-width="0.300000" stroke-linecap="round"/><line x1="38.842690" y1="19.908036" x2="33.502686" y2="10.751380" stroke="#000" stroke-width="0.300000" stroke-linecap="round"/><line x1="42.294972" y1="17.889179" x2="36.954968" y2="8.732523" stroke="#000" stroke-width="0.300000" stroke-linecap="round"/><line x1="43.178257" y1="17.420367" x2="71.078878" y2="71.078878" stroke="#000" stroke-width="0.300000" stroke-linecap="round"/><line x1="46.785760" y1="15.694093" x2="71.078878" y2="71.078878" stroke="#000" stroke-width="0.300000" stroke-linecap="round"/><line x1="43.178257" y1="17.420367" x2="38.573137" y2="7.872966" stroke="#000" stroke-width="0.300000" stroke-linecap="round"/><line x1="46.785760" y1="15.694093" x2="42.180641" y2="6.146692" stroke="#000" stroke-width="0.300000" stroke-linecap="round"/><line x1="47.704828" y1="15.300038" x2="71.078878" y2="71.078878" stroke="#000" stroke-width="0.300000" stroke-linecap="round"/><line x1="51.442285" y1="13.876847" x2="71.078878" y2="71.078878" stroke="#000" stroke-width="0.300000" stroke-linecap="round"/><line x1="47.704828" y1="15.300038" x2="43.949343" y2="5.387604" stroke="#000" stroke-width="0.300000" stroke-linecap="round"/><line x1="51.442285" y1="13.876847" x2="47.686800" y2="3.964414" stroke="#000" stroke-width="0.300000" stroke-linecap="round"/><line x1="52.390681" y1="13.559790" x2="71.078878" y2="71.078878" stroke="#000" stroke-width="0.300000" stroke-linecap="round"/><line x1="56.233160" y1="12.450971" x2="71.078878" y2="71.078878" stroke="#000" stroke-width="0.300000" stroke-linecap="round"/><line x1="52.390681" y1="13.559790" x2="49.424493" y2="3.383261" stroke="#000" stroke-width="0.300000" stroke-linecap="round"/><line x1="56.233160" y1="12.450971" x2="53.266972" y2="2.274442" stroke="#000" stroke-width="0.300000" stroke-linecap="round"/><line x1="57.204546" y1="12.213539" x2="71.078878" y2="71.078878" stroke="#000" stroke-width="0.300000" stroke-linecap="round"/><line x1="61.125262" y1="11.424826" x2="71.078878" y2="71.078878" stroke="#000" stroke-width="0.300000" stroke-linecap="round"/><line x1="57.204546" y1="12.213539" x2="55.136588" y2="1.817215" stroke="#000" stroke-width="0.300000" stroke-linecap="round"/><line x1="61.125262" y1="11.424826" x2="59.057305" y2="1.028502" stroke="#000" stroke-width="0.300000" stroke-linecap="round"/><line x1="62.112942" y1="11.268401" x2="71.078878" y2="71.078878" stroke="#000" stroke-width="0.300000" stroke-linecap="round"/><line x1="66.085505" y1="10.807065" x2="71.078878" y2="71.078878" stroke="#000" stroke-width="0.300000" stroke-linecap="round"/><line x1="62.112942" y1="11.268401" x2="60.867046" y2="0.741875" stroke="#000" stroke-width="0.300000" stroke-linecap="round"/><line x1="66.085505" y1="10.807065" x2="64.839609" y2="0.280539" stroke="#000" stroke-width="0.300000" stroke-linecap="round"/><line x1="67.082721" y1="10.732731" x2="71.078878" y2="71.078878" stroke="#000" stroke-width="0.300000" stroke-linecap="round"/><line x1="71.079783" y1="10.600004" x2="71.078878" y2="71.078878" stroke="#000" stroke-width="0.300000" stroke-linecap="round"/><line x1="67.082721" y1="10.732731" x2="66.759012" y2="0.137675" stroke="#000" stroke-width="0.300000" stroke-linecap="round"/><line x1="71.079783" y1="10.600004" x2="70.756074" y2="0.004948" stroke="#000" stroke-width="0.300000" stroke-linecap="round"/><line x1="72.079737" y1="10.608496" x2="71.078878" y2="71.078878" stroke="#000" stroke-width="0.300000" stroke-linecap="round"/><line x1="76.074054" y1="10.807214" x2="71.078878" y2="71.078878" stroke="#000" stroke-width="0.300000" stroke-linecap="round"/><line x1="72.079737" y1="10.608496" x2="72.588305" y2="0.020703" stroke="#000" stroke-width="0.300000" stroke-linecap="round"/><line x1="76.074054" y1="10.807214" x2="76.582622" y2="0.219421" stroke="#000" stroke-width="0.300000" stroke-linecap="round"/><line x1="77.069906" y1="10.898006" x2="71.078878" y2="71.078878" stroke="#000" stroke-width="0.300000" stroke-linecap="round"/><line x1="81.034280" y1="11.425117" x2="71.078878" y2="71.078878" stroke="#000" stroke-width="0.300000" stroke-linecap="round"/><line x1="77.069906" y1="10.898006" x2="78.499326" y2="0.394828" stroke="#000" stroke-width="0.300000" stroke-linecap="round"/><line x1="81.034280" y1="11.425117" x2="82.463700" y2="0.921938" stroke="#000" stroke-width="0.300000" stroke-linecap="round"/><line x1="82.019200" y1="11.598063" x2="71.078878" y2="71.078878" stroke="#000" stroke-width="0.300000" stroke-linecap="round"/><line x1="85.926350" y1="12.451416" x2="71.078878" y2="71.078878" stroke="#000" stroke-width="0.300000" stroke-linecap="round"/><line x1="82.019200" y1="11.598063" x2="84.268283" y2="1.239413" stroke="#000" stroke-width="0.300000" stroke-linecap="round"/><line x1="85.926350" y1="12.451416" x2="88.175433" y2="2.092766" stroke="#000" stroke-width="0.300000" stroke-linecap="round"/><line x1="86.893683" y1="12.704857" x2="71.078878" y2="71.078878" stroke="#000" stroke-width="0.300000" stroke-linecap="round"/><line x1="90.717185" y1="13.877429" x2="71.078878" y2="71.078878" stroke="#000" stroke-width="0.300000" stroke-linecap="round"/><line x1="86.893683" y1="12.704857" x2="90.037023" y2="2.581646" stroke="#000" stroke-width="0.300000" stroke-linecap="round"/><line x1="90.717185" y1="13.877429" x2="93.860525" y2="3.754217" stroke="#000" stroke-width="0.300000" stroke-linecap="round"/><line x1="91.660212" y1="14.210105" x2="71.078878" y2="71.078878" stroke="#000" stroke-width="0.300000" stroke-linecap="round"/><line x1="95.373652" y1="15.694821" x2="71.078878" y2="71.078878" stroke="#000" stroke-width="0.300000" stroke-linecap="round"/><line x1="91.660212" y1="14.210105" x2="95.588121" y2="4.364723" stroke="#000" stroke-width="0.300000" stroke-linecap="round"/><line x1="95.373652" y1="15.694821" x2="99.301561" y2="5.849440" stroke="#000" stroke-width="0.300000" stroke-linecap="round"/><line x1="96.286087" y1="16.104001" x2="71.078878" y2="71.078878" stroke="#000" stroke-width="0.300000" stroke-linecap="round"/><line x1="99.864378" y1="17.890035" x2="71.078878" y2="71.078878" stroke="#000" stroke-width="0.300000" stroke-linecap="round"/><line x1="96.286087" y1="16.104001" x2="101.057131" y2="6.638425" stroke="#000" stroke-width="0.300000" stroke-linecap="round"/><line x1="99.864378" y1="17.890035" x2="104.635422" y2="8.424458" stroke="#000" stroke-width="0.300000" stroke-linecap="round"/><line x1="100.739798" y1="18.373368" x2="71.078878" y2="71.078878" stroke="#000" stroke-width="0.300000" stroke-linecap="round"/><line x1="104.158266" y1="20.448962" x2="71.078878" y2="71.078878" stroke="#000" stroke-width="0.300000" stroke-linecap="round"/><line x1="100.739798" y1="18.373368" x2="106.238795" y2="9.311302" stroke="#000" stroke-width="0.300000" stroke-linecap="round"/><line x1="104.158266" y1="20.448962" x2="109.657263" y2="11.386896" stroke="#000" stroke-width="0.300000" stroke-linecap="round"/><line x1="104.990923" y1="21.002723" x2="71.078878" y2="71.078878" stroke="#000" stroke-width="0.300000" stroke-linecap="round"/><line x1="108.226355" y1="23.353479" x2="71.078878" y2="71.078878" stroke="#000" stroke-width="0.300000" stroke-linecap="round"/><line x1="104.990923" y1="21.002723" x2="111.258805" y2="12.454410" stroke="#000" stroke-width="0.300000" stroke-linecap="round"/><line x1="108.226355" y1="23.353479" x2="114.494237" y2="14.805166" stroke="#000" stroke-width="0.300000" stroke-linecap="round"/><line x1="109.010296" y1="23.974290" x2="71.078878" y2="71.078878" stroke="#000" stroke-width="0.300000" stroke-linecap="round"/><line x1="112.040574" y1="26.584160" x2="71.078878" y2="71.078878" stroke="#000" stroke-width="0.300000" stroke-linecap="round"/><line x1="109.010296" y1="23.974290" x2="115.929550" y2="15.944101" stroke="#000" stroke-width="0.300000" stroke-linecap="round"/><line x1="112.040574" y1="26.584160" x2="118.959828" y2="18.553972" stroke="#000" stroke-width="0.300000" stroke-linecap="round"/><line x1="112.770747" y1="27.267402" x2="71.078878" y2="71.078878" stroke="#000" stroke-width="0.300000" stroke-linecap="round"/><line x1="115.575029" y1="30.118732" x2="71.078878" y2="71.078878" stroke="#000" stroke-width="0.300000" stroke-linecap="round"/><line x1="112.770747" y1="27.267402" x2="120.298712" y2="19.804846" stroke="#000" stroke-width="0.300000" stroke-linecap="round"/><line x1="115.575029" y1="30.118732" x2="123.102994" y2="22.656176" stroke="#000" stroke-width="0.300000" stroke-linecap="round"/><line x1="116.246114" y1="30.860090" x2="71.078878" y2="71.078878" stroke="#000" stroke-width="0.300000" stroke-linecap="round"/><line x1="118.805569" y1="33.933070" x2="71.078878" y2="71.078878" stroke="#000" stroke-width="0.300000" stroke-linecap="round"/><line x1="116.246114" y1="30.860090" x2="124.395837" y2="24.082037" stroke="#000" stroke-width="0.300000" stroke-linecap="round"/><line x1="118.805569" y1="33.933070" x2="126.955293" y2="27.155017" stroke="#000" stroke-width="0.300000" stroke-linecap="round"/><line x1="119.413346" y1="34.727162" x2="71.078878" y2="71.078878" stroke="#000" stroke-width="0.300000" stroke-linecap="round"/><line x1="121.709952" y1="38.001255" x2="71.078878" y2="71.078878" stroke="#000" stroke-width="0.300000" stroke-linecap="round"/><line x1="119.413346" y1="34.727162" x2="128.069746" y2="28.609423" stroke="#000" stroke-width="0.300000" stroke-linecap="round"/><line x1="121.709952" y1="38.001255" x2="130.366352" y2="31.883516" stroke="#000" stroke-width="0.300000" stroke-linecap="round"/><line x1="122.249881" y1="38.842945" x2="71.078878" y2="71.078878" stroke="#000" stroke-width="0.300000" stroke-linecap="round"/><line x1="124.268720" y1="42.295237" x2="71.078878" y2="71.078878" stroke="#000" stroke-width="0.300000" stroke-linecap="round"/><line x1="122.249881" y1="38.842945" x2="131.406538" y2="33.502941" stroke="#000" stroke-width="0.300000" stroke-linecap="round"/><line x1="124.268720" y1="42.295237" x2="133.425377" y2="36.955233" stroke="#000" stroke-width="0.300000" stroke-linecap="round"/><line x1="124.737527" y1="43.178525" x2="71.078878" y2="71.078878" stroke="#000" stroke-width="0.300000" stroke-linecap="round"/><line x1="126.463785" y1="46.786036" x2="71.078878" y2="71.078878" stroke="#000" stroke-width="0.300000" stroke-linecap="round"/><line x1="124.737527" y1="43.178525" x2="134.284929" y2="38.573405" stroke="#000" stroke-width="0.300000" stroke-linecap="round"/><line x1="126.463785" y1="46.786036" x2="136.011186" y2="42.180917" stroke="#000" stroke-width="0.300000" stroke-linecap="round"/><line x1="126.857836" y1="47.705106" x2="71.078878" y2="71.078878" stroke="#000" stroke-width="0.300000" stroke-linecap="round"/><line x1="128.281006" y1="51.442570" x2="71.078878" y2="71.078878" stroke="#000" stroke-width="0.300000" stroke-linecap="round"/><line x1="126.857836" y1="47.705106" x2="136.770269" y2="43.949621" stroke="#000" stroke-width="0.300000" stroke-linecap="round"/><line x1="128.281006" y1="51.442570" x2="138.193439" y2="47.687085" stroke="#000" stroke-width="0.300000" stroke-linecap="round"/><line x1="128.598059" y1="52.390968" x2="71.078878" y2="71.078878" stroke="#000" stroke-width="0.300000" stroke-linecap="round"/><line x1="129.706860" y1="56.233452" x2="71.078878" y2="71.078878" stroke="#000" stroke-width="0.300000" stroke-linecap="round"/><line x1="128.598059" y1="52.390968" x2="138.774587" y2="49.424781" stroke="#000" stroke-width="0.300000" stroke-linecap="round"/><line x1="129.706860" y1="56.233452" x2="139.883389" y2="53.267265" stroke="#000" stroke-width="0.300000" stroke-linecap="round"/><line x1="129.944287" y1="57.204839" x2="71.078878" y2="71.078878" stroke="#000" stroke-width="0.300000" stroke-linecap="round"/><line x1="130.732979" y1="61.125560" x2="71.078878" y2="71.078878" stroke="#000" stroke-width="0.300000" stroke-linecap="round"/><line x1="129.944287" y1="57.204839" x2="140.340611" y2="55.136882" stroke="#000" stroke-width="0.300000" stroke-linecap="round"/><line x1="130.732979" y1="61.125560" x2="141.129303" y2="59.057602" stroke="#000" stroke-width="0.300000" stroke-linecap="round"/><line x1="130.889402" y1="62.113240" x2="71.078878" y2="71.078878" stroke="#000" stroke-width="0.300000" stroke-linecap="round"/><line x1="131.350717" y1="66.085806" x2="71.078878" y2="71.078878" stroke="#000" stroke-width="0.300000" stroke-linecap="round"/><line x1="130.889402" y1="62.113240" x2="141.415928" y2="60.867344" stroke="#000" stroke-width="0.300000" stroke-linecap="round"/><line x1="131.350717" y1="66.085806" x2="141.877243" y2="64.839909" stroke="#000" stroke-width="0.300000" stroke-linecap="round"/><line x1="131.425045" y1="67.083021" x2="71.078878" y2="71.078878" stroke="#000" stroke-width="0.300000" stroke-linecap="round"/><line x1="131.557751" y1="71.080084" x2="71.078878" y2="71.078878" stroke="#000" stroke-width="0.300000" stroke-linecap="round"/><line x1="131.425045" y1="67.083021" x2="142.020101" y2="66.759313" stroke="#000" stroke-width="0.300000" stroke-linecap="round"/><line x1="131.557751" y1="71.080084" x2="142.152808" y2="70.756376" stroke="#000" stroke-width="0.300000" stroke-linecap="round"/><circle cx="128.935805" cy="73.955289" r="0.720000" fill="#000"/><circle cx="128.502403" cy="78.711683" r="0.720000" fill="#000"/><circle cx="127.673474" cy="83.437874" r="0.720000" fill="#000"/><circle cx="126.463325" cy="88.058121" r="0.720000" fill="#000"/><circle cx="124.867772" cy="92.583410" r="0.720000" fill="#000"/><circle cx="122.913866" cy="96.941555" r="0.720000" fill="#000"/><circle cx="120.595212" cy="101.142496" r="0.720000" fill="#000"/><circle cx="117.950814" cy="105.119729" r="0.720000" fill="#000"/><circle cx="114.972309" cy="108.881725" r="0.720000" fill="#000"/><circle cx="111.693466" cy="112.385044" r="0.720000" fill="#000"/><circle cx="108.152400" cy="115.590045" r="0.720000" fill="#000"/><circle cx="104.341636" cy="118.505882" r="0.720000" fill="#000"/><circle cx="100.321465" cy="121.084519" r="0.720000" fill="#000"/><circle cx="96.082735" cy="123.333334" r="0.720000" fill="#000"/><circle cx="91.693056" cy="125.215311" r="0.720000" fill="#000"/><circle cx="87.141987" cy="126.735758" r="0.720000" fill="#000"/><circle cx="82.502469" cy="127.869770" r="0.720000" fill="#000"/><circle cx="77.763210" cy="128.620373" r="0.720000" fill="#000"/><circle cx="73.000334" cy="128.975506" r="0.720000" fill="#000"/><circle cx="68.202166" cy="128.935791" r="0.720000" fill="#000"/><circle cx="63.445775" cy="128.502362" r="0.720000" fill="#000"/><circle cx="58.719588" cy="127.673410" r="0.720000" fill="#000"/><circle cx="54.099348" cy="126.463236" r="0.720000" fill="#000"/><circle cx="49.574067" cy="124.867661" r="0.720000" fill="#000"/><circle cx="45.215933" cy="122.913730" r="0.720000" fill="#000"/><circle cx="41.015003" cy="120.595056" r="0.720000" fill="#000"/><circle cx="37.037785" cy="117.950635" r="0.720000" fill="#000"/><circle cx="33.275804" cy="114.972112" r="0.720000" fill="#000"/><circle cx="29.772500" cy="111.693252" r="0.720000" fill="#000"/><circle cx="26.567519" cy="108.152168" r="0.720000" fill="#000"/><circle cx="23.651701" cy="104.341390" r="0.720000" fill="#000"/><circle cx="21.073085" cy="100.321205" r="0.720000" fill="#000"/><circle cx="18.824292" cy="96.082463" r="0.720000" fill="#000"/><circle cx="16.942339" cy="91.692774" r="0.720000" fill="#000"/><circle cx="15.421915" cy="87.141697" r="0.720000" fill="#000"/><circle cx="14.287928" cy="82.502173" r="0.720000" fill="#000"/><circle cx="13.537348" cy="77.762910" r="0.720000" fill="#000"/><circle cx="13.182241" cy="73.000032" r="0.720000" fill="#000"/><circle cx="13.221981" cy="68.201865" r="0.720000" fill="#000"/><circle cx="13.655435" cy="63.445476" r="0.720000" fill="#000"/><circle cx="14.484410" cy="58.719293" r="0.720000" fill="#000"/><circle cx="15.694610" cy="54.099060" r="0.720000" fill="#000"/><circle cx="17.290208" cy="49.573787" r="0.720000" fill="#000"/><circle cx="19.244162" cy="45.215664" r="0.720000" fill="#000"/><circle cx="21.562857" cy="41.014745" r="0.720000" fill="#000"/><circle cx="24.207300" cy="37.037542" r="0.720000" fill="#000"/><circle cx="27.185841" cy="33.275575" r="0.720000" fill="#000"/><circle cx="30.464719" cy="29.772288" r="0.720000" fill="#000"/><circle cx="34.005820" cy="26.567326" r="0.720000" fill="#000"/><circle cx="37.816613" cy="23.651527" r="0.720000" fill="#000"/><circle cx="41.836812" cy="21.072934" r="0.720000" fill="#000"/><circle cx="46.075565" cy="18.824161" r="0.720000" fill="#000"/><circle cx="50.465265" cy="16.942232" r="0.720000" fill="#000"/><circle cx="55.016349" cy="15.421830" r="0.720000" fill="#000"/><circle cx="59.655879" cy="14.287869" r="0.720000" fill="#000"/><circle cx="64.395146" cy="13.537312" r="0.720000" fill="#000"/><circle cx="69.158026" cy="13.182232" r="0.720000" fill="#000"/><circle cx="73.956193" cy="13.221995" r="0.720000" fill="#000"/><circle cx="78.712579" cy="13.655476" r="0.720000" fill="#000"/><circle cx="83.438758" cy="14.484474" r="0.720000" fill="#000"/><circle cx="88.058985" cy="15.694700" r="0.720000" fill="#000"/><circle cx="92.584250" cy="17.290319" r="0.720000" fill="#000"/><circle cx="96.942362" cy="19.244298" r="0.720000" fill="#000"/><circle cx="101.143269" cy="21.563013" r="0.720000" fill="#000"/><circle cx="105.120458" cy="24.207478" r="0.720000" fill="#000"/><circle cx="108.882410" cy="27.186038" r="0.720000" fill="#000"/><circle cx="112.385681" cy="30.464933" r="0.720000" fill="#000"/><circle cx="115.590623" cy="34.006052" r="0.720000" fill="#000"/><circle cx="118.506404" cy="37.816859" r="0.720000" fill="#000"/><circle cx="121.084975" cy="41.837072" r="0.720000" fill="#000"/><circle cx="123.333726" cy="46.075836" r="0.720000" fill="#000"/><circle cx="125.215631" cy="50.465547" r="0.720000" fill="#000"/><circle cx="126.736011" cy="55.016638" r="0.720000" fill="#000"/><circle cx="127.869947" cy="59.656175" r="0.720000" fill="#000"/><circle cx="128.620480" cy="64.395445" r="0.720000" fill="#000"/><circle cx="128.975534" cy="69.158327" r="0.720000" fill="#000"/><circle cx="71.078878" cy="71.078878" r="0.600000" fill="#d00"/><text x="71.078878" y="65.961199" font-family="Arial, Helvetica, sans-serif" font-size="4.264733" text-anchor="middle" fill="#000">Shape: Circle  |  Perimeter: 38.000cm</text><text x="71.078878" y="71.078878" font-family="Arial, Helvetica, sans-serif" font-size="4.264733" text-anchor="middle" fill="#000">Barrier: 4.000mm  |  Slit: 1.000mm  |  Period: 5.000mm</text><text x="71.078878" y="76.196558" font-family="Arial, Helvetica, sans-serif" font-size="4.264733" text-anchor="middle" fill="#000">N images: 5  |  Periods: 76.000</text>
</svg>
