<?xml version="1.0" encoding="UTF-8" standalone="no"?>
<svg xmlns="http://www.w3.org/2000/svg" width="11.0551in" height="8.5in" viewBox="0 0 11.0551 8.5">
<title>Scanimation Barrier</title>
<g fill="rgb(0,0,0)" stroke="none">
<rect x="0.0236" y="0" width="0.1181" height="8.5"/>
<rect x="0.1654" y="0" width="0.1181" height="8.5"/>
<rect x="0.3071" y="0" width="0.1181" height="8.5"/>
<rect x="0.4488" y="0" width="0.1181" height="8.5"/>
<rect x="0.5906" y="0" width="0.1181" height="8.5"/>
<rect x="0.7323" y="0" width="0.1181" height="8.5"/>
<rect x="0.874" y="0" width="0.1181" height="8.5"/>
<rect x="1.0157" y="0" width="0.1181" height="8.5"/>
<rect x="1.1575" y="0" width="0.1181" height="8.5"/>
<rect x="1.2992" y="0" width="0.1181" height="8.5"/>
<rect x="1.4409" y="0" width="0.1181" height="8.5"/>
<rect x="1.5827" y="0" width="0.1181" height="8.5"/>
<rect x="1.7244" y="0" width="0.1181" height="8.5"/>
<rect x="1.8661" y="0" width="0.1181" height="8.5"/>
<rect x="2.0079" y="0" width="0.1181" height="8.5"/>
<rect x="2.1496" y="0" width="0.1181" height="8.5"/>
<rect x="2.2913" y="0" width="0.1181" height="8.5"/>
<rect x="2.4331" y="0" width="0.1181" height="8.5"/>
<rect x="2.5748" y="0" width="0.1181" height="8.5"/>
<rect x="2.7165" y="0" width="0.1181" height="8.5"/>
<rect x="2.8583" y="0" width="0.1181" height="8.5"/>
<rect x="3" y="0" width="0.1181" height="8.5"/>
<rect x="3.1417" y="0" width="0.1181" height="8.5"/>
<rect x="3.2835" y="0" width="0.1181" height="8.5"/>
<rect x="3.4252" y="0" width="0.1181" height="8.5"/>
<rect x="3.5669" y="0" width="0.1181" height="8.5"/>
<rect x="3.7087" y="0" width="0.1181" height="8.5"/>
<rect x="3.8504" y="0" width="0.1181" height="8.5"/>
<rect x="3.9921" y="0" width="0.1181" height="8.5"/>
<rect x="4.1339" y="0" width="0.1181" height="8.5"/>
<rect x="4.2756" y="0" width="0.1181" height="8.5"/>
<rect x="4.4173" y="0" width="0.1181" height="8.5"/>
<rect x="4.5591" y="0" width="0.1181" height="8.5"/>
<rect x="4.7008" y="0" width="0.1181" height="8.5"/>
<rect x="4.8425" y="0" width="0.1181" height="8.5"/>
<rect x="4.9843" y="0" width="0.1181" height="8.5"/>
<rect x="5.126" y="0" width="0.1181" height="8.5"/>
<rect x="5.2677" y="0" width="0.1181" height="8.5"/>
<rect x="5.4094" y="0" width="0.1181" height="8.5"/>
<rect x="5.5512" y="0" width="0.1181" height="8.5"/>
<rect x="5.6929" y="0" width="0.1181" height="8.5"/>
<rect x="5.8346" y="0" width="0.1181" height="8.5"/>
<rect x="5.9764" y="0" width="0.1181" height="8.5"/>
<rect x="6.1181" y="0" width="0.1181" height="8.5"/>
<rect x="6.2598" y="0" width="0.1181" height="8.5"/>
<rect x="6.4016" y="0" width="0.1181" height="8.5"/>
<rect x="6.5433" y="0" width="0.1181" height="8.5"/>
<rect x="6.685" y="0" width="0.1181" height="8.5"/>
<rect x="6.8268" y="0" width="0.1181" height="8.5"/>
<rect x="6.9685" y="0" width="0.1181" height="8.5"/>
<rect x="7.1102" y="0" width="0.1181" height="8.5"/>
<rect x="7.252" y="0" width="0.1181" height="8.5"/>
<rect x="7.3937" y="0" width="0.1181" height="8.5"/>
<rect x="7.5354" y="0" width="0.1181" height="8.5"/>
<rect x="7.6772" y="0" width="0.1181" height="8.5"/>
<rect x="7.8189" y="0" width="0.1181" height="8.5"/>
<rect x="7.9606" y="0" width="0.1181" height="8.5"/>
<rect x="8.1024" y="0" width="0.1181" height="8.5"/>
<rect x="8.2441" y="0" width="0.1181" height="8.5"/>
<rect x="8.3858" y="0" width="0.1181" height="8.5"/>
<rect x="8.5276" y="0" width="0.1181" height="8.5"/>
<rect x="8.6693" y="0" width="0.1181" height="8.5"/>
<rect x="8.811" y="0" width="0.1181" height="8.5"/>
<rect x="8.9528" y="0" width="0.1181" height="8.5"/>
<rect x="9.0945" y="0" width="0.1181" height="8.5"/>
<rect x="9.2362" y="0" width="0.1181" height="8.5"/>
<rect x="9.378" y="0" width="0.1181" height="8.5"/>
<rect x="9.5197" y="0" width="0.1181" height="8.5"/>
<rect x="9.6614" y="0" width="0.1181" height="8.5"/>
<rect x="9.8031" y="0" width="0.1181" height="8.5"/>
<rect x="9.9449" y="0" width="0.1181" height="8.5"/>
<rect x="10.0866" y="0" width="0.1181" height="8.5"/>
<rect x="10.2283" y="0" width="0.1181" height="8.5"/>
<rect x="10.3701" y="0" width="0.1181" height="8.5"/>
<rect x="10.5118" y="0" width="0.1181" height="8.5"/>
<rect x="10.6535" y="0" width="0.1181" height="8.5"/>
<rect x="10.7953" y="0" width="0.1181" height="8.5"/>
<rect x="10.937" y="0" width="0.1181" height="8.5"/>
</g></svg>