<?xml version="1.0" encoding="UTF-8" standalone="no"?>
<svg xmlns="http://www.w3.org/2000/svg" width="8.5in" height="11.0in" viewBox="0 0 8.5 11.0">
<title>Lamp Template — Lines Page (Vertical)</title>
<g stroke="#000" stroke-width="0.003in" fill="none">
<line x1="0.000000" y1="0" x2="0.000000" y2="11.000000"/>
<line x1="0.118110" y1="0" x2="0.118110" y2="11.000000"/>
<line x1="0.236220" y1="0" x2="0.236220" y2="11.000000"/>
<line x1="0.354331" y1="0" x2="0.354331" y2="11.000000"/>
<line x1="0.472441" y1="0" x2="0.472441" y2="11.000000"/>
<line x1="0.590551" y1="0" x2="0.590551" y2="11.000000"/>
<line x1="0.708661" y1="0" x2="0.708661" y2="11.000000"/>
<line x1="0.826772" y1="0" x2="0.826772" y2="11.000000"/>
<line x1="0.944882" y1="0" x2="0.944882" y2="11.000000"/>
<line x1="1.062992" y1="0" x2="1.062992" y2="11.000000"/>
<line x1="1.181102" y1="0" x2="1.181102" y2="11.000000"/>
<line x1="1.299213" y1="0" x2="1.299213" y2="11.000000"/>
<line x1="1.417323" y1="0" x2="1.417323" y2="11.000000"/>
<line x1="1.535433" y1="0" x2="1.535433" y2="11.000000"/>
<line x1="1.653543" y1="0" x2="1.653543" y2="11.000000"/>
<line x1="1.771654" y1="0" x2="1.771654" y2="11.000000"/>
<line x1="1.889764" y1="0" x2="1.889764" y2="11.000000"/>
<line x1="2.007874" y1="0" x2="2.007874" y2="11.000000"/>
<line x1="2.125984" y1="0" x2="2.125984" y2="11.000000"/>
<line x1="2.244094" y1="0" x2="2.244094" y2="11.000000"/>
<line x1="2.362205" y1="0" x2="2.362205" y2="11.000000"/>
<line x1="2.480315" y1="0" x2="2.480315" y2="11.000000"/>
<line x1="2.598425" y1="0" x2="2.598425" y2="11.000000"/>
<line x1="2.716535" y1="0" x2="2.716535" y2="11.000000"/>
<line x1="2.834646" y1="0" x2="2.834646" y2="11.000000"/>
<line x1="2.952756" y1="0" x2="2.952756" y2="11.000000"/>
<line x1="3.070866" y1="0" x2="3.070866" y2="11.000000"/>
<line x1="3.188976" y1="0" x2="3.188976" y2="11.000000"/>
<line x1="3.307087" y1="0" x2="3.307087" y2="11.000000"/>
<line x1="3.425197" y1="0" x2="3.425197" y2="11.000000"/>
<line x1="3.543307" y1="0" x2="3.543307" y2="11.000000"/>
<line x1="3.661417" y1="0" x2="3.661417" y2="11.000000"/>
<line x1="3.779528" y1="0" x2="3.779528" y2="11.000000"/>
<line x1="3.897638" y1="0" x2="3.897638" y2="11.000000"/>
<line x1="4.015748" y1="0" x2="4.015748" y2="11.000000"/>
<line x1="4.133858" y1="0" x2="4.133858" y2="11.000000"/>
<line x1="4.251969" y1="0" x2="4.251969" y2="11.000000"/>
<line x1="4.370079" y1="0" x2="4.370079" y2="11.000000"/>
<line x1="4.488189" y1="0" x2="4.488189" y2="11.000000"/>
<line x1="4.606299" y1="0" x2="4.606299" y2="11.000000"/>
<line x1="4.724409" y1="0" x2="4.724409" y2="11.000000"/>
<line x1="4.842520" y1="0" x2="4.842520" y2="11.000000"/>
<line x1="4.960630" y1="0" x2="4.960630" y2="11.000000"/>
<line x1="5.078740" y1="0" x2="5.078740" y2="11.000000"/>
<line x1="5.196850" y1="0" x2="5.196850" y2="11.000000"/>
<line x1="5.314961" y1="0" x2="5.314961" y2="11.000000"/>
<line x1="5.433071" y1="0" x2="5.433071" y2="11.000000"/>
<line x1="5.551181" y1="0" x2="5.551181" y2="11.000000"/>
<line x1="5.669291" y1="0" x2="5.669291" y2="11.000000"/>
<line x1="5.787402" y1="0" x2="5.787402" y2="11.000000"/>
<line x1="5.905512" y1="0" x2="5.905512" y2="11.000000"/>
<line x1="6.023622" y1="0" x2="6.023622" y2="11.000000"/>
<line x1="6.141732" y1="0" x2="6.141732" y2="11.000000"/>
<line x1="6.259843" y1="0" x2="6.259843" y2="11.000000"/>
<line x1="6.377953" y1="0" x2="6.377953" y2="11.000000"/>
<line x1="6.496063" y1="0" x2="6.496063" y2="11.000000"/>
<line x1="6.614173" y1="0" x2="6.614173" y2="11.000000"/>
<line x1="6.732283" y1="0" x2="6.732283" y2="11.000000"/>
<line x1="6.850394" y1="0" x2="6.850394" y2="11.000000"/>
<line x1="6.968504" y1="0" x2="6.968504" y2="11.000000"/>
<line x1="7.086614" y1="0" x2="7.086614" y2="11.000000"/>
<line x1="7.204724" y1="0" x2="7.204724" y2="11.000000"/>
<line x1="7.322835" y1="0" x2="7.322835" y2="11.000000"/>
<line x1="7.440945" y1="0" x2="7.440945" y2="11.000000"/>
<line x1="7.559055" y1="0" x2="7.559055" y2="11.000000"/>
<line x1="7.677165" y1="0" x2="7.677165" y2="11.000000"/>
<line x1="7.795276" y1="0" x2="7.795276" y2="11.000000"/>
<line x1="7.913386" y1="0" x2="7.913386" y2="11.000000"/>
<line x1="8.031496" y1="0" x2="8.031496" y2="11.000000"/>
<line x1="8.149606" y1="0" x2="8.149606" y2="11.000000"/>
<line x1="8.267717" y1="0" x2="8.267717" y2="11.000000"/>
<line x1="8.385827" y1="0" x2="8.385827" y2="11.000000"/>
</g></svg>