<?xml version="1.0" encoding="UTF-8" standalone="no"?>
<svg xmlns="http://www.w3.org/2000/svg"
     width="107.781416mm" height="107.781416mm"
     viewBox="0 0 107.781416 107.781416">
  <title>Lamp Template (Circle, Ticks + Specs)</title>
  <desc>Perimeter=11.055in; bar=3.000mm, slit=0.600mm</desc>
  <polyline points="98.581416,53.890708 98.579714,54.280703 98.574609,54.670668 98.566102,55.060574 98.554192,55.450391 98.538880,55.840089 98.520169,56.229639 98.498059,56.619010 98.472552,57.008174 98.443650,57.397101 98.411354,57.785760 98.375669,58.174123 98.336596,58.562159 98.294138,58.949840 98.248298,59.337135 98.199081,59.724016 98.146489,60.110452 98.090527,60.496415 98.031199,60.881875 97.968510,61.266802 97.902464,61.651168 97.833066,62.034943 97.760322,62.418097 97.684237,62.800602 97.604817,63.182429 97.522068,63.563548 97.435996,63.943930 97.346608,64.323547 97.253911,64.702369 97.157912,65.080368 97.058617,65.457514 96.956035,65.833780 96.850174,66.209137 96.741041,66.583555 96.628645,66.957007 96.512994,67.329463 96.394097,67.700896 96.271964,68.071278 96.146603,68.440579 96.018024,68.808773 95.886237,69.175830 95.751251,69.541724 95.613078,69.906425 95.471728,70.269907 95.327211,70.632142 95.179538,70.993102 95.028722,71.352759 94.874772,71.711086 94.717701,72.068057 94.557521,72.423643 94.394245,72.777817 94.227883,73.130554 94.058450,73.481825 93.885958,73.831604 93.710420,74.179865 93.531850,74.526580 93.350261,74.871725 93.165667,75.215271 92.978082,75.557193 92.787520,75.897466 92.593996,76.236062 92.397525,76.572957 92.198122,76.908124 91.995801,77.241539 91.790578,77.573175 91.582469,77.903008 91.371489,78.231012 91.157656,78.557163 90.940984,78.881435 90.721491,79.203804 90.499193,79.524245 90.274107,79.842734 90.046250,80.159247 89.815640,80.473760 89.582294,80.786248 89.346231,81.096687 89.107467,81.405055 88.866021,81.711328 88.621911,82.015482 88.375157,82.317494 88.125777,82.617341 87.873789,82.915001 87.619214,83.210451 87.362069,83.503667 87.102376,83.794629 86.840154,84.083313 86.575423,84.369698 86.308202,84.653761 86.038513,84.935482 85.766376,85.214839 85.491811,85.491811 85.214839,85.766376 84.935482,86.038513 84.653761,86.308202 84.369698,86.575423 84.083313,86.840154 83.794629,87.102376 83.503667,87.362069 83.210451,87.619214 82.915001,87.873789 82.617341,88.125777 82.317494,88.375157 82.015482,88.621911 81.711328,88.866021 81.405055,89.107467 81.096687,89.346231 80.786248,89.582294 80.473760,89.815640 80.159247,90.046250 79.842734,90.274107 79.524245,90.499193 79.203804,90.721491 78.881435,90.940984 78.557163,91.157656 78.231012,91.371489 77.903008,91.582469 77.573175,91.790578 77.241539,91.995801 76.908124,92.198122 76.572957,92.397525 76.236062,92.593996 75.897466,92.787520 75.557193,92.978082 75.215271,93.165667 74.871725,93.350261 74.526580,93.531850 74.179865,93.710420 73.831604,93.885958 73.481825,94.058450 73.130554,94.227883 72.777817,94.394245 72.423643,94.557521 72.068057,94.717701 71.711086,94.874772 71.352759,95.028722 70.993102,95.179538 70.632142,95.327211 70.269907,95.471728 69.906425,95.613078 69.541724,95.751251 69.175830,95.886237 68.808773,96.018024 68.440579,96.146603 68.071278,96.271964 67.700896,96.394097 67.329463,96.512994 66.957007,96.628645 66.583555,96.741041 66.209137,96.850174 65.833780,96.956035 65.457514,97.058617 65.080368,97.157912 64.702369,97.253911 64.323547,97.346608 63.943930,97.435996 63.563548,97.522068 63.182429,97.604817 62.800602,97.684237 62.418097,97.760322 62.034943,97.833066 61.651168,97.902464 61.266802,97.968510 60.881875,98.031199 60.496415,98.090527 60.110452,98.146489 59.724016,98.199081 59.337135,98.248298 58.949840,98.294138 58.562159,98.336596 58.174123,98.375669 57.785760,98.411354 57.397101,98.443650 57.008174,98.472552 56.619010,98.498059 56.229639,98.520169 55.840089,98.538880 55.450391,98.554192 55.060574,98.566102 54.670668,98.574609 54.280703,98.579714 53.890708,98.581416 53.500713,98.579714 53.110748,98.574609 52.720842,98.566102 52.331025,98.554192 51.941327,98.538880 51.551777,98.520169 51.162406,98.498059 50.773242,98.472552 50.384315,98.443650 49.995656,98.411354 49.607293,98.375669 49.219257,98.336596 48.831576,98.294138 48.444281,98.248298 48.057400,98.199081 47.670964,98.146489 47.285001,98.090527 46.899541,98.031199 46.514614,97.968510 46.130248,97.902464 45.746473,97.833066 45.363319,97.760322 44.980814,97.684237 44.598987,97.604817 44.217868,97.522068 43.837486,97.435996 43.457869,97.346608 43.079047,97.253911 42.701048,97.157912 42.323902,97.058617 41.947636,96.956035 41.572279,96.850174 41.197861,96.741041 40.824410,96.628645 40.451953,96.512994 40.080520,96.394097 39.710138,96.271964 39.340837,96.146603 38.972643,96.018024 38.605586,95.886237 38.239692,95.751251 37.874991,95.613078 37.511509,95.471728 37.149274,95.327211 36.788314,95.179538 36.428657,95.028722 36.070330,94.874772 35.713359,94.717701 35.357773,94.557521 35.003599,94.394245 34.650862,94.227883 34.299591,94.058450 33.949812,93.885958 33.601551,93.710420 33.254836,93.531850 32.909691,93.350261 32.566145,93.165667 32.224223,92.978082 31.883950,92.787520 31.545354,92.593996 31.208459,92.397525 30.873292,92.198122 30.539877,91.995801 30.208241,91.790578 29.878408,91.582469 29.550404,91.371489 29.224253,91.157656 28.899981,90.940984 28.577612,90.721491 28.257171,90.499193 27.938682,90.274107 27.622169,90.046250 27.307657,89.815640 26.995169,89.582294 26.684729,89.346231 26.376361,89.107467 26.070088,88.866021 25.765934,88.621911 25.463922,88.375157 25.164075,88.125777 24.866415,87.873789 24.570966,87.619214 24.277749,87.362069 23.986787,87.102376 23.698103,86.840154 23.411718,86.575423 23.127655,86.308202 22.845934,86.038513 22.566577,85.766376 22.289605,85.491811 22.015040,85.214839 21.742903,84.935482 21.473214,84.653761 21.205993,84.369698 20.941262,84.083313 20.679040,83.794629 20.419347,83.503667 20.162203,83.210451 19.907627,82.915001 19.655639,82.617341 19.406259,82.317494 19.159505,82.015482 18.915395,81.711328 18.673950,81.405055 18.435186,81.096687 18.199122,80.786248 17.965776,80.473760 17.735166,80.159247 17.507309,79.842734 17.282223,79.524245 17.059925,79.203804 16.840432,78.881435 16.623760,78.557163 16.409927,78.231012 16.198947,77.903008 15.990838,77.573175 15.785615,77.241539 15.583294,76.908124 15.383891,76.572957 15.187420,76.236062 14.993896,75.897466 14.803334,75.557193 14.615749,75.215271 14.431155,74.871725 14.249566,74.526580 14.070996,74.179865 13.895458,73.831604 13.722966,73.481825 13.553533,73.130554 13.387171,72.777817 13.223895,72.423643 13.063715,72.068057 12.906644,71.711086 12.752694,71.352759 12.601878,70.993102 12.454205,70.632142 12.309688,70.269907 12.168338,69.906425 12.030165,69.541724 11.895179,69.175830 11.763392,68.808773 11.634813,68.440579 11.509452,68.071278 11.387319,67.700896 11.268422,67.329463 11.152771,66.957007 11.040375,66.583555 10.931242,66.209137 10.825381,65.833780 10.722799,65.457514 10.623505,65.080368 10.527505,64.702369 10.434808,64.323547 10.345420,63.943930 10.259348,63.563548 10.176599,63.182429 10.097179,62.800602 10.021094,62.418097 9.948350,62.034943 9.878952,61.651168 9.812906,61.266802 9.750217,60.881875 9.690889,60.496415 9.634927,60.110452 9.582335,59.724016 9.533118,59.337135 9.487278,58.949840 9.444820,58.562159 9.405747,58.174123 9.370062,57.785760 9.337767,57.397101 9.308864,57.008174 9.283357,56.619010 9.261247,56.229639 9.242536,55.840089 9.227224,55.450391 9.215314,55.060574 9.206807,54.670668 9.201702,54.280703 9.200000,53.890708 9.201702,53.500713 9.206807,53.110748 9.215314,52.720842 9.227224,52.331025 9.242536,51.941327 9.261247,51.551777 9.283357,51.162406 9.308864,50.773242 9.337767,50.384315 9.370062,49.995656 9.405747,49.607293 9.444820,49.219257 9.487278,48.831576 9.533118,48.444281 9.582335,48.057400 9.634927,47.670964 9.690889,47.285001 9.750217,46.899541 9.812906,46.514614 9.878952,46.130248 9.948350,45.746473 10.021094,45.363319 10.097179,44.980814 10.176599,44.598987 10.259348,44.217868 10.345420,43.837486 10.434808,43.457869 10.527505,43.079047 10.623505,42.701048 10.722799,42.323902 10.825381,41.947636 10.931242,41.572279 11.040375,41.197861 11.152771,40.824410 11.268422,40.451953 11.387319,40.080520 11.509452,39.710138 11.634813,39.340837 11.763392,38.972643 11.895179,38.605586 12.030165,38.239692 12.168338,37.874991 12.309688,37.511509 12.454205,37.149274 12.601878,36.788314 12.752694,36.428657 12.906644,36.070330 13.063715,35.713359 13.223895,35.357773 13.387171,35.003599 13.553533,34.650862 13.722966,34.299591 13.895458,33.949812 14.070996,33.601551 14.249566,33.254836 14.431155,32.909691 14.615749,32.566145 14.803334,32.224223 14.993896,31.883950 15.187420,31.545354 15.383891,31.208459 15.583294,30.873292 15.785615,30.539877 15.990838,30.208241 16.198947,29.878408 16.409927,29.550404 16.623760,29.224253 16.840432,28.899981 17.059925,28.577612 17.282223,28.257171 17.507309,27.938682 17.735166,27.622169 17.965776,27.307657 18.199122,26.995169 18.435186,26.684729 18.673950,26.376361 18.915395,26.070088 19.159505,25.765934 19.406259,25.463922 19.655639,25.164075 19.907627,24.866415 20.162203,24.570966 20.419347,24.277749 20.679040,23.986787 20.941262,23.698103 21.205993,23.411718 21.473214,23.127655 21.742903,22.845934 22.015040,22.566577 22.289605,22.289605 22.566577,22.015040 22.845934,21.742903 23.127655,21.473214 23.411718,21.205993 23.698103,20.941262 23.986787,20.679040 24.277749,20.419347 24.570966,20.162203 24.866415,19.907627 25.164075,19.655639 25.463922,19.406259 25.765934,19.159505 26.070088,18.915395 26.376361,18.673950 26.684729,18.435186 26.995169,18.199122 27.307657,17.965776 27.622169,17.735166 27.938682,17.507309 28.257171,17.282223 28.577612,17.059925 28.899981,16.840432 29.224253,16.623760 29.550404,16.409927 29.878408,16.198947 30.208241,15.990838 30.539877,15.785615 30.873292,15.583294 31.208459,15.383891 31.545354,15.187420 31.883950,14.993896 32.224223,14.803334 32.566145,14.615749 32.909691,14.431155 33.254836,14.249566 33.601551,14.070996 33.949812,13.895458 34.299591,13.722966 34.650862,13.553533 35.003599,13.387171 35.357773,13.223895 35.713359,13.063715 36.070330,12.906644 36.428657,12.752694 36.788314,12.601878 37.149274,12.454205 37.511509,12.309688 37.874991,12.168338 38.239692,12.030165 38.605586,11.895179 38.972643,11.763392 39.340837,11.634813 39.710138,11.509452 40.080520,11.387319 40.451953,11.268422 40.824410,11.152771 41.197861,11.040375 41.572279,10.931242 41.947636,10.825381 42.323902,10.722799 42.701048,10.623505 43.079047,10.527505 43.457869,10.434808 43.837486,10.345420 44.217868,10.259348 44.598987,10.176599 44.980814,10.097179 45.363319,10.021094 45.746473,9.948350 46.130248,9.878952 46.514614,9.812906 46.899541,9.750217 47.285001,9.690889 47.670964,9.634927 48.057400,9.582335 48.444281,9.533118 48.831576,9.487278 49.219257,9.444820 49.607293,9.405747 49.995656,9.370062 50.384315,9.337767 50.773242,9.308864 51.162406,9.283357 51.551777,9.261247 51.941327,9.242536 52.331025,9.227224 52.720842,9.215314 53.110748,9.206807 53.500713,9.201702 53.890708,9.200000 54.280703,9.201702 54.670668,9.206807 55.060574,9.215314 55.450391,9.227224 55.840089,9.242536 56.229639,9.261247 56.619010,9.283357 57.008174,9.308864 57.397101,9.337767 57.785760,9.370062 58.174123,9.405747 58.562159,9.444820 58.949840,9.487278 59.337135,9.533118 59.724016,9.582335 60.110452,9.634927 60.496415,9.690889 60.881875,9.750217 61.266802,9.812906 61.651168,9.878952 62.034943,9.948350 62.418097,10.021094 62.800602,10.097179 63.182429,10.176599 63.563548,10.259348 63.943930,10.345420 64.323547,10.434808 64.702369,10.527505 65.080368,10.623505 65.457514,10.722799 65.833780,10.825381 66.209137,10.931242 66.583555,11.040375 66.957007,11.152771 67.329463,11.268422 67.700896,11.387319 68.071278,11.509452 68.440579,11.634813 68.808773,11.763392 69.175830,11.895179 69.541724,12.030165 69.906425,12.168338 70.269907,12.309688 70.632142,12.454205 70.993102,12.601878 71.352759,12.752694 71.711086,12.906644 72.068057,13.063715 72.423643,13.223895 72.777817,13.387171 73.130554,13.553533 73.481825,13.722966 73.831604,13.895458 74.179865,14.070996 74.526580,14.249566 74.871725,14.431155 75.215271,14.615749 75.557193,14.803334 75.897466,14.993896 76.236062,15.187420 76.572957,15.383891 76.908124,15.583294 77.241539,15.785615 77.573175,15.990838 77.903008,16.198947 78.231012,16.409927 78.557163,16.623760 78.881435,16.840432 79.203804,17.059925 79.524245,17.282223 79.842734,17.507309 80.159247,17.735166 80.473760,17.965776 80.786248,18.199122 81.096687,18.435186 81.405055,18.673950 81.711328,18.915395 82.015482,19.159505 82.317494,19.406259 82.617341,19.655639 82.915001,19.907627 83.210451,20.162203 83.503667,20.419347 83.794629,20.679040 84.083313,20.941262 84.369698,21.205993 84.653761,21.473214 84.935482,21.742903 85.214839,22.015040 85.491811,22.289605 85.766376,22.566577 86.038513,22.845934 86.308202,23.127655 86.575423,23.411718 86.840154,23.698103 87.102376,23.986787 87.362069,24.277749 87.619214,24.570966 87.873789,24.866415 88.125777,25.164075 88.375157,25.463922 88.621911,25.765934 88.866021,26.070088 89.107467,26.376361 89.346231,26.684729 89.582294,26.995169 89.815640,27.307657 90.046250,27.622169 90.274107,27.938682 90.499193,28.257171 90.721491,28.577612 90.940984,28.899981 91.157656,29.224253 91.371489,29.550404 91.582469,29.878408 91.790578,30.208241 91.995801,30.539877 92.198122,30.873292 92.397525,31.208459 92.593996,31.545354 92.787520,31.883950 92.978082,32.224223 93.165667,32.566145 93.350261,32.909691 93.531850,33.254836 93.710420,33.601551 93.885958,33.949812 94.058450,34.299591 94.227883,34.650862 94.394245,35.003599 94.557521,35.357773 94.717701,35.713359 94.874772,36.070330 95.028722,36.428657 95.179538,36.788314 95.327211,37.149274 95.471728,37.511509 95.613078,37.874991 95.751251,38.239692 95.886237,38.605586 96.018024,38.972643 96.146603,39.340837 96.271964,39.710138 96.394097,40.080520 96.512994,40.451953 96.628645,40.824410 96.741041,41.197861 96.850174,41.572279 96.956035,41.947636 97.058617,42.323902 97.157912,42.701048 97.253911,43.079047 97.346608,43.457869 97.435996,43.837486 97.522068,44.217868 97.604817,44.598987 97.684237,44.980814 97.760322,45.363319 97.833066,45.746473 97.902464,46.130248 97.968510,46.514614 98.031199,46.899541 98.090527,47.285001 98.146489,47.670964 98.199081,48.057400 98.248298,48.444281 98.294138,48.831576 98.336596,49.219257 98.375669,49.607293 98.411354,49.995656 98.443650,50.384315 98.472552,50.773242 98.498059,51.162406 98.520169,51.551777 98.538880,51.941327 98.554192,52.331025 98.566102,52.720842 98.574609,53.110748 98.579714,53.500713 98.581416,53.890708" fill="none" stroke="#000" stroke-width="0.300000"/><line x1="96.027184" y1="54.457308" x2="98.426978" y2="54.488723" stroke="#000" stroke-width="0.300000" stroke-linecap="round"/><line x1="95.894954" y1="57.275642" x2="98.286711" y2="57.474381" stroke="#000" stroke-width="0.300000" stroke-linecap="round"/><line x1="95.844600" y1="57.851185" x2="98.234532" y2="58.070788" stroke="#000" stroke-width="0.300000" stroke-linecap="round"/><line x1="95.485421" y1="60.649663" x2="97.854213" y2="61.035445" stroke="#000" stroke-width="0.300000" stroke-linecap="round"/><line x1="95.393156" y1="61.197436" x2="97.754853" y2="61.624501" stroke="#000" stroke-width="0.300000" stroke-linecap="round"/><line x1="94.805503" y1="63.979742" x2="97.136724" y2="64.550189" stroke="#000" stroke-width="0.300000" stroke-linecap="round"/><line x1="94.669021" y1="64.518202" x2="96.989931" y2="65.129246" stroke="#000" stroke-width="0.300000" stroke-linecap="round"/><line x1="93.859611" y1="67.244263" x2="96.138889" y2="67.995856" stroke="#000" stroke-width="0.300000" stroke-linecap="round"/><line x1="93.679816" y1="67.769849" x2="95.945629" y2="68.561106" stroke="#000" stroke-width="0.300000" stroke-linecap="round"/><line x1="92.662097" y1="70.401342" x2="94.867196" y2="71.348727" stroke="#000" stroke-width="0.300000" stroke-linecap="round"/><line x1="92.431963" y1="70.931270" x2="94.628710" y2="71.897862" stroke="#000" stroke-width="0.300000" stroke-linecap="round"/><line x1="91.205258" y1="73.472072" x2="93.329228" y2="74.589547" stroke="#000" stroke-width="0.300000" stroke-linecap="round"/><line x1="90.933562" y1="73.981941" x2="93.047700" y2="75.117908" stroke="#000" stroke-width="0.300000" stroke-linecap="round"/><line x1="89.505862" y1="76.415500" x2="91.535609" y2="77.696175" stroke="#000" stroke-width="0.300000" stroke-linecap="round"/><line x1="89.206017" y1="76.883110" x2="91.213104" y2="78.199014" stroke="#000" stroke-width="0.300000" stroke-linecap="round"/><line x1="87.574942" y1="79.212518" x2="89.497951" y2="80.648497" stroke="#000" stroke-width="0.300000" stroke-linecap="round"/><line x1="87.238083" y1="79.654210" x2="89.135738" y2="81.123532" stroke="#000" stroke-width="0.300000" stroke-linecap="round"/><line x1="85.439578" y1="81.828127" x2="87.230116" y2="83.426243" stroke="#000" stroke-width="0.300000" stroke-linecap="round"/><line x1="85.053382" y1="82.257823" x2="86.829906" y2="83.871503" stroke="#000" stroke-width="0.300000" stroke-linecap="round"/><line x1="83.085358" y1="84.279545" x2="84.744990" y2="86.013219" stroke="#000" stroke-width="0.300000" stroke-linecap="round"/><line x1="82.666099" y1="84.677046" x2="84.310538" y2="86.425136" stroke="#000" stroke-width="0.300000" stroke-linecap="round"/><line x1="80.541376" y1="86.533403" x2="82.059869" y2="88.391945" stroke="#000" stroke-width="0.300000" stroke-linecap="round"/><line x1="80.108979" y1="86.882114" x2="81.594804" y2="88.766875" stroke="#000" stroke-width="0.300000" stroke-linecap="round"/><line x1="77.824147" y1="88.575070" x2="79.192140" y2="90.547022" stroke="#000" stroke-width="0.300000" stroke-linecap="round"/><line x1="77.364839" y1="88.887482" x2="78.698208" y2="90.883009" stroke="#000" stroke-width="0.300000" stroke-linecap="round"/><line x1="74.970581" y1="90.380163" x2="76.161501" y2="92.463840" stroke="#000" stroke-width="0.300000" stroke-linecap="round"/><line x1="74.468127" y1="90.665339" x2="75.640818" y2="92.759330" stroke="#000" stroke-width="0.300000" stroke-linecap="round"/><line x1="71.961258" y1="91.959982" x2="72.985023" y2="94.130674" stroke="#000" stroke-width="0.300000" stroke-linecap="round"/><line x1="71.437646" y1="92.204145" x2="72.442429" y2="94.383689" stroke="#000" stroke-width="0.300000" stroke-linecap="round"/><line x1="68.834499" y1="93.292316" x2="69.684798" y2="95.536641" stroke="#000" stroke-width="0.300000" stroke-linecap="round"/><line x1="68.313980" y1="93.486296" x2="69.124980" y2="95.745119" stroke="#000" stroke-width="0.300000" stroke-linecap="round"/><line x1="65.610603" y1="94.368518" x2="66.282192" y2="96.672638" stroke="#000" stroke-width="0.300000" stroke-linecap="round"/><line x1="65.076042" y1="94.519549" x2="65.707317" y2="96.835038" stroke="#000" stroke-width="0.300000" stroke-linecap="round"/><line x1="62.310497" y1="95.181601" x2="62.799237" y2="97.531310" stroke="#000" stroke-width="0.300000" stroke-linecap="round"/><line x1="61.765428" y1="95.288684" x2="62.213085" y2="97.646565" stroke="#000" stroke-width="0.300000" stroke-linecap="round"/><line x1="58.977627" y1="95.723050" x2="59.259717" y2="98.106414" stroke="#000" stroke-width="0.300000" stroke-linecap="round"/><line x1="58.403629" y1="95.788711" x2="58.664909" y2="98.174446" stroke="#000" stroke-width="0.300000" stroke-linecap="round"/><line x1="55.589876" y1="95.996744" x2="55.684100" y2="98.394894" stroke="#000" stroke-width="0.300000" stroke-linecap="round"/><line x1="55.012468" y1="96.016382" x2="55.085761" y2="98.415262" stroke="#000" stroke-width="0.300000" stroke-linecap="round"/><line x1="52.191095" y1="95.996726" x2="52.096871" y2="98.394876" stroke="#000" stroke-width="0.300000" stroke-linecap="round"/><line x1="51.636210" y1="95.970856" x2="51.500148" y2="98.366996" stroke="#000" stroke-width="0.300000" stroke-linecap="round"/><line x1="48.803347" y1="95.722998" x2="48.521257" y2="98.106362" stroke="#000" stroke-width="0.300000" stroke-linecap="round"/><line x1="48.252401" y1="95.652113" x2="47.928759" y2="98.030191" stroke="#000" stroke-width="0.300000" stroke-linecap="round"/><line x1="45.470483" y1="95.181511" x2="44.981743" y2="97.531220" stroke="#000" stroke-width="0.300000" stroke-linecap="round"/><line x1="44.905258" y1="95.061901" x2="44.396032" y2="97.407256" stroke="#000" stroke-width="0.300000" stroke-linecap="round"/><line x1="42.170386" y1="94.368394" x2="41.498796" y2="96.672513" stroke="#000" stroke-width="0.300000" stroke-linecap="round"/><line x1="41.616511" y1="94.204053" x2="40.924840" y2="96.502224" stroke="#000" stroke-width="0.300000" stroke-linecap="round"/><line x1="38.946500" y1="93.292159" x2="38.096202" y2="95.536483" stroke="#000" stroke-width="0.300000" stroke-linecap="round"/><line x1="38.428310" y1="93.092045" x2="37.538972" y2="95.321187" stroke="#000" stroke-width="0.300000" stroke-linecap="round"/><line x1="35.819755" y1="91.959792" x2="34.795990" y2="94.130484" stroke="#000" stroke-width="0.300000" stroke-linecap="round"/><line x1="35.319545" y1="91.718223" x2="34.258052" y2="93.870718" stroke="#000" stroke-width="0.300000" stroke-linecap="round"/><line x1="32.829721" y1="90.391066" x2="31.620664" y2="92.464272" stroke="#000" stroke-width="0.300000" stroke-linecap="round"/><line x1="32.331525" y1="90.098515" x2="31.104422" y2="92.161090" stroke="#000" stroke-width="0.300000" stroke-linecap="round"/><line x1="29.956903" y1="88.574816" x2="28.588910" y2="90.546769" stroke="#000" stroke-width="0.300000" stroke-linecap="round"/><line x1="29.483646" y1="88.243435" x2="28.098498" y2="90.203375" stroke="#000" stroke-width="0.300000" stroke-linecap="round"/><line x1="27.239695" y1="86.533121" x2="25.721202" y2="88.391663" stroke="#000" stroke-width="0.300000" stroke-linecap="round"/><line x1="26.811445" y1="86.179326" x2="25.260748" y2="88.011084" stroke="#000" stroke-width="0.300000" stroke-linecap="round"/><line x1="24.695736" y1="84.279237" x2="23.036105" y2="86.012911" stroke="#000" stroke-width="0.300000" stroke-linecap="round"/><line x1="24.297661" y1="83.891807" x2="22.608026" y2="85.596252" stroke="#000" stroke-width="0.300000" stroke-linecap="round"/><line x1="22.341541" y1="81.827795" x2="20.551003" y2="83.425911" stroke="#000" stroke-width="0.300000" stroke-linecap="round"/><line x1="21.976272" y1="81.409291" x2="20.158116" y2="82.975914" stroke="#000" stroke-width="0.300000" stroke-linecap="round"/><line x1="20.206208" y1="79.212161" x2="18.283198" y2="80.648140" stroke="#000" stroke-width="0.300000" stroke-linecap="round"/><line x1="19.862346" y1="78.747893" x2="17.926879" y2="80.167037" stroke="#000" stroke-width="0.300000" stroke-linecap="round"/><line x1="18.275316" y1="76.415123" x2="16.245569" y2="77.695798" stroke="#000" stroke-width="0.300000" stroke-linecap="round"/><line x1="17.969607" y1="75.924891" x2="15.928761" y2="77.187805" stroke="#000" stroke-width="0.300000" stroke-linecap="round"/><line x1="16.575951" y1="73.471678" x2="14.451980" y2="74.589152" stroke="#000" stroke-width="0.300000" stroke-linecap="round"/><line x1="16.320916" y1="72.978197" x2="14.177766" y2="74.058433" stroke="#000" stroke-width="0.300000" stroke-linecap="round"/><line x1="15.119143" y1="70.400932" x2="12.914044" y2="71.348318" stroke="#000" stroke-width="0.300000" stroke-linecap="round"/><line x1="14.905061" y1="69.888356" x2="12.683764" y2="70.797112" stroke="#000" stroke-width="0.300000" stroke-linecap="round"/><line x1="13.921665" y1="67.243839" x2="11.642387" y2="67.995433" stroke="#000" stroke-width="0.300000" stroke-linecap="round"/><line x1="13.742639" y1="66.694535" x2="11.456889" y2="67.426210" stroke="#000" stroke-width="0.300000" stroke-linecap="round"/><line x1="12.975807" y1="63.979310" x2="10.644586" y2="64.549756" stroke="#000" stroke-width="0.300000" stroke-linecap="round"/><line x1="12.841194" y1="63.417469" x2="10.505084" y2="63.967550" stroke="#000" stroke-width="0.300000" stroke-linecap="round"/><line x1="12.295923" y1="60.649223" x2="9.927132" y2="61.035005" stroke="#000" stroke-width="0.300000" stroke-linecap="round"/><line x1="12.210134" y1="60.100399" x2="9.834971" y2="60.444782" stroke="#000" stroke-width="0.300000" stroke-linecap="round"/><line x1="11.886425" y1="57.275198" x2="9.494668" y2="57.473937" stroke="#000" stroke-width="0.300000" stroke-linecap="round"/><line x1="11.845528" y1="56.721219" x2="9.450666" y2="56.878186" stroke="#000" stroke-width="0.300000" stroke-linecap="round"/><line x1="11.749978" y1="53.901389" x2="9.350001" y2="53.890917" stroke="#000" stroke-width="0.300000" stroke-linecap="round"/><line x1="11.754238" y1="53.323663" x2="9.354443" y2="53.292248" stroke="#000" stroke-width="0.300000" stroke-linecap="round"/><line x1="11.886499" y1="50.505330" x2="9.494742" y2="50.306591" stroke="#000" stroke-width="0.300000" stroke-linecap="round"/><line x1="11.936857" y1="49.929788" x2="9.546925" y2="49.710184" stroke="#000" stroke-width="0.300000" stroke-linecap="round"/><line x1="12.296066" y1="47.131314" x2="9.927275" y2="46.745531" stroke="#000" stroke-width="0.300000" stroke-linecap="round"/><line x1="12.388340" y1="46.583541" x2="10.026642" y2="46.156477" stroke="#000" stroke-width="0.300000" stroke-linecap="round"/><line x1="12.976019" y1="43.801241" x2="10.644798" y2="43.230795" stroke="#000" stroke-width="0.300000" stroke-linecap="round"/><line x1="13.112508" y1="43.262784" x2="10.791598" y2="42.651739" stroke="#000" stroke-width="0.300000" stroke-linecap="round"/><line x1="13.921944" y1="40.536730" x2="11.642666" y2="39.785137" stroke="#000" stroke-width="0.300000" stroke-linecap="round"/><line x1="14.101747" y1="40.011147" x2="11.835933" y2="39.219889" stroke="#000" stroke-width="0.300000" stroke-linecap="round"/><line x1="15.119495" y1="37.379665" x2="12.914396" y2="36.432280" stroke="#000" stroke-width="0.300000" stroke-linecap="round"/><line x1="15.349633" y1="36.849739" x2="13.152885" y2="35.883147" stroke="#000" stroke-width="0.300000" stroke-linecap="round"/><line x1="16.576366" y1="34.308950" x2="14.452395" y2="33.191475" stroke="#000" stroke-width="0.300000" stroke-linecap="round"/><line x1="16.848065" y1="33.799082" x2="14.733927" y2="32.663115" stroke="#000" stroke-width="0.300000" stroke-linecap="round"/><line x1="18.275792" y1="31.365539" x2="16.246045" y2="30.084865" stroke="#000" stroke-width="0.300000" stroke-linecap="round"/><line x1="18.575643" y1="30.897934" x2="16.568556" y2="29.582030" stroke="#000" stroke-width="0.300000" stroke-linecap="round"/><line x1="20.206741" y1="28.568541" x2="18.283732" y2="27.132562" stroke="#000" stroke-width="0.300000" stroke-linecap="round"/><line x1="20.543606" y1="28.126854" x2="18.645951" y2="26.657532" stroke="#000" stroke-width="0.300000" stroke-linecap="round"/><line x1="22.342134" y1="25.952956" x2="20.551597" y2="24.354840" stroke="#000" stroke-width="0.300000" stroke-linecap="round"/><line x1="22.728333" y1="25.523264" x2="20.951810" y2="23.909583" stroke="#000" stroke-width="0.300000" stroke-linecap="round"/><line x1="24.696380" y1="23.501563" x2="23.036748" y2="21.767889" stroke="#000" stroke-width="0.300000" stroke-linecap="round"/><line x1="25.115642" y1="23.104065" x2="23.471203" y2="21.355975" stroke="#000" stroke-width="0.300000" stroke-linecap="round"/><line x1="27.240385" y1="21.247731" x2="25.721892" y2="19.389189" stroke="#000" stroke-width="0.300000" stroke-linecap="round"/><line x1="27.672787" y1="20.899026" x2="26.186962" y2="19.014265" stroke="#000" stroke-width="0.300000" stroke-linecap="round"/><line x1="29.957635" y1="19.206092" x2="28.589642" y2="17.234140" stroke="#000" stroke-width="0.300000" stroke-linecap="round"/><line x1="30.416947" y1="18.893687" x2="29.083579" y2="16.898159" stroke="#000" stroke-width="0.300000" stroke-linecap="round"/><line x1="32.811222" y1="17.401032" x2="31.620302" y2="15.317355" stroke="#000" stroke-width="0.300000" stroke-linecap="round"/><line x1="33.313678" y1="17.115859" x2="32.140987" y2="15.021869" stroke="#000" stroke-width="0.300000" stroke-linecap="round"/><line x1="35.820561" y1="15.821244" x2="34.796796" y2="13.650552" stroke="#000" stroke-width="0.300000" stroke-linecap="round"/><line x1="36.344175" y1="15.577085" x2="35.339391" y2="13.397541" stroke="#000" stroke-width="0.300000" stroke-linecap="round"/><line x1="38.947333" y1="14.488942" x2="38.097035" y2="12.244617" stroke="#000" stroke-width="0.300000" stroke-linecap="round"/><line x1="39.467856" y1="14.294969" x2="38.656856" y2="12.036147" stroke="#000" stroke-width="0.300000" stroke-linecap="round"/><line x1="42.171241" y1="13.412773" x2="41.499651" y2="11.108653" stroke="#000" stroke-width="0.300000" stroke-linecap="round"/><line x1="42.705804" y1="13.261750" x2="42.074529" y2="10.946260" stroke="#000" stroke-width="0.300000" stroke-linecap="round"/><line x1="45.471355" y1="12.599724" x2="44.982615" y2="10.250015" stroke="#000" stroke-width="0.300000" stroke-linecap="round"/><line x1="46.016426" y1="12.492649" x2="45.568768" y2="10.134768" stroke="#000" stroke-width="0.300000" stroke-linecap="round"/><line x1="48.804232" y1="12.058314" x2="48.522142" y2="9.674949" stroke="#000" stroke-width="0.300000" stroke-linecap="round"/><line x1="49.378230" y1="11.992657" x2="49.116950" y2="9.606922" stroke="#000" stroke-width="0.300000" stroke-linecap="round"/><line x1="52.191985" y1="11.784655" x2="52.097762" y2="9.386505" stroke="#000" stroke-width="0.300000" stroke-linecap="round"/><line x1="52.769393" y1="11.765021" x2="52.696101" y2="9.366140" stroke="#000" stroke-width="0.300000" stroke-linecap="round"/><line x1="55.590766" y1="11.784707" x2="55.684990" y2="9.386558" stroke="#000" stroke-width="0.300000" stroke-linecap="round"/><line x1="56.145650" y1="11.810586" x2="56.281713" y2="9.414446" stroke="#000" stroke-width="0.300000" stroke-linecap="round"/><line x1="58.978512" y1="12.058471" x2="59.260601" y2="9.675106" stroke="#000" stroke-width="0.300000" stroke-linecap="round"/><line x1="59.529457" y1="12.129363" x2="59.853099" y2="9.751285" stroke="#000" stroke-width="0.300000" stroke-linecap="round"/><line x1="62.311369" y1="12.599996" x2="62.800109" y2="10.250287" stroke="#000" stroke-width="0.300000" stroke-linecap="round"/><line x1="62.876593" y1="12.719609" x2="63.385820" y2="10.374255" stroke="#000" stroke-width="0.300000" stroke-linecap="round"/><line x1="65.611458" y1="13.413147" x2="66.283048" y2="11.109027" stroke="#000" stroke-width="0.300000" stroke-linecap="round"/><line x1="66.165332" y1="13.577491" x2="66.857003" y2="11.279320" stroke="#000" stroke-width="0.300000" stroke-linecap="round"/><line x1="68.835332" y1="14.489415" x2="69.685631" y2="12.245091" stroke="#000" stroke-width="0.300000" stroke-linecap="round"/><line x1="69.353520" y1="14.689537" x2="70.242858" y2="12.460394" stroke="#000" stroke-width="0.300000" stroke-linecap="round"/><line x1="71.962064" y1="15.821814" x2="72.985829" y2="13.651122" stroke="#000" stroke-width="0.300000" stroke-linecap="round"/><line x1="72.462271" y1="16.063390" x2="73.523763" y2="13.910895" stroke="#000" stroke-width="0.300000" stroke-linecap="round"/><line x1="74.952080" y1="17.390574" x2="76.161137" y2="15.317369" stroke="#000" stroke-width="0.300000" stroke-linecap="round"/><line x1="75.450274" y1="17.683129" x2="76.677377" y2="15.620554" stroke="#000" stroke-width="0.300000" stroke-linecap="round"/><line x1="77.824879" y1="19.206854" x2="79.192872" y2="17.234901" stroke="#000" stroke-width="0.300000" stroke-linecap="round"/><line x1="78.298134" y1="19.538238" x2="79.683282" y2="17.578299" stroke="#000" stroke-width="0.300000" stroke-linecap="round"/><line x1="80.542066" y1="21.248577" x2="82.060559" y2="19.390035" stroke="#000" stroke-width="0.300000" stroke-linecap="round"/><line x1="80.970311" y1="21.602378" x2="82.521008" y2="19.770620" stroke="#000" stroke-width="0.300000" stroke-linecap="round"/><line x1="83.086002" y1="23.502487" x2="84.745633" y2="21.768813" stroke="#000" stroke-width="0.300000" stroke-linecap="round"/><line x1="83.484071" y1="23.889922" x2="85.173707" y2="22.185478" stroke="#000" stroke-width="0.300000" stroke-linecap="round"/><line x1="85.440172" y1="25.953954" x2="87.230709" y2="24.355838" stroke="#000" stroke-width="0.300000" stroke-linecap="round"/><line x1="85.805435" y1="26.372463" x2="87.623591" y2="24.805839" stroke="#000" stroke-width="0.300000" stroke-linecap="round"/><line x1="87.575475" y1="28.569612" x2="89.498484" y2="27.133633" stroke="#000" stroke-width="0.300000" stroke-linecap="round"/><line x1="87.919334" y1="29.033882" x2="89.854801" y2="27.614739" stroke="#000" stroke-width="0.300000" stroke-linecap="round"/><line x1="89.506338" y1="31.366670" x2="91.536084" y2="30.085995" stroke="#000" stroke-width="0.300000" stroke-linecap="round"/><line x1="89.812044" y1="31.856904" x2="91.852889" y2="30.593990" stroke="#000" stroke-width="0.300000" stroke-linecap="round"/><line x1="91.205673" y1="34.310133" x2="93.329643" y2="33.192658" stroke="#000" stroke-width="0.300000" stroke-linecap="round"/><line x1="91.460701" y1="34.803617" x2="93.603850" y2="33.723381" stroke="#000" stroke-width="0.300000" stroke-linecap="round"/><line x1="92.662449" y1="37.380893" x2="94.867548" y2="36.433508" stroke="#000" stroke-width="0.300000" stroke-linecap="round"/><line x1="92.876524" y1="37.893473" x2="95.097821" y2="36.984716" stroke="#000" stroke-width="0.300000" stroke-linecap="round"/><line x1="93.859890" y1="40.538000" x2="96.139168" y2="39.786407" stroke="#000" stroke-width="0.300000" stroke-linecap="round"/><line x1="94.038913" y1="41.087305" x2="96.324663" y2="40.355631" stroke="#000" stroke-width="0.300000" stroke-linecap="round"/><line x1="94.805715" y1="43.802539" x2="97.136936" y2="43.232093" stroke="#000" stroke-width="0.300000" stroke-linecap="round"/><line x1="94.940324" y1="44.364380" x2="97.276434" y2="43.814299" stroke="#000" stroke-width="0.300000" stroke-linecap="round"/><line x1="95.485565" y1="47.132633" x2="97.854356" y2="46.746850" stroke="#000" stroke-width="0.300000" stroke-linecap="round"/><line x1="95.571346" y1="47.681457" x2="97.946509" y2="47.337075" stroke="#000" stroke-width="0.300000" stroke-linecap="round"/><line x1="95.895028" y1="50.506662" x2="98.286785" y2="50.307923" stroke="#000" stroke-width="0.300000" stroke-linecap="round"/><line x1="95.935917" y1="51.060642" x2="98.330779" y2="50.903675" stroke="#000" stroke-width="0.300000" stroke-linecap="round"/><line x1="96.031436" y1="53.880473" x2="98.431414" y2="53.890945" stroke="#000" stroke-width="0.300000" stroke-linecap="round"/><circle cx="96.583929" cy="55.896365" r="0.540000" fill="#000"/><circle cx="96.283599" cy="59.329146" r="0.540000" fill="#000"/><circle cx="95.707891" cy="62.726614" r="0.540000" fill="#000"/><circle cx="94.865119" cy="66.050338" r="0.540000" fill="#000"/><circle cx="93.752152" cy="69.311561" r="0.540000" fill="#000"/><circle cx="92.380261" cy="72.472589" r="0.540000" fill="#000"/><circle cx="90.758348" cy="75.512918" r="0.540000" fill="#000"/><circle cx="88.906692" cy="78.398883" r="0.540000" fill="#000"/><circle cx="86.818303" cy="81.139859" r="0.540000" fill="#000"/><circle cx="84.516046" cy="83.703803" r="0.540000" fill="#000"/><circle cx="82.014856" cy="86.074084" r="0.540000" fill="#000"/><circle cx="79.330958" cy="88.235325" r="0.540000" fill="#000"/><circle cx="76.495915" cy="90.164039" r="0.540000" fill="#000"/><circle cx="73.500236" cy="91.867019" r="0.540000" fill="#000"/><circle cx="70.377191" cy="93.323305" r="0.540000" fill="#000"/><circle cx="67.147040" cy="94.523450" r="0.540000" fill="#000"/><circle cx="63.847220" cy="95.455438" r="0.540000" fill="#000"/><circle cx="60.466433" cy="96.122180" r="0.540000" fill="#000"/><circle cx="57.042955" cy="96.514590" r="0.540000" fill="#000"/><circle cx="53.598997" cy="96.630125" r="0.540000" fill="#000"/><circle cx="50.173850" cy="96.469513" r="0.540000" fill="#000"/><circle cx="46.755902" cy="96.031392" r="0.540000" fill="#000"/><circle cx="43.384335" cy="95.319540" r="0.540000" fill="#000"/><circle cx="40.081020" cy="94.338575" r="0.540000" fill="#000"/><circle cx="36.867386" cy="93.094861" r="0.540000" fill="#000"/><circle cx="33.779554" cy="91.603987" r="0.540000" fill="#000"/><circle cx="30.806897" cy="89.861133" r="0.540000" fill="#000"/><circle cx="27.984201" cy="87.884630" r="0.540000" fill="#000"/><circle cx="25.329776" cy="85.687300" r="0.540000" fill="#000"/><circle cx="22.872750" cy="83.295557" r="0.540000" fill="#000"/><circle cx="20.604950" cy="80.701073" r="0.540000" fill="#000"/><circle cx="18.553383" cy="77.932453" r="0.540000" fill="#000"/><circle cx="16.731358" cy="75.007658" r="0.540000" fill="#000"/><circle cx="15.157890" cy="71.961082" r="0.540000" fill="#000"/><circle cx="13.828351" cy="68.781988" r="0.540000" fill="#000"/><circle cx="12.759060" cy="65.506195" r="0.540000" fill="#000"/><circle cx="11.956955" cy="62.154955" r="0.540000" fill="#000"/><circle cx="11.427237" cy="58.750007" r="0.540000" fill="#000"/><circle cx="11.174469" cy="55.330429" r="0.540000" fill="#000"/><circle cx="11.197508" cy="51.884606" r="0.540000" fill="#000"/><circle cx="11.497874" cy="48.451828" r="0.540000" fill="#000"/><circle cx="12.073616" cy="45.054366" r="0.540000" fill="#000"/><circle cx="12.916425" cy="41.730651" r="0.540000" fill="#000"/><circle cx="14.029426" cy="38.469440" r="0.540000" fill="#000"/><circle cx="15.401349" cy="35.308426" r="0.540000" fill="#000"/><circle cx="17.023293" cy="32.268114" r="0.540000" fill="#000"/><circle cx="18.874981" cy="29.382170" r="0.540000" fill="#000"/><circle cx="20.963398" cy="26.641215" r="0.540000" fill="#000"/><circle cx="23.265681" cy="24.077294" r="0.540000" fill="#000"/><circle cx="25.766895" cy="21.707038" r="0.540000" fill="#000"/><circle cx="28.450815" cy="19.545825" r="0.540000" fill="#000"/><circle cx="31.285880" cy="17.617142" r="0.540000" fill="#000"/><circle cx="34.281576" cy="15.914193" r="0.540000" fill="#000"/><circle cx="37.404636" cy="14.457939" r="0.540000" fill="#000"/><circle cx="40.634800" cy="13.257827" r="0.540000" fill="#000"/><circle cx="43.934630" cy="12.325876" r="0.540000" fill="#000"/><circle cx="47.315423" cy="11.659169" r="0.540000" fill="#000"/><circle cx="50.738905" cy="11.266793" r="0.540000" fill="#000"/><circle cx="54.182865" cy="11.151293" r="0.540000" fill="#000"/><circle cx="57.608009" cy="11.311944" r="0.540000" fill="#000"/><circle cx="61.025953" cy="11.750099" r="0.540000" fill="#000"/><circle cx="64.397513" cy="12.461986" r="0.540000" fill="#000"/><circle cx="67.700818" cy="13.442984" r="0.540000" fill="#000"/><circle cx="70.914439" cy="14.686731" r="0.540000" fill="#000"/><circle cx="74.002254" cy="16.177640" r="0.540000" fill="#000"/><circle cx="76.974893" cy="17.920524" r="0.540000" fill="#000"/><circle cx="79.797570" cy="19.897056" r="0.540000" fill="#000"/><circle cx="82.451972" cy="22.094413" r="0.540000" fill="#000"/><circle cx="84.908971" cy="24.486183" r="0.540000" fill="#000"/><circle cx="87.176745" cy="27.080691" r="0.540000" fill="#000"/><circle cx="89.228283" cy="29.849332" r="0.540000" fill="#000"/><circle cx="91.050279" cy="32.774145" r="0.540000" fill="#000"/><circle cx="92.623713" cy="35.820738" r="0.540000" fill="#000"/><circle cx="93.953220" cy="38.999846" r="0.540000" fill="#000"/><circle cx="95.022476" cy="42.275650" r="0.540000" fill="#000"/><circle cx="95.824548" cy="45.626898" r="0.540000" fill="#000"/><circle cx="96.354231" cy="49.031851" r="0.540000" fill="#000"/><circle cx="96.606961" cy="52.451433" r="0.540000" fill="#000"/><text x="53.890708" y="50.010577" font-family="Arial, Helvetica, sans-serif" font-size="3.233442" text-anchor="middle" fill="#000">Shape: Circle  |  Perimeter: 11.055in</text><text x="53.890708" y="53.890708" font-family="Arial, Helvetica, sans-serif" font-size="3.233442" text-anchor="middle" fill="#000">Barrier: 3.000mm  |  Slit: 0.600mm  |  Period: 3.600mm</text><text x="53.890708" y="57.770839" font-family="Arial, Helvetica, sans-serif" font-size="3.233442" text-anchor="middle" fill="#000">N images: 6  |  Periods: 78.000</text>
</svg>
