<?xml version="1.0" encoding="UTF-8" standalone="no"?>
<svg xmlns="http://www.w3.org/2000/svg" width="8.5in" height="11.0in" viewBox="0 0 8.5 11.0">
<title>Lamp Template — Lines Page (Barrier + Slit per period)</title>
<g stroke="#000" stroke-width="0.003in" fill="none">
<line x1="0.000000" y1="0" x2="0.000000" y2="11.000000"/>
<line x1="0.118110" y1="0" x2="0.118110" y2="11.000000"/>
<line x1="0.141732" y1="0" x2="0.141732" y2="11.000000"/>
<line x1="0.259843" y1="0" x2="0.259843" y2="11.000000"/>
<line x1="0.283465" y1="0" x2="0.283465" y2="11.000000"/>
<line x1="0.401575" y1="0" x2="0.401575" y2="11.000000"/>
<line x1="0.425197" y1="0" x2="0.425197" y2="11.000000"/>
<line x1="0.543307" y1="0" x2="0.543307" y2="11.000000"/>
<line x1="0.566929" y1="0" x2="0.566929" y2="11.000000"/>
<line x1="0.685039" y1="0" x2="0.685039" y2="11.000000"/>
<line x1="0.708661" y1="0" x2="0.708661" y2="11.000000"/>
<line x1="0.826772" y1="0" x2="0.826772" y2="11.000000"/>
<line x1="0.850394" y1="0" x2="0.850394" y2="11.000000"/>
<line x1="0.968504" y1="0" x2="0.968504" y2="11.000000"/>
<line x1="0.992126" y1="0" x2="0.992126" y2="11.000000"/>
<line x1="1.110236" y1="0" x2="1.110236" y2="11.000000"/>
<line x1="1.133858" y1="0" x2="1.133858" y2="11.000000"/>
<line x1="1.251969" y1="0" x2="1.251969" y2="11.000000"/>
<line x1="1.275591" y1="0" x2="1.275591" y2="11.000000"/>
<line x1="1.393701" y1="0" x2="1.393701" y2="11.000000"/>
<line x1="1.417323" y1="0" x2="1.417323" y2="11.000000"/>
<line x1="1.535433" y1="0" x2="1.535433" y2="11.000000"/>
<line x1="1.559055" y1="0" x2="1.559055" y2="11.000000"/>
<line x1="1.677165" y1="0" x2="1.677165" y2="11.000000"/>
<line x1="1.700787" y1="0" x2="1.700787" y2="11.000000"/>
<line x1="1.818898" y1="0" x2="1.818898" y2="11.000000"/>
<line x1="1.842520" y1="0" x2="1.842520" y2="11.000000"/>
<line x1="1.960630" y1="0" x2="1.960630" y2="11.000000"/>
<line x1="1.984252" y1="0" x2="1.984252" y2="11.000000"/>
<line x1="2.102362" y1="0" x2="2.102362" y2="11.000000"/>
<line x1="2.125984" y1="0" x2="2.125984" y2="11.000000"/>
<line x1="2.244094" y1="0" x2="2.244094" y2="11.000000"/>
<line x1="2.267717" y1="0" x2="2.267717" y2="11.000000"/>
<line x1="2.385827" y1="0" x2="2.385827" y2="11.000000"/>
<line x1="2.409449" y1="0" x2="2.409449" y2="11.000000"/>
<line x1="2.527559" y1="0" x2="2.527559" y2="11.000000"/>
<line x1="2.551181" y1="0" x2="2.551181" y2="11.000000"/>
<line x1="2.669291" y1="0" x2="2.669291" y2="11.000000"/>
<line x1="2.692913" y1="0" x2="2.692913" y2="11.000000"/>
<line x1="2.811024" y1="0" x2="2.811024" y2="11.000000"/>
<line x1="2.834646" y1="0" x2="2.834646" y2="11.000000"/>
<line x1="2.952756" y1="0" x2="2.952756" y2="11.000000"/>
<line x1="2.976378" y1="0" x2="2.976378" y2="11.000000"/>
<line x1="3.094488" y1="0" x2="3.094488" y2="11.000000"/>
<line x1="3.118110" y1="0" x2="3.118110" y2="11.000000"/>
<line x1="3.236220" y1="0" x2="3.236220" y2="11.000000"/>
<line x1="3.259843" y1="0" x2="3.259843" y2="11.000000"/>
<line x1="3.377953" y1="0" x2="3.377953" y2="11.000000"/>
<line x1="3.401575" y1="0" x2="3.401575" y2="11.000000"/>
<line x1="3.519685" y1="0" x2="3.519685" y2="11.000000"/>
<line x1="3.543307" y1="0" x2="3.543307" y2="11.000000"/>
<line x1="3.661417" y1="0" x2="3.661417" y2="11.000000"/>
<line x1="3.685039" y1="0" x2="3.685039" y2="11.000000"/>
<line x1="3.803150" y1="0" x2="3.803150" y2="11.000000"/>
<line x1="3.826772" y1="0" x2="3.826772" y2="11.000000"/>
<line x1="3.944882" y1="0" x2="3.944882" y2="11.000000"/>
<line x1="3.968504" y1="0" x2="3.968504" y2="11.000000"/>
<line x1="4.086614" y1="0" x2="4.086614" y2="11.000000"/>
<line x1="4.110236" y1="0" x2="4.110236" y2="11.000000"/>
<line x1="4.228346" y1="0" x2="4.228346" y2="11.000000"/>
<line x1="4.251969" y1="0" x2="4.251969" y2="11.000000"/>
<line x1="4.370079" y1="0" x2="4.370079" y2="11.000000"/>
<line x1="4.393701" y1="0" x2="4.393701" y2="11.000000"/>
<line x1="4.511811" y1="0" x2="4.511811" y2="11.000000"/>
<line x1="4.535433" y1="0" x2="4.535433" y2="11.000000"/>
<line x1="4.653543" y1="0" x2="4.653543" y2="11.000000"/>
<line x1="4.677165" y1="0" x2="4.677165" y2="11.000000"/>
<line x1="4.795276" y1="0" x2="4.795276" y2="11.000000"/>
<line x1="4.818898" y1="0" x2="4.818898" y2="11.000000"/>
<line x1="4.937008" y1="0" x2="4.937008" y2="11.000000"/>
<line x1="4.960630" y1="0" x2="4.960630" y2="11.000000"/>
<line x1="5.078740" y1="0" x2="5.078740" y2="11.000000"/>
<line x1="5.102362" y1="0" x2="5.102362" y2="11.000000"/>
<line x1="5.220472" y1="0" x2="5.220472" y2="11.000000"/>
<line x1="5.244094" y1="0" x2="5.244094" y2="11.000000"/>
<line x1="5.362205" y1="0" x2="5.362205" y2="11.000000"/>
<line x1="5.385827" y1="0" x2="5.385827" y2="11.000000"/>
<line x1="5.503937" y1="0" x2="5.503937" y2="11.000000"/>
<line x1="5.527559" y1="0" x2="5.527559" y2="11.000000"/>
<line x1="5.645669" y1="0" x2="5.645669" y2="11.000000"/>
<line x1="5.669291" y1="0" x2="5.669291" y2="11.000000"/>
<line x1="5.787402" y1="0" x2="5.787402" y2="11.000000"/>
<line x1="5.811024" y1="0" x2="5.811024" y2="11.000000"/>
<line x1="5.929134" y1="0" x2="5.929134" y2="11.000000"/>
<line x1="5.952756" y1="0" x2="5.952756" y2="11.000000"/>
<line x1="6.070866" y1="0" x2="6.070866" y2="11.000000"/>
<line x1="6.094488" y1="0" x2="6.094488" y2="11.000000"/>
<line x1="6.212598" y1="0" x2="6.212598" y2="11.000000"/>
<line x1="6.236220" y1="0" x2="6.236220" y2="11.000000"/>
<line x1="6.354331" y1="0" x2="6.354331" y2="11.000000"/>
<line x1="6.377953" y1="0" x2="6.377953" y2="11.000000"/>
<line x1="6.496063" y1="0" x2="6.496063" y2="11.000000"/>
<line x1="6.519685" y1="0" x2="6.519685" y2="11.000000"/>
<line x1="6.637795" y1="0" x2="6.637795" y2="11.000000"/>
<line x1="6.661417" y1="0" x2="6.661417" y2="11.000000"/>
<line x1="6.779528" y1="0" x2="6.779528" y2="11.000000"/>
<line x1="6.803150" y1="0" x2="6.803150" y2="11.000000"/>
<line x1="6.921260" y1="0" x2="6.921260" y2="11.000000"/>
<line x1="6.944882" y1="0" x2="6.944882" y2="11.000000"/>
<line x1="7.062992" y1="0" x2="7.062992" y2="11.000000"/>
<line x1="7.086614" y1="0" x2="7.086614" y2="11.000000"/>
<line x1="7.204724" y1="0" x2="7.204724" y2="11.000000"/>
<line x1="7.228346" y1="0" x2="7.228346" y2="11.000000"/>
<line x1="7.346457" y1="0" x2="7.346457" y2="11.000000"/>
<line x1="7.370079" y1="0" x2="7.370079" y2="11.000000"/>
<line x1="7.488189" y1="0" x2="7.488189" y2="11.000000"/>
<line x1="7.511811" y1="0" x2="7.511811" y2="11.000000"/>
<line x1="7.629921" y1="0" x2="7.629921" y2="11.000000"/>
<line x1="7.653543" y1="0" x2="7.653543" y2="11.000000"/>
<line x1="7.771654" y1="0" x2="7.771654" y2="11.000000"/>
<line x1="7.795276" y1="0" x2="7.795276" y2="11.000000"/>
<line x1="7.913386" y1="0" x2="7.913386" y2="11.000000"/>
<line x1="7.937008" y1="0" x2="7.937008" y2="11.000000"/>
<line x1="8.055118" y1="0" x2="8.055118" y2="11.000000"/>
<line x1="8.078740" y1="0" x2="8.078740" y2="11.000000"/>
<line x1="8.196850" y1="0" x2="8.196850" y2="11.000000"/>
<line x1="8.220472" y1="0" x2="8.220472" y2="11.000000"/>
<line x1="8.338583" y1="0" x2="8.338583" y2="11.000000"/>
<line x1="8.362205" y1="0" x2="8.362205" y2="11.000000"/>
<line x1="8.480315" y1="0" x2="8.480315" y2="11.000000"/>
</g></svg>