<?xml version="1.0" encoding="UTF-8" standalone="no"?>
<svg xmlns="http://www.w3.org/2000/svg" width="11.0728in" height="8.5in" viewBox="0 0 11.0728 8.5">
<title>Scanimation Barrier</title>
<g fill="rgb(0,0,0)" stroke="none">
<rect x="0.0295" y="0" width="0.1181" height="8.5"/>
<rect x="0.1772" y="0" width="0.1181" height="8.5"/>
<rect x="0.3248" y="0" width="0.1181" height="8.5"/>
<rect x="0.4724" y="0" width="0.1181" height="8.5"/>
<rect x="0.6201" y="0" width="0.1181" height="8.5"/>
<rect x="0.7677" y="0" width="0.1181" height="8.5"/>
<rect x="0.9154" y="0" width="0.1181" height="8.5"/>
<rect x="1.063" y="0" width="0.1181" height="8.5"/>
<rect x="1.2106" y="0" width="0.1181" height="8.5"/>
<rect x="1.3583" y="0" width="0.1181" height="8.5"/>
<rect x="1.5059" y="0" width="0.1181" height="8.5"/>
<rect x="1.6535" y="0" width="0.1181" height="8.5"/>
<rect x="1.8012" y="0" width="0.1181" height="8.5"/>
<rect x="1.9488" y="0" width="0.1181" height="8.5"/>
<rect x="2.0965" y="0" width="0.1181" height="8.5"/>
<rect x="2.2441" y="0" width="0.1181" height="8.5"/>
<rect x="2.3917" y="0" width="0.1181" height="8.5"/>
<rect x="2.5394" y="0" width="0.1181" height="8.5"/>
<rect x="2.687" y="0" width="0.1181" height="8.5"/>
<rect x="2.8346" y="0" width="0.1181" height="8.5"/>
<rect x="2.9823" y="0" width="0.1181" height="8.5"/>
<rect x="3.1299" y="0" width="0.1181" height="8.5"/>
<rect x="3.2776" y="0" width="0.1181" height="8.5"/>
<rect x="3.4252" y="0" width="0.1181" height="8.5"/>
<rect x="3.5728" y="0" width="0.1181" height="8.5"/>
<rect x="3.7205" y="0" width="0.1181" height="8.5"/>
<rect x="3.8681" y="0" width="0.1181" height="8.5"/>
<rect x="4.0157" y="0" width="0.1181" height="8.5"/>
<rect x="4.1634" y="0" width="0.1181" height="8.5"/>
<rect x="4.311" y="0" width="0.1181" height="8.5"/>
<rect x="4.4587" y="0" width="0.1181" height="8.5"/>
<rect x="4.6063" y="0" width="0.1181" height="8.5"/>
<rect x="4.7539" y="0" width="0.1181" height="8.5"/>
<rect x="4.9016" y="0" width="0.1181" height="8.5"/>
<rect x="5.0492" y="0" width="0.1181" height="8.5"/>
<rect x="5.1969" y="0" width="0.1181" height="8.5"/>
<rect x="5.3445" y="0" width="0.1181" height="8.5"/>
<rect x="5.4921" y="0" width="0.1181" height="8.5"/>
<rect x="5.6398" y="0" width="0.1181" height="8.5"/>
<rect x="5.7874" y="0" width="0.1181" height="8.5"/>
<rect x="5.935" y="0" width="0.1181" height="8.5"/>
<rect x="6.0827" y="0" width="0.1181" height="8.5"/>
<rect x="6.2303" y="0" width="0.1181" height="8.5"/>
<rect x="6.378" y="0" width="0.1181" height="8.5"/>
<rect x="6.5256" y="0" width="0.1181" height="8.5"/>
<rect x="6.6732" y="0" width="0.1181" height="8.5"/>
<rect x="6.8209" y="0" width="0.1181" height="8.5"/>
<rect x="6.9685" y="0" width="0.1181" height="8.5"/>
<rect x="7.1161" y="0" width="0.1181" height="8.5"/>
<rect x="7.2638" y="0" width="0.1181" height="8.5"/>
<rect x="7.4114" y="0" width="0.1181" height="8.5"/>
<rect x="7.5591" y="0" width="0.1181" height="8.5"/>
<rect x="7.7067" y="0" width="0.1181" height="8.5"/>
<rect x="7.8543" y="0" width="0.1181" height="8.5"/>
<rect x="8.002" y="0" width="0.1181" height="8.5"/>
<rect x="8.1496" y="0" width="0.1181" height="8.5"/>
<rect x="8.2972" y="0" width="0.1181" height="8.5"/>
<rect x="8.4449" y="0" width="0.1181" height="8.5"/>
<rect x="8.5925" y="0" width="0.1181" height="8.5"/>
<rect x="8.7402" y="0" width="0.1181" height="8.5"/>
<rect x="8.8878" y="0" width="0.1181" height="8.5"/>
<rect x="9.0354" y="0" width="0.1181" height="8.5"/>
<rect x="9.1831" y="0" width="0.1181" height="8.5"/>
<rect x="9.3307" y="0" width="0.1181" height="8.5"/>
<rect x="9.4783" y="0" width="0.1181" height="8.5"/>
<rect x="9.626" y="0" width="0.1181" height="8.5"/>
<rect x="9.7736" y="0" width="0.1181" height="8.5"/>
<rect x="9.9213" y="0" width="0.1181" height="8.5"/>
<rect x="10.0689" y="0" width="0.1181" height="8.5"/>
<rect x="10.2165" y="0" width="0.1181" height="8.5"/>
<rect x="10.3642" y="0" width="0.1181" height="8.5"/>
<rect x="10.5118" y="0" width="0.1181" height="8.5"/>
<rect x="10.6594" y="0" width="0.1181" height="8.5"/>
<rect x="10.8071" y="0" width="0.1181" height="8.5"/>
<rect x="10.9547" y="0" width="0.1181" height="8.5"/>
</g></svg>