<?xml version="1.0" encoding="UTF-8" standalone="no"?>
<svg xmlns="http://www.w3.org/2000/svg" width="8.5in" height="11.0in" viewBox="0 0 8.5 11.0">
<title>Lamp Template — Lines Page (Barrier + Slit per period)</title>
<g stroke="#000" stroke-width="0.003in" fill="none">
<line x1="0.000000" y1="0" x2="0.000000" y2="11.000000"/>
<line x1="0.118110" y1="0" x2="0.118110" y2="11.000000"/>
<line x1="0.147638" y1="0" x2="0.147638" y2="11.000000"/>
<line x1="0.265748" y1="0" x2="0.265748" y2="11.000000"/>
<line x1="0.295276" y1="0" x2="0.295276" y2="11.000000"/>
<line x1="0.413386" y1="0" x2="0.413386" y2="11.000000"/>
<line x1="0.442913" y1="0" x2="0.442913" y2="11.000000"/>
<line x1="0.561024" y1="0" x2="0.561024" y2="11.000000"/>
<line x1="0.590551" y1="0" x2="0.590551" y2="11.000000"/>
<line x1="0.708661" y1="0" x2="0.708661" y2="11.000000"/>
<line x1="0.738189" y1="0" x2="0.738189" y2="11.000000"/>
<line x1="0.856299" y1="0" x2="0.856299" y2="11.000000"/>
<line x1="0.885827" y1="0" x2="0.885827" y2="11.000000"/>
<line x1="1.003937" y1="0" x2="1.003937" y2="11.000000"/>
<line x1="1.033465" y1="0" x2="1.033465" y2="11.000000"/>
<line x1="1.151575" y1="0" x2="1.151575" y2="11.000000"/>
<line x1="1.181102" y1="0" x2="1.181102" y2="11.000000"/>
<line x1="1.299213" y1="0" x2="1.299213" y2="11.000000"/>
<line x1="1.328740" y1="0" x2="1.328740" y2="11.000000"/>
<line x1="1.446850" y1="0" x2="1.446850" y2="11.000000"/>
<line x1="1.476378" y1="0" x2="1.476378" y2="11.000000"/>
<line x1="1.594488" y1="0" x2="1.594488" y2="11.000000"/>
<line x1="1.624016" y1="0" x2="1.624016" y2="11.000000"/>
<line x1="1.742126" y1="0" x2="1.742126" y2="11.000000"/>
<line x1="1.771654" y1="0" x2="1.771654" y2="11.000000"/>
<line x1="1.889764" y1="0" x2="1.889764" y2="11.000000"/>
<line x1="1.919291" y1="0" x2="1.919291" y2="11.000000"/>
<line x1="2.037402" y1="0" x2="2.037402" y2="11.000000"/>
<line x1="2.066929" y1="0" x2="2.066929" y2="11.000000"/>
<line x1="2.185039" y1="0" x2="2.185039" y2="11.000000"/>
<line x1="2.214567" y1="0" x2="2.214567" y2="11.000000"/>
<line x1="2.332677" y1="0" x2="2.332677" y2="11.000000"/>
<line x1="2.362205" y1="0" x2="2.362205" y2="11.000000"/>
<line x1="2.480315" y1="0" x2="2.480315" y2="11.000000"/>
<line x1="2.509843" y1="0" x2="2.509843" y2="11.000000"/>
<line x1="2.627953" y1="0" x2="2.627953" y2="11.000000"/>
<line x1="2.657480" y1="0" x2="2.657480" y2="11.000000"/>
<line x1="2.775591" y1="0" x2="2.775591" y2="11.000000"/>
<line x1="2.805118" y1="0" x2="2.805118" y2="11.000000"/>
<line x1="2.923228" y1="0" x2="2.923228" y2="11.000000"/>
<line x1="2.952756" y1="0" x2="2.952756" y2="11.000000"/>
<line x1="3.070866" y1="0" x2="3.070866" y2="11.000000"/>
<line x1="3.100394" y1="0" x2="3.100394" y2="11.000000"/>
<line x1="3.218504" y1="0" x2="3.218504" y2="11.000000"/>
<line x1="3.248031" y1="0" x2="3.248031" y2="11.000000"/>
<line x1="3.366142" y1="0" x2="3.366142" y2="11.000000"/>
<line x1="3.395669" y1="0" x2="3.395669" y2="11.000000"/>
<line x1="3.513780" y1="0" x2="3.513780" y2="11.000000"/>
<line x1="3.543307" y1="0" x2="3.543307" y2="11.000000"/>
<line x1="3.661417" y1="0" x2="3.661417" y2="11.000000"/>
<line x1="3.690945" y1="0" x2="3.690945" y2="11.000000"/>
<line x1="3.809055" y1="0" x2="3.809055" y2="11.000000"/>
<line x1="3.838583" y1="0" x2="3.838583" y2="11.000000"/>
<line x1="3.956693" y1="0" x2="3.956693" y2="11.000000"/>
<line x1="3.986220" y1="0" x2="3.986220" y2="11.000000"/>
<line x1="4.104331" y1="0" x2="4.104331" y2="11.000000"/>
<line x1="4.133858" y1="0" x2="4.133858" y2="11.000000"/>
<line x1="4.251969" y1="0" x2="4.251969" y2="11.000000"/>
<line x1="4.281496" y1="0" x2="4.281496" y2="11.000000"/>
<line x1="4.399606" y1="0" x2="4.399606" y2="11.000000"/>
<line x1="4.429134" y1="0" x2="4.429134" y2="11.000000"/>
<line x1="4.547244" y1="0" x2="4.547244" y2="11.000000"/>
<line x1="4.576772" y1="0" x2="4.576772" y2="11.000000"/>
<line x1="4.694882" y1="0" x2="4.694882" y2="11.000000"/>
<line x1="4.724409" y1="0" x2="4.724409" y2="11.000000"/>
<line x1="4.842520" y1="0" x2="4.842520" y2="11.000000"/>
<line x1="4.872047" y1="0" x2="4.872047" y2="11.000000"/>
<line x1="4.990157" y1="0" x2="4.990157" y2="11.000000"/>
<line x1="5.019685" y1="0" x2="5.019685" y2="11.000000"/>
<line x1="5.137795" y1="0" x2="5.137795" y2="11.000000"/>
<line x1="5.167323" y1="0" x2="5.167323" y2="11.000000"/>
<line x1="5.285433" y1="0" x2="5.285433" y2="11.000000"/>
<line x1="5.314961" y1="0" x2="5.314961" y2="11.000000"/>
<line x1="5.433071" y1="0" x2="5.433071" y2="11.000000"/>
<line x1="5.462598" y1="0" x2="5.462598" y2="11.000000"/>
<line x1="5.580709" y1="0" x2="5.580709" y2="11.000000"/>
<line x1="5.610236" y1="0" x2="5.610236" y2="11.000000"/>
<line x1="5.728346" y1="0" x2="5.728346" y2="11.000000"/>
<line x1="5.757874" y1="0" x2="5.757874" y2="11.000000"/>
<line x1="5.875984" y1="0" x2="5.875984" y2="11.000000"/>
<line x1="5.905512" y1="0" x2="5.905512" y2="11.000000"/>
<line x1="6.023622" y1="0" x2="6.023622" y2="11.000000"/>
<line x1="6.053150" y1="0" x2="6.053150" y2="11.000000"/>
<line x1="6.171260" y1="0" x2="6.171260" y2="11.000000"/>
<line x1="6.200787" y1="0" x2="6.200787" y2="11.000000"/>
<line x1="6.318898" y1="0" x2="6.318898" y2="11.000000"/>
<line x1="6.348425" y1="0" x2="6.348425" y2="11.000000"/>
<line x1="6.466535" y1="0" x2="6.466535" y2="11.000000"/>
<line x1="6.496063" y1="0" x2="6.496063" y2="11.000000"/>
<line x1="6.614173" y1="0" x2="6.614173" y2="11.000000"/>
<line x1="6.643701" y1="0" x2="6.643701" y2="11.000000"/>
<line x1="6.761811" y1="0" x2="6.761811" y2="11.000000"/>
<line x1="6.791339" y1="0" x2="6.791339" y2="11.000000"/>
<line x1="6.909449" y1="0" x2="6.909449" y2="11.000000"/>
<line x1="6.938976" y1="0" x2="6.938976" y2="11.000000"/>
<line x1="7.057087" y1="0" x2="7.057087" y2="11.000000"/>
<line x1="7.086614" y1="0" x2="7.086614" y2="11.000000"/>
<line x1="7.204724" y1="0" x2="7.204724" y2="11.000000"/>
<line x1="7.234252" y1="0" x2="7.234252" y2="11.000000"/>
<line x1="7.352362" y1="0" x2="7.352362" y2="11.000000"/>
<line x1="7.381890" y1="0" x2="7.381890" y2="11.000000"/>
<line x1="7.500000" y1="0" x2="7.500000" y2="11.000000"/>
<line x1="7.529528" y1="0" x2="7.529528" y2="11.000000"/>
<line x1="7.647638" y1="0" x2="7.647638" y2="11.000000"/>
<line x1="7.677165" y1="0" x2="7.677165" y2="11.000000"/>
<line x1="7.795276" y1="0" x2="7.795276" y2="11.000000"/>
<line x1="7.824803" y1="0" x2="7.824803" y2="11.000000"/>
<line x1="7.942913" y1="0" x2="7.942913" y2="11.000000"/>
<line x1="7.972441" y1="0" x2="7.972441" y2="11.000000"/>
<line x1="8.090551" y1="0" x2="8.090551" y2="11.000000"/>
<line x1="8.120079" y1="0" x2="8.120079" y2="11.000000"/>
<line x1="8.238189" y1="0" x2="8.238189" y2="11.000000"/>
<line x1="8.267717" y1="0" x2="8.267717" y2="11.000000"/>
<line x1="8.385827" y1="0" x2="8.385827" y2="11.000000"/>
<line x1="8.415354" y1="0" x2="8.415354" y2="11.000000"/>
</g></svg>