<?xml version="1.0" encoding="UTF-8" standalone="no"?>
<svg xmlns="http://www.w3.org/2000/svg"
     width="139.357757mm" height="139.357757mm"
     viewBox="0 0 139.357757 139.357757">
  <title>Lamp Template (Circle, Ticks + Specs)</title>
  <desc>Perimeter=38.000cm; bar=3.000mm, slit=0.750mm</desc>
  <polyline points="130.157757,69.678878 130.155454,70.206649 130.148546,70.734380 130.137032,71.262031 130.120915,71.789561 130.100194,72.316930 130.074873,72.844098 130.044951,73.371026 130.010433,73.897672 129.971321,74.423996 129.927616,74.949960 129.879324,75.475522 129.826447,76.000643 129.768990,76.525282 129.706956,77.049400 129.640352,77.572956 129.569180,78.095911 129.493448,78.618226 129.413161,79.139859 129.328325,79.660772 129.238947,80.180925 129.145032,80.700279 129.046589,81.218792 128.943625,81.736427 128.836148,82.253144 128.724166,82.768903 128.607687,83.283666 128.486721,83.797392 128.361276,84.310043 128.231362,84.821580 128.096989,85.331964 127.958167,85.841156 127.814908,86.349116 127.667221,86.855808 127.515117,87.361191 127.358610,87.865228 127.197710,88.367880 127.032429,88.869108 126.862781,89.368875 126.688778,89.867143 126.510434,90.363873 126.327762,90.859028 126.140775,91.352570 125.949489,91.844461 125.753918,92.334665 125.554076,92.823143 125.349979,93.309859 125.141643,93.794775 124.929083,94.277854 124.712315,94.759061 124.491357,95.238357 124.266224,95.715707 124.036934,96.191074 123.803505,96.664422 123.565954,97.135715 123.324299,97.604917 123.078558,98.071992 122.828752,98.536905 122.574897,98.999620 122.317015,99.460103 122.055123,99.918318 121.789244,100.374229 121.519395,100.827803 121.245599,101.279006 120.967876,101.727801 120.686247,102.174156 120.400734,102.618036 120.111358,103.059408 119.818141,103.498238 119.521106,103.934492 119.220275,104.368138 118.915672,104.799142 118.607319,105.227471 118.295240,105.653093 117.979458,106.075976 117.659999,106.496087 117.336885,106.913394 117.010142,107.327865 116.679794,107.739470 116.345868,108.148176 116.008387,108.553952 115.667378,108.956768 115.322867,109.356593 114.974880,109.753396 114.623444,110.147147 114.268585,110.537816 113.910330,110.925374 113.548707,111.309791 113.183743,111.691037 112.815466,112.069085 112.443903,112.443903 112.069085,112.815466 111.691037,113.183743 111.309791,113.548707 110.925374,113.910330 110.537816,114.268585 110.147147,114.623444 109.753396,114.974880 109.356593,115.322867 108.956768,115.667378 108.553952,116.008387 108.148176,116.345868 107.739470,116.679794 107.327865,117.010142 106.913394,117.336885 106.496087,117.659999 106.075976,117.979458 105.653093,118.295240 105.227471,118.607319 104.799142,118.915672 104.368138,119.220275 103.934492,119.521106 103.498238,119.818141 103.059408,120.111358 102.618036,120.400734 102.174156,120.686247 101.727801,120.967876 101.279006,121.245599 100.827803,121.519395 100.374229,121.789244 99.918318,122.055123 99.460103,122.317015 98.999620,122.574897 98.536905,122.828752 98.071992,123.078558 97.604917,123.324299 97.135715,123.565954 96.664422,123.803505 96.191074,124.036934 95.715707,124.266224 95.238357,124.491357 94.759061,124.712315 94.277854,124.929083 93.794775,125.141643 93.309859,125.349979 92.823143,125.554076 92.334665,125.753918 91.844461,125.949489 91.352570,126.140775 90.859028,126.327762 90.363873,126.510434 89.867143,126.688778 89.368875,126.862781 88.869108,127.032429 88.367880,127.197710 87.865228,127.358610 87.361191,127.515117 86.855808,127.667221 86.349116,127.814908 85.841156,127.958167 85.331964,128.096989 84.821580,128.231362 84.310043,128.361276 83.797392,128.486721 83.283666,128.607687 82.768903,128.724166 82.253144,128.836148 81.736427,128.943625 81.218792,129.046589 80.700279,129.145032 80.180925,129.238947 79.660772,129.328325 79.139859,129.413161 78.618226,129.493448 78.095911,129.569180 77.572956,129.640352 77.049400,129.706956 76.525282,129.768990 76.000643,129.826447 75.475522,129.879324 74.949960,129.927616 74.423996,129.971321 73.897672,130.010433 73.371026,130.044951 72.844098,130.074873 72.316930,130.100194 71.789561,130.120915 71.262031,130.137032 70.734380,130.148546 70.206649,130.155454 69.678878,130.157757 69.151107,130.155454 68.623376,130.148546 68.095726,130.137032 67.568196,130.120915 67.040827,130.100194 66.513658,130.074873 65.986731,130.044951 65.460085,130.010433 64.933760,129.971321 64.407797,129.927616 63.882235,129.879324 63.357114,129.826447 62.832475,129.768990 62.308357,129.706956 61.784801,129.640352 61.261845,129.569180 60.739531,129.493448 60.217897,129.413161 59.696984,129.328325 59.176831,129.238947 58.657478,129.145032 58.138964,129.046589 57.621329,128.943625 57.104613,128.836148 56.588853,128.724166 56.074091,128.607687 55.560365,128.486721 55.047713,128.361276 54.536177,128.231362 54.025793,128.096989 53.516601,127.958167 53.008640,127.814908 52.501949,127.667221 51.996566,127.515117 51.492529,127.358610 50.989877,127.197710 50.488649,127.032429 49.988882,126.862781 49.490614,126.688778 48.993884,126.510434 48.498729,126.327762 48.005187,126.140775 47.513295,125.949489 47.023092,125.753918 46.534614,125.554076 46.047898,125.349979 45.562982,125.141643 45.079902,124.929083 44.598696,124.712315 44.119400,124.491357 43.642050,124.266224 43.166683,124.036934 42.693335,123.803505 42.222042,123.565954 41.752840,123.324299 41.285765,123.078558 40.820852,122.828752 40.358136,122.574897 39.897654,122.317015 39.439439,122.055123 38.983527,121.789244 38.529953,121.519395 38.078751,121.245599 37.629956,120.967876 37.183601,120.686247 36.739720,120.400734 36.298349,120.111358 35.859519,119.818141 35.423264,119.521106 34.989619,119.220275 34.558615,118.915672 34.130286,118.607319 33.704663,118.295240 33.281781,117.979458 32.861670,117.659999 32.444363,117.336885 32.029891,117.010142 31.618287,116.679794 31.209581,116.345868 30.803805,116.008387 30.400989,115.667378 30.001164,115.322867 29.604361,114.974880 29.210610,114.623444 28.819940,114.268585 28.432383,113.910330 28.047966,113.548707 27.666719,113.183743 27.288672,112.815466 26.913853,112.443903 26.542291,112.069085 26.174014,111.691037 25.809050,111.309791 25.447427,110.925374 25.089172,110.537816 24.734313,110.147147 24.382876,109.753396 24.034889,109.356593 23.690378,108.956768 23.349370,108.553952 23.011889,108.148176 22.677962,107.739470 22.347615,107.327865 22.020872,106.913394 21.697758,106.496087 21.378298,106.075976 21.062517,105.653093 20.750438,105.227471 20.442085,104.799142 20.137482,104.368138 19.836651,103.934492 19.539616,103.498238 19.246399,103.059408 18.957023,102.618036 18.671510,102.174156 18.389881,101.727801 18.112158,101.279006 17.838361,100.827803 17.568513,100.374229 17.302633,99.918318 17.040742,99.460103 16.782859,98.999620 16.529005,98.536905 16.279198,98.071992 16.033458,97.604917 15.791803,97.135715 15.554252,96.664422 15.320823,96.191074 15.091533,95.715707 14.866400,95.238357 14.645441,94.759061 14.428674,94.277854 14.216114,93.794775 14.007777,93.309859 13.803680,92.823143 13.603839,92.334665 13.408267,91.844461 13.216981,91.352570 13.029995,90.859028 12.847323,90.363873 12.668978,89.867143 12.494975,89.368875 12.325327,88.869108 12.160047,88.367880 11.999147,87.865228 11.842639,87.361191 11.690536,86.855808 11.542849,86.349116 11.399589,85.841156 11.260768,85.331964 11.126395,84.821580 10.996481,84.310043 10.871036,83.797392 10.750070,83.283666 10.633591,82.768903 10.521609,82.253144 10.414131,81.736427 10.311167,81.218792 10.212724,80.700279 10.118810,80.180925 10.029431,79.660772 9.944595,79.139859 9.864308,78.618226 9.788576,78.095911 9.717405,77.572956 9.650800,77.049400 9.588767,76.525282 9.531310,76.000643 9.478433,75.475522 9.430140,74.949960 9.386436,74.423996 9.347324,73.897672 9.312805,73.371026 9.282884,72.844098 9.257562,72.316930 9.236842,71.789561 9.220725,71.262031 9.209211,70.734380 9.202303,70.206649 9.200000,69.678878 9.202303,69.151107 9.209211,68.623376 9.220725,68.095726 9.236842,67.568196 9.257562,67.040827 9.282884,66.513658 9.312805,65.986731 9.347324,65.460085 9.386436,64.933760 9.430140,64.407797 9.478433,63.882235 9.531310,63.357114 9.588767,62.832475 9.650800,62.308357 9.717405,61.784801 9.788576,61.261845 9.864308,60.739531 9.944595,60.217897 10.029431,59.696984 10.118810,59.176831 10.212724,58.657478 10.311167,58.138964 10.414131,57.621329 10.521609,57.104613 10.633591,56.588853 10.750070,56.074091 10.871036,55.560365 10.996481,55.047713 11.126395,54.536177 11.260768,54.025793 11.399589,53.516601 11.542849,53.008640 11.690536,52.501949 11.842639,51.996566 11.999147,51.492529 12.160047,50.989877 12.325327,50.488649 12.494975,49.988882 12.668978,49.490614 12.847323,48.993884 13.029995,48.498729 13.216981,48.005187 13.408267,47.513295 13.603839,47.023092 13.803680,46.534614 14.007777,46.047898 14.216114,45.562982 14.428674,45.079902 14.645441,44.598696 14.866400,44.119400 15.091533,43.642050 15.320823,43.166683 15.554252,42.693335 15.791803,42.222042 16.033458,41.752840 16.279198,41.285765 16.529005,40.820852 16.782859,40.358136 17.040742,39.897654 17.302633,39.439439 17.568513,38.983527 17.838361,38.529953 18.112158,38.078751 18.389881,37.629956 18.671510,37.183601 18.957023,36.739720 19.246399,36.298349 19.539616,35.859519 19.836651,35.423264 20.137482,34.989619 20.442085,34.558615 20.750438,34.130286 21.062517,33.704663 21.378298,33.281781 21.697758,32.861670 22.020872,32.444363 22.347615,32.029891 22.677962,31.618287 23.011889,31.209581 23.349370,30.803805 23.690378,30.400989 24.034889,30.001164 24.382876,29.604361 24.734313,29.210610 25.089172,28.819940 25.447427,28.432383 25.809050,28.047966 26.174014,27.666719 26.542291,27.288672 26.913853,26.913853 27.288672,26.542291 27.666719,26.174014 28.047966,25.809050 28.432383,25.447427 28.819940,25.089172 29.210610,24.734313 29.604361,24.382876 30.001164,24.034889 30.400989,23.690378 30.803805,23.349370 31.209581,23.011889 31.618287,22.677962 32.029891,22.347615 32.444363,22.020872 32.861670,21.697758 33.281781,21.378298 33.704663,21.062517 34.130286,20.750438 34.558615,20.442085 34.989619,20.137482 35.423264,19.836651 35.859519,19.539616 36.298349,19.246399 36.739720,18.957023 37.183601,18.671510 37.629956,18.389881 38.078751,18.112158 38.529953,17.838361 38.983527,17.568513 39.439439,17.302633 39.897654,17.040742 40.358136,16.782859 40.820852,16.529005 41.285765,16.279198 41.752840,16.033458 42.222042,15.791803 42.693335,15.554252 43.166683,15.320823 43.642050,15.091533 44.119400,14.866400 44.598696,14.645441 45.079902,14.428674 45.562982,14.216114 46.047898,14.007777 46.534614,13.803680 47.023092,13.603839 47.513295,13.408267 48.005187,13.216981 48.498729,13.029995 48.993884,12.847323 49.490614,12.668978 49.988882,12.494975 50.488649,12.325327 50.989877,12.160047 51.492529,11.999147 51.996566,11.842639 52.501949,11.690536 53.008640,11.542849 53.516601,11.399589 54.025793,11.260768 54.536177,11.126395 55.047713,10.996481 55.560365,10.871036 56.074091,10.750070 56.588853,10.633591 57.104613,10.521609 57.621329,10.414131 58.138964,10.311167 58.657478,10.212724 59.176831,10.118810 59.696984,10.029431 60.217897,9.944595 60.739531,9.864308 61.261845,9.788576 61.784801,9.717405 62.308357,9.650800 62.832475,9.588767 63.357114,9.531310 63.882235,9.478433 64.407797,9.430140 64.933760,9.386436 65.460085,9.347324 65.986731,9.312805 66.513658,9.282884 67.040827,9.257562 67.568196,9.236842 68.095726,9.220725 68.623376,9.209211 69.151107,9.202303 69.678878,9.200000 70.206649,9.202303 70.734380,9.209211 71.262031,9.220725 71.789561,9.236842 72.316930,9.257562 72.844098,9.282884 73.371026,9.312805 73.897672,9.347324 74.423996,9.386436 74.949960,9.430140 75.475522,9.478433 76.000643,9.531310 76.525282,9.588767 77.049400,9.650800 77.572956,9.717405 78.095911,9.788576 78.618226,9.864308 79.139859,9.944595 79.660772,10.029431 80.180925,10.118810 80.700279,10.212724 81.218792,10.311167 81.736427,10.414131 82.253144,10.521609 82.768903,10.633591 83.283666,10.750070 83.797392,10.871036 84.310043,10.996481 84.821580,11.126395 85.331964,11.260768 85.841156,11.399589 86.349116,11.542849 86.855808,11.690536 87.361191,11.842639 87.865228,11.999147 88.367880,12.160047 88.869108,12.325327 89.368875,12.494975 89.867143,12.668978 90.363873,12.847323 90.859028,13.029995 91.352570,13.216981 91.844461,13.408267 92.334665,13.603839 92.823143,13.803680 93.309859,14.007777 93.794775,14.216114 94.277854,14.428674 94.759061,14.645441 95.238357,14.866400 95.715707,15.091533 96.191074,15.320823 96.664422,15.554252 97.135715,15.791803 97.604917,16.033458 98.071992,16.279198 98.536905,16.529005 98.999620,16.782859 99.460103,17.040742 99.918318,17.302633 100.374229,17.568513 100.827803,17.838361 101.279006,18.112158 101.727801,18.389881 102.174156,18.671510 102.618036,18.957023 103.059408,19.246399 103.498238,19.539616 103.934492,19.836651 104.368138,20.137482 104.799142,20.442085 105.227471,20.750438 105.653093,21.062517 106.075976,21.378298 106.496087,21.697758 106.913394,22.020872 107.327865,22.347615 107.739470,22.677962 108.148176,23.011889 108.553952,23.349370 108.956768,23.690378 109.356593,24.034889 109.753396,24.382876 110.147147,24.734313 110.537816,25.089172 110.925374,25.447427 111.309791,25.809050 111.691037,26.174014 112.069085,26.542291 112.443903,26.913853 112.815466,27.288672 113.183743,27.666719 113.548707,28.047966 113.910330,28.432383 114.268585,28.819940 114.623444,29.210610 114.974880,29.604361 115.322867,30.001164 115.667378,30.400989 116.008387,30.803805 116.345868,31.209581 116.679794,31.618287 117.010142,32.029891 117.336885,32.444363 117.659999,32.861670 117.979458,33.281781 118.295240,33.704663 118.607319,34.130286 118.915672,34.558615 119.220275,34.989619 119.521106,35.423264 119.818141,35.859519 120.111358,36.298349 120.400734,36.739720 120.686247,37.183601 120.967876,37.629956 121.245599,38.078751 121.519395,38.529953 121.789244,38.983527 122.055123,39.439439 122.317015,39.897654 122.574897,40.358136 122.828752,40.820852 123.078558,41.285765 123.324299,41.752840 123.565954,42.222042 123.803505,42.693335 124.036934,43.166683 124.266224,43.642050 124.491357,44.119400 124.712315,44.598696 124.929083,45.079902 125.141643,45.562982 125.349979,46.047898 125.554076,46.534614 125.753918,47.023092 125.949489,47.513295 126.140775,48.005187 126.327762,48.498729 126.510434,48.993884 126.688778,49.490614 126.862781,49.988882 127.032429,50.488649 127.197710,50.989877 127.358610,51.492529 127.515117,51.996566 127.667221,52.501949 127.814908,53.008640 127.958167,53.516601 128.096989,54.025793 128.231362,54.536177 128.361276,55.047713 128.486721,55.560365 128.607687,56.074091 128.724166,56.588853 128.836148,57.104613 128.943625,57.621329 129.046589,58.138964 129.145032,58.657478 129.238947,59.176831 129.328325,59.696984 129.413161,60.217897 129.493448,60.739531 129.569180,61.261845 129.640352,61.784801 129.706956,62.308357 129.768990,62.832475 129.826447,63.357114 129.879324,63.882235 129.927616,64.407797 129.971321,64.933760 130.010433,65.460085 130.044951,65.986731 130.074873,66.513658 130.100194,67.040827 130.120915,67.568196 130.137032,68.095726 130.148546,68.623376 130.155454,69.151107 130.157757,69.678878" fill="none" stroke="#000" stroke-width="0.300000"/><line x1="127.602764" y1="70.395476" x2="130.002558" y2="70.426891" stroke="#000" stroke-width="0.300000" stroke-linecap="round"/><line x1="127.496777" y1="73.259696" x2="129.891638" y2="73.416663" stroke="#000" stroke-width="0.300000" stroke-linecap="round"/><line x1="127.446859" y1="73.985722" x2="129.840259" y2="74.163583" stroke="#000" stroke-width="0.300000" stroke-linecap="round"/><line x1="127.163319" y1="76.837838" x2="129.544131" y2="77.140716" stroke="#000" stroke-width="0.300000" stroke-linecap="round"/><line x1="127.068690" y1="77.559400" x2="129.446768" y2="77.883042" stroke="#000" stroke-width="0.300000" stroke-linecap="round"/><line x1="126.608690" y1="80.388419" x2="128.966571" y2="80.836076" stroke="#000" stroke-width="0.300000" stroke-linecap="round"/><line x1="126.469711" y1="81.102765" x2="128.823596" y2="81.570981" stroke="#000" stroke-width="0.300000" stroke-linecap="round"/><line x1="125.835024" y1="83.897782" x2="128.161179" y2="84.488550" stroke="#000" stroke-width="0.300000" stroke-linecap="round"/><line x1="125.652226" y1="84.602190" x2="127.973136" y2="85.213235" stroke="#000" stroke-width="0.300000" stroke-linecap="round"/><line x1="124.845298" y1="87.352434" x2="127.131048" y2="88.084108" stroke="#000" stroke-width="0.300000" stroke-linecap="round"/><line x1="124.619376" y1="88.044219" x2="126.898654" y2="88.795812" stroke="#000" stroke-width="0.300000" stroke-linecap="round"/><line x1="123.643317" y1="90.739088" x2="125.880136" y2="91.608939" stroke="#000" stroke-width="0.300000" stroke-linecap="round"/><line x1="123.383244" y1="91.394889" x2="125.604541" y2="92.303645" stroke="#000" stroke-width="0.300000" stroke-linecap="round"/><line x1="122.233704" y1="94.044720" x2="124.413247" y2="95.049503" stroke="#000" stroke-width="0.300000" stroke-linecap="round"/><line x1="121.933203" y1="94.683006" x2="124.094878" y2="95.725675" stroke="#000" stroke-width="0.300000" stroke-linecap="round"/><line x1="120.621878" y1="97.256616" x2="122.736016" y2="98.392584" stroke="#000" stroke-width="0.300000" stroke-linecap="round"/><line x1="120.282121" y1="97.874901" x2="122.376111" y2="99.047592" stroke="#000" stroke-width="0.300000" stroke-linecap="round"/><line x1="118.814039" y1="100.362426" x2="120.854884" y2="101.625339" stroke="#000" stroke-width="0.300000" stroke-linecap="round"/><line x1="118.436349" y1="100.958298" x2="120.454843" y2="102.256637" stroke="#000" stroke-width="0.300000" stroke-linecap="round"/><line x1="116.829860" y1="103.331945" x2="118.777637" y2="104.734145" stroke="#000" stroke-width="0.300000" stroke-linecap="round"/><line x1="116.402986" y1="103.921340" x2="118.338453" y2="105.340483" stroke="#000" stroke-width="0.300000" stroke-linecap="round"/><line x1="114.652285" y1="106.190705" x2="116.510827" y2="107.709198" stroke="#000" stroke-width="0.300000" stroke-linecap="round"/><line x1="114.189852" y1="106.752632" x2="116.035073" y2="108.287285" stroke="#000" stroke-width="0.300000" stroke-linecap="round"/><line x1="112.301688" y1="108.908968" x2="114.064062" y2="110.538090" stroke="#000" stroke-width="0.300000" stroke-linecap="round"/><line x1="111.805458" y1="109.441285" x2="113.553548" y2="111.085725" stroke="#000" stroke-width="0.300000" stroke-linecap="round"/><line x1="109.787108" y1="111.476282" x2="111.446740" y2="113.209955" stroke="#000" stroke-width="0.300000" stroke-linecap="round"/><line x1="109.258973" y1="111.976960" x2="110.903412" y2="113.725051" stroke="#000" stroke-width="0.300000" stroke-linecap="round"/><line x1="107.118217" y1="113.882774" x2="108.668915" y2="115.714532" stroke="#000" stroke-width="0.300000" stroke-linecap="round"/><line x1="106.560190" y1="114.349905" x2="108.094843" y2="116.195125" stroke="#000" stroke-width="0.300000" stroke-linecap="round"/><line x1="104.305278" y1="116.119189" x2="105.741257" y2="118.042198" stroke="#000" stroke-width="0.300000" stroke-linecap="round"/><line x1="103.737488" y1="116.537911" x2="105.139687" y2="118.485688" stroke="#000" stroke-width="0.300000" stroke-linecap="round"/><line x1="101.359110" y1="118.176926" x2="102.675014" y2="120.184013" stroke="#000" stroke-width="0.300000" stroke-linecap="round"/><line x1="100.766291" y1="118.559389" x2="102.046966" y2="120.589136" stroke="#000" stroke-width="0.300000" stroke-linecap="round"/><line x1="98.291041" y1="120.048073" x2="99.481961" y2="122.131750" stroke="#000" stroke-width="0.300000" stroke-linecap="round"/><line x1="97.675506" y1="120.392786" x2="98.829879" y2="122.496930" stroke="#000" stroke-width="0.300000" stroke-linecap="round"/><line x1="95.112871" y1="121.725432" x2="96.174364" y2="123.877926" stroke="#000" stroke-width="0.300000" stroke-linecap="round"/><line x1="94.477018" y1="122.031050" x2="95.500783" y2="124.201743" stroke="#000" stroke-width="0.300000" stroke-linecap="round"/><line x1="91.857380" y1="123.194034" x2="92.766137" y2="125.415331" stroke="#000" stroke-width="0.300000" stroke-linecap="round"/><line x1="91.183130" y1="123.467884" x2="92.072468" y2="125.697027" stroke="#000" stroke-width="0.300000" stroke-linecap="round"/><line x1="88.496372" y1="124.466044" x2="89.267827" y2="126.738676" stroke="#000" stroke-width="0.300000" stroke-linecap="round"/><line x1="87.806508" y1="124.697762" x2="88.558101" y2="126.977039" stroke="#000" stroke-width="0.300000" stroke-linecap="round"/><line x1="85.062987" y1="125.527251" x2="85.694262" y2="127.842741" stroke="#000" stroke-width="0.300000" stroke-linecap="round"/><line x1="84.360137" y1="125.715953" x2="84.971182" y2="128.036863" stroke="#000" stroke-width="0.300000" stroke-linecap="round"/><line x1="81.570428" y1="126.373576" x2="82.059168" y2="128.723285" stroke="#000" stroke-width="0.300000" stroke-linecap="round"/><line x1="80.857273" y1="126.518543" x2="81.325490" y2="128.872427" stroke="#000" stroke-width="0.300000" stroke-linecap="round"/><line x1="78.032127" y1="127.001764" x2="78.376509" y2="129.376927" stroke="#000" stroke-width="0.300000" stroke-linecap="round"/><line x1="77.311385" y1="127.102443" x2="77.635027" y2="129.480521" stroke="#000" stroke-width="0.300000" stroke-linecap="round"/><line x1="74.461692" y1="127.409400" x2="74.660431" y2="129.801157" stroke="#000" stroke-width="0.300000" stroke-linecap="round"/><line x1="73.736109" y1="127.465408" x2="73.913970" y2="129.858808" stroke="#000" stroke-width="0.300000" stroke-linecap="round"/><line x1="70.872853" y1="127.594917" x2="70.925208" y2="129.994346" stroke="#000" stroke-width="0.300000" stroke-linecap="round"/><line x1="70.167446" y1="127.605601" x2="70.177918" y2="130.005578" stroke="#000" stroke-width="0.300000" stroke-linecap="round"/><line x1="67.279412" y1="127.557601" x2="67.185188" y2="129.955750" stroke="#000" stroke-width="0.300000" stroke-linecap="round"/><line x1="66.574715" y1="127.524232" x2="66.438652" y2="129.920372" stroke="#000" stroke-width="0.300000" stroke-linecap="round"/><line x1="63.695188" y1="127.297594" x2="63.454736" y2="129.685519" stroke="#000" stroke-width="0.300000" stroke-linecap="round"/><line x1="62.993948" y1="127.220303" x2="62.711858" y2="129.603667" stroke="#000" stroke-width="0.300000" stroke-linecap="round"/><line x1="60.133965" y1="126.815896" x2="59.748183" y2="129.184687" stroke="#000" stroke-width="0.300000" stroke-linecap="round"/><line x1="59.438917" y1="126.694983" x2="59.011852" y2="129.056681" stroke="#000" stroke-width="0.300000" stroke-linecap="round"/><line x1="56.631178" y1="126.119124" x2="56.081097" y2="128.455234" stroke="#000" stroke-width="0.300000" stroke-linecap="round"/><line x1="55.923291" y1="125.950294" x2="55.352845" y2="128.281515" stroke="#000" stroke-width="0.300000" stroke-linecap="round"/><line x1="53.156710" y1="125.201294" x2="52.465039" y2="127.499466" stroke="#000" stroke-width="0.300000" stroke-linecap="round"/><line x1="52.460593" y1="124.989100" x2="51.748893" y2="127.281148" stroke="#000" stroke-width="0.300000" stroke-linecap="round"/><line x1="49.745832" y1="124.069847" x2="48.915151" y2="126.321506" stroke="#000" stroke-width="0.300000" stroke-linecap="round"/><line x1="49.064137" y1="123.815097" x2="48.213839" y2="126.059422" stroke="#000" stroke-width="0.300000" stroke-linecap="round"/><line x1="46.411661" y1="122.729134" x2="45.445069" y2="124.925881" stroke="#000" stroke-width="0.300000" stroke-linecap="round"/><line x1="45.746986" y1="122.432800" x2="44.761261" y2="124.621029" stroke="#000" stroke-width="0.300000" stroke-linecap="round"/><line x1="43.167018" y1="121.184312" x2="42.068121" y2="123.317953" stroke="#000" stroke-width="0.300000" stroke-linecap="round"/><line x1="42.521898" y1="120.847523" x2="41.404423" y2="122.971494" stroke="#000" stroke-width="0.300000" stroke-linecap="round"/><line x1="40.024382" y1="119.441322" x2="38.797278" y2="121.503898" stroke="#000" stroke-width="0.300000" stroke-linecap="round"/><line x1="39.420251" y1="119.076987" x2="38.157337" y2="121.117832" stroke="#000" stroke-width="0.300000" stroke-linecap="round"/><line x1="36.995837" y1="117.506868" x2="35.645105" y2="119.490684" stroke="#000" stroke-width="0.300000" stroke-linecap="round"/><line x1="36.415628" y1="117.105534" x2="35.030480" y2="119.065474" stroke="#000" stroke-width="0.300000" stroke-linecap="round"/><line x1="34.093032" y1="115.388388" x2="32.623711" y2="117.286043" stroke="#000" stroke-width="0.300000" stroke-linecap="round"/><line x1="33.539007" y1="114.951620" x2="32.036790" y2="116.823343" stroke="#000" stroke-width="0.300000" stroke-linecap="round"/><line x1="31.327131" y1="113.094029" x2="29.744701" y2="114.898444" stroke="#000" stroke-width="0.300000" stroke-linecap="round"/><line x1="30.801448" y1="112.623529" x2="29.187768" y2="114.400053" stroke="#000" stroke-width="0.300000" stroke-linecap="round"/><line x1="28.724508" y1="110.648345" x2="27.020063" y2="112.337980" stroke="#000" stroke-width="0.300000" stroke-linecap="round"/><line x1="28.213480" y1="110.130216" x2="26.494355" y2="111.804913" stroke="#000" stroke-width="0.300000" stroke-linecap="round"/><line x1="26.263132" y1="108.029946" x2="24.458716" y2="109.612376" stroke="#000" stroke-width="0.300000" stroke-linecap="round"/><line x1="25.785054" y1="107.481268" x2="23.966898" y2="109.047891" stroke="#000" stroke-width="0.300000" stroke-linecap="round"/><line x1="23.968815" y1="105.264009" x2="22.071160" y2="106.733331" stroke="#000" stroke-width="0.300000" stroke-linecap="round"/><line x1="23.525510" y1="104.686873" x2="21.615105" y2="106.139579" stroke="#000" stroke-width="0.300000" stroke-linecap="round"/><line x1="21.850380" y1="102.361172" x2="19.866564" y2="103.711904" stroke="#000" stroke-width="0.300000" stroke-linecap="round"/><line x1="21.443537" y1="101.757778" x2="19.448010" y2="103.091147" stroke="#000" stroke-width="0.300000" stroke-linecap="round"/><line x1="19.915972" y1="99.332598" x2="17.853397" y2="100.559701" stroke="#000" stroke-width="0.300000" stroke-linecap="round"/><line x1="19.547142" y1="98.705246" x2="17.473937" y2="99.914304" stroke="#000" stroke-width="0.300000" stroke-linecap="round"/><line x1="18.173031" y1="96.189935" x2="16.039390" y2="97.288832" stroke="#000" stroke-width="0.300000" stroke-linecap="round"/><line x1="17.843620" y1="95.541016" x2="15.700470" y2="96.621253" stroke="#000" stroke-width="0.300000" stroke-linecap="round"/><line x1="16.628259" y1="92.945268" x2="14.431511" y2="93.911860" stroke="#000" stroke-width="0.300000" stroke-linecap="round"/><line x1="16.348444" y1="92.297644" x2="14.135162" y2="93.225750" stroke="#000" stroke-width="0.300000" stroke-linecap="round"/><line x1="15.287597" y1="89.611076" x2="13.035938" y2="90.441757" stroke="#000" stroke-width="0.300000" stroke-linecap="round"/><line x1="15.048754" y1="88.947250" x2="12.782940" y2="89.738508" stroke="#000" stroke-width="0.300000" stroke-linecap="round"/><line x1="14.156202" y1="86.200181" x2="11.858030" y2="86.891852" stroke="#000" stroke-width="0.300000" stroke-linecap="round"/><line x1="13.959261" y1="85.522740" x2="11.649368" y2="86.174197" stroke="#000" stroke-width="0.300000" stroke-linecap="round"/><line x1="13.238425" y1="82.725699" x2="10.902315" y2="83.275780" stroke="#000" stroke-width="0.300000" stroke-linecap="round"/><line x1="13.084154" y1="82.037285" x2="10.738800" y2="82.546511" stroke="#000" stroke-width="0.300000" stroke-linecap="round"/><line x1="12.541715" y1="79.222899" x2="10.172924" y2="79.608681" stroke="#000" stroke-width="0.300000" stroke-linecap="round"/><line x1="12.426799" y1="78.504288" x2="10.054732" y2="78.869384" stroke="#000" stroke-width="0.300000" stroke-linecap="round"/><line x1="12.060072" y1="75.661669" x2="9.672148" y2="75.902120" stroke="#000" stroke-width="0.300000" stroke-linecap="round"/><line x1="11.989723" y1="74.937337" x2="9.599791" y2="75.156941" stroke="#000" stroke-width="0.300000" stroke-linecap="round"/><line x1="11.800120" y1="72.077442" x2="9.401971" y2="72.171665" stroke="#000" stroke-width="0.300000" stroke-linecap="round"/><line x1="11.774607" y1="71.350149" x2="9.375726" y2="71.423441" stroke="#000" stroke-width="0.300000" stroke-linecap="round"/><line x1="11.762859" y1="68.484000" x2="9.363431" y2="68.431644" stroke="#000" stroke-width="0.300000" stroke-linecap="round"/><line x1="11.782278" y1="67.756519" x2="9.383398" y2="67.683227" stroke="#000" stroke-width="0.300000" stroke-linecap="round"/><line x1="11.948431" y1="64.895164" x2="9.556674" y2="64.696424" stroke="#000" stroke-width="0.300000" stroke-linecap="round"/><line x1="12.012709" y1="64.170268" x2="9.622777" y2="63.950664" stroke="#000" stroke-width="0.300000" stroke-linecap="round"/><line x1="12.356123" y1="61.324735" x2="9.980959" y2="60.980353" stroke="#000" stroke-width="0.300000" stroke-linecap="round"/><line x1="12.461538" y1="60.627166" x2="10.092747" y2="60.241384" stroke="#000" stroke-width="0.300000" stroke-linecap="round"/><line x1="12.984365" y1="57.786444" x2="10.634656" y2="57.297703" stroke="#000" stroke-width="0.300000" stroke-linecap="round"/><line x1="13.133117" y1="57.096817" x2="10.792296" y2="56.567143" stroke="#000" stroke-width="0.300000" stroke-linecap="round"/><line x1="13.830744" y1="54.293898" x2="11.515254" y2="53.662623" stroke="#000" stroke-width="0.300000" stroke-linecap="round"/><line x1="14.022252" y1="53.614902" x2="11.718132" y2="52.943312" stroke="#000" stroke-width="0.300000" stroke-linecap="round"/><line x1="14.892004" y1="50.860528" x2="12.619371" y2="50.089074" stroke="#000" stroke-width="0.300000" stroke-linecap="round"/><line x1="15.125522" y1="50.194810" x2="12.866700" y2="49.383810" stroke="#000" stroke-width="0.300000" stroke-linecap="round"/><line x1="16.155555" y1="47.520101" x2="13.942273" y2="46.591995" stroke="#000" stroke-width="0.300000" stroke-linecap="round"/><line x1="16.438684" y1="46.849694" x2="14.233585" y2="45.902309" stroke="#000" stroke-width="0.300000" stroke-linecap="round"/><line x1="17.632725" y1="44.244074" x2="15.480230" y2="43.182581" stroke="#000" stroke-width="0.300000" stroke-linecap="round"/><line x1="17.956687" y1="43.592419" x2="15.813537" y2="42.512183" stroke="#000" stroke-width="0.300000" stroke-linecap="round"/><line x1="19.310132" y1="41.065930" x2="17.226455" y2="39.875011" stroke="#000" stroke-width="0.300000" stroke-linecap="round"/><line x1="19.673693" y1="40.435510" x2="17.600488" y2="39.226453" stroke="#000" stroke-width="0.300000" stroke-linecap="round"/><line x1="21.181326" y1="37.997891" x2="19.174239" y2="36.681987" stroke="#000" stroke-width="0.300000" stroke-linecap="round"/><line x1="21.583099" y1="37.391109" x2="19.587572" y2="36.057740" stroke="#000" stroke-width="0.300000" stroke-linecap="round"/><line x1="23.239109" y1="35.051754" x2="21.316100" y2="33.615775" stroke="#000" stroke-width="0.300000" stroke-linecap="round"/><line x1="23.677563" y1="34.470923" x2="21.767158" y2="33.018218" stroke="#000" stroke-width="0.300000" stroke-linecap="round"/><line x1="25.475567" y1="32.238849" x2="23.643810" y2="30.688152" stroke="#000" stroke-width="0.300000" stroke-linecap="round"/><line x1="25.949031" y1="31.686184" x2="24.130875" y2="30.119561" stroke="#000" stroke-width="0.300000" stroke-linecap="round"/><line x1="27.882100" y1="29.569995" x2="26.148427" y2="27.910364" stroke="#000" stroke-width="0.300000" stroke-linecap="round"/><line x1="28.373349" y1="29.063648" x2="26.668904" y2="27.374013" stroke="#000" stroke-width="0.300000" stroke-linecap="round"/><line x1="30.449453" y1="27.055455" x2="28.820331" y2="25.293081" stroke="#000" stroke-width="0.300000" stroke-linecap="round"/><line x1="30.971349" y1="26.580761" x2="29.373233" y2="24.790223" stroke="#000" stroke-width="0.300000" stroke-linecap="round"/><line x1="33.167752" y1="24.704899" x2="31.649259" y2="22.846357" stroke="#000" stroke-width="0.300000" stroke-linecap="round"/><line x1="33.718262" y1="24.263708" x2="32.232436" y2="22.378947" stroke="#000" stroke-width="0.300000" stroke-linecap="round"/><line x1="36.026545" y1="22.527369" x2="34.624346" y2="20.579591" stroke="#000" stroke-width="0.300000" stroke-linecap="round"/><line x1="36.603522" y1="22.121400" x2="35.235530" y2="20.149447" stroke="#000" stroke-width="0.300000" stroke-linecap="round"/><line x1="38.996100" y1="20.543242" x2="37.733186" y2="18.502397" stroke="#000" stroke-width="0.300000" stroke-linecap="round"/><line x1="39.616034" y1="20.162075" x2="38.370978" y2="18.110287" stroke="#000" stroke-width="0.300000" stroke-linecap="round"/><line x1="42.101937" y1="18.735450" x2="40.965970" y2="16.621313" stroke="#000" stroke-width="0.300000" stroke-linecap="round"/><line x1="42.744212" y1="18.393268" x2="41.626737" y2="16.269298" stroke="#000" stroke-width="0.300000" stroke-linecap="round"/><line x1="45.313858" y1="17.123674" x2="44.309075" y2="14.944131" stroke="#000" stroke-width="0.300000" stroke-linecap="round"/><line x1="45.976026" y1="16.821782" x2="44.990301" y2="14.633553" stroke="#000" stroke-width="0.300000" stroke-linecap="round"/><line x1="48.619512" y1="15.714112" x2="47.749660" y2="13.477293" stroke="#000" stroke-width="0.300000" stroke-linecap="round"/><line x1="49.299048" y1="15.453659" x2="48.448750" y2="13.209335" stroke="#000" stroke-width="0.300000" stroke-linecap="round"/><line x1="52.006184" y1="14.512183" x2="51.274510" y2="12.226433" stroke="#000" stroke-width="0.300000" stroke-linecap="round"/><line x1="52.700499" y1="14.294163" x2="51.988799" y2="12.002116" stroke="#000" stroke-width="0.300000" stroke-linecap="round"/><line x1="55.460851" y1="13.522510" x2="54.870083" y2="11.196355" stroke="#000" stroke-width="0.300000" stroke-linecap="round"/><line x1="56.145662" y1="13.352956" x2="55.595581" y2="11.016846" stroke="#000" stroke-width="0.300000" stroke-linecap="round"/><line x1="58.970227" y1="12.748898" x2="58.522569" y2="10.391017" stroke="#000" stroke-width="0.300000" stroke-linecap="round"/><line x1="59.664284" y1="12.622422" x2="59.257845" y2="10.257088" stroke="#000" stroke-width="0.300000" stroke-linecap="round"/><line x1="62.520816" y1="12.194324" x2="62.217938" y2="9.813512" stroke="#000" stroke-width="0.300000" stroke-linecap="round"/><line x1="63.221414" y1="12.111418" x2="62.960133" y2="9.725683" stroke="#000" stroke-width="0.300000" stroke-linecap="round"/><line x1="66.098963" y1="11.860921" x2="65.941996" y2="9.466059" stroke="#000" stroke-width="0.300000" stroke-linecap="round"/><line x1="66.803371" y1="11.821908" x2="66.688223" y2="9.424672" stroke="#000" stroke-width="0.300000" stroke-linecap="round"/><line x1="69.668656" y1="11.749980" x2="69.679128" y2="9.350003" stroke="#000" stroke-width="0.300000" stroke-linecap="round"/><line x1="70.396380" y1="11.755005" x2="70.427795" y2="9.355211" stroke="#000" stroke-width="0.300000" stroke-linecap="round"/><line x1="73.260598" y1="11.861039" x2="73.417566" y2="9.466178" stroke="#000" stroke-width="0.300000" stroke-linecap="round"/><line x1="73.986624" y1="11.910965" x2="74.164485" y2="9.517565" stroke="#000" stroke-width="0.300000" stroke-linecap="round"/><line x1="76.838735" y1="12.194552" x2="77.141613" y2="9.813740" stroke="#000" stroke-width="0.300000" stroke-linecap="round"/><line x1="77.560296" y1="12.289189" x2="77.883938" y2="9.911111" stroke="#000" stroke-width="0.300000" stroke-linecap="round"/><line x1="80.389307" y1="12.749236" x2="80.836965" y2="10.391355" stroke="#000" stroke-width="0.300000" stroke-linecap="round"/><line x1="81.103652" y1="12.888222" x2="81.571868" y2="10.534337" stroke="#000" stroke-width="0.300000" stroke-linecap="round"/><line x1="83.898659" y1="13.522955" x2="84.489427" y2="11.196801" stroke="#000" stroke-width="0.300000" stroke-linecap="round"/><line x1="84.603065" y1="13.705761" x2="85.214110" y2="11.384851" stroke="#000" stroke-width="0.300000" stroke-linecap="round"/><line x1="87.353295" y1="14.512734" x2="88.084970" y2="12.226984" stroke="#000" stroke-width="0.300000" stroke-linecap="round"/><line x1="88.045078" y1="14.738664" x2="88.796671" y2="12.459386" stroke="#000" stroke-width="0.300000" stroke-linecap="round"/><line x1="90.739931" y1="15.714767" x2="91.609782" y2="13.477948" stroke="#000" stroke-width="0.300000" stroke-linecap="round"/><line x1="91.395726" y1="15.974855" x2="92.304482" y2="13.753558" stroke="#000" stroke-width="0.300000" stroke-linecap="round"/><line x1="94.045541" y1="17.124432" x2="95.050324" y2="14.944888" stroke="#000" stroke-width="0.300000" stroke-linecap="round"/><line x1="94.683821" y1="17.424947" x2="95.726489" y2="15.263271" stroke="#000" stroke-width="0.300000" stroke-linecap="round"/><line x1="97.257413" y1="18.736306" x2="98.393380" y2="16.622169" stroke="#000" stroke-width="0.300000" stroke-linecap="round"/><line x1="97.875690" y1="19.076078" x2="99.048381" y2="16.982087" stroke="#000" stroke-width="0.300000" stroke-linecap="round"/><line x1="100.363195" y1="20.544194" x2="101.626108" y2="18.503349" stroke="#000" stroke-width="0.300000" stroke-linecap="round"/><line x1="100.959059" y1="20.921897" x2="102.257397" y2="18.903403" stroke="#000" stroke-width="0.300000" stroke-linecap="round"/><line x1="103.332679" y1="22.528426" x2="104.734879" y2="20.580648" stroke="#000" stroke-width="0.300000" stroke-linecap="round"/><line x1="103.922069" y1="22.955305" x2="105.341212" y2="21.019838" stroke="#000" stroke-width="0.300000" stroke-linecap="round"/><line x1="106.191405" y1="24.706044" x2="107.709898" y2="22.847501" stroke="#000" stroke-width="0.300000" stroke-linecap="round"/><line x1="106.753327" y1="25.168483" x2="108.287981" y2="23.323262" stroke="#000" stroke-width="0.300000" stroke-linecap="round"/><line x1="108.909632" y1="27.056683" x2="110.538754" y2="25.294309" stroke="#000" stroke-width="0.300000" stroke-linecap="round"/><line x1="109.441944" y1="27.552918" x2="111.086383" y2="25.804828" stroke="#000" stroke-width="0.300000" stroke-linecap="round"/><line x1="111.476907" y1="29.571302" x2="113.210581" y2="27.911670" stroke="#000" stroke-width="0.300000" stroke-linecap="round"/><line x1="111.977580" y1="30.099442" x2="113.725670" y2="28.455003" stroke="#000" stroke-width="0.300000" stroke-linecap="round"/><line x1="113.883358" y1="32.240230" x2="115.715116" y2="30.689532" stroke="#000" stroke-width="0.300000" stroke-linecap="round"/><line x1="114.350483" y1="32.798262" x2="116.195703" y2="31.263609" stroke="#000" stroke-width="0.300000" stroke-linecap="round"/><line x1="116.119730" y1="35.053203" x2="118.042739" y2="33.617224" stroke="#000" stroke-width="0.300000" stroke-linecap="round"/><line x1="116.538439" y1="35.621003" x2="118.486217" y2="34.218804" stroke="#000" stroke-width="0.300000" stroke-linecap="round"/><line x1="118.177422" y1="37.999403" x2="120.184509" y2="36.683499" stroke="#000" stroke-width="0.300000" stroke-linecap="round"/><line x1="118.559872" y1="38.592230" x2="120.589618" y2="37.311555" stroke="#000" stroke-width="0.300000" stroke-linecap="round"/><line x1="120.048522" y1="41.067500" x2="122.132199" y2="39.876581" stroke="#000" stroke-width="0.300000" stroke-linecap="round"/><line x1="120.393220" y1="41.683044" x2="122.497365" y2="40.528671" stroke="#000" stroke-width="0.300000" stroke-linecap="round"/><line x1="121.725832" y1="44.245696" x2="123.878326" y2="43.184203" stroke="#000" stroke-width="0.300000" stroke-linecap="round"/><line x1="122.031436" y1="44.881556" x2="124.202128" y2="43.857791" stroke="#000" stroke-width="0.300000" stroke-linecap="round"/><line x1="123.194376" y1="47.501214" x2="125.415673" y2="46.592457" stroke="#000" stroke-width="0.300000" stroke-linecap="round"/><line x1="123.468219" y1="48.175467" x2="125.697362" y2="47.286129" stroke="#000" stroke-width="0.300000" stroke-linecap="round"/><line x1="124.466334" y1="50.862241" x2="126.738967" y2="50.090786" stroke="#000" stroke-width="0.300000" stroke-linecap="round"/><line x1="124.698045" y1="51.552108" x2="126.977323" y2="50.800515" stroke="#000" stroke-width="0.300000" stroke-linecap="round"/><line x1="125.527489" y1="54.295643" x2="127.842978" y2="53.664368" stroke="#000" stroke-width="0.300000" stroke-linecap="round"/><line x1="125.716183" y1="54.998494" x2="128.037094" y2="54.387449" stroke="#000" stroke-width="0.300000" stroke-linecap="round"/><line x1="126.373760" y1="57.788214" x2="128.723469" y2="57.299474" stroke="#000" stroke-width="0.300000" stroke-linecap="round"/><line x1="126.518719" y1="58.501371" x2="128.872604" y2="58.033154" stroke="#000" stroke-width="0.300000" stroke-linecap="round"/><line x1="127.001894" y1="61.326525" x2="129.377057" y2="60.982143" stroke="#000" stroke-width="0.300000" stroke-linecap="round"/><line x1="127.102565" y1="62.047268" x2="129.480643" y2="61.723626" stroke="#000" stroke-width="0.300000" stroke-linecap="round"/><line x1="127.409475" y1="64.896966" x2="129.801232" y2="64.698227" stroke="#000" stroke-width="0.300000" stroke-linecap="round"/><line x1="127.465475" y1="65.622549" x2="129.858876" y2="65.444689" stroke="#000" stroke-width="0.300000" stroke-linecap="round"/><line x1="127.594937" y1="68.485808" x2="129.994366" y2="68.433453" stroke="#000" stroke-width="0.300000" stroke-linecap="round"/><line x1="127.605605" y1="69.191215" x2="130.005582" y2="69.180743" stroke="#000" stroke-width="0.300000" stroke-linecap="round"/><line x1="127.607776" y1="69.668958" x2="130.007753" y2="69.679430" stroke="#000" stroke-width="0.300000" stroke-linecap="round"/><circle cx="128.166965" cy="71.851793" r="0.540000" fill="#000"/><circle cx="127.919653" cy="75.473640" r="0.540000" fill="#000"/><circle cx="127.448328" cy="79.073190" r="0.540000" fill="#000"/><circle cx="126.754804" cy="82.636606" r="0.540000" fill="#000"/><circle cx="125.841746" cy="86.150186" r="0.540000" fill="#000"/><circle cx="124.712665" cy="89.600423" r="0.540000" fill="#000"/><circle cx="123.371899" cy="92.974053" r="0.540000" fill="#000"/><circle cx="121.832329" cy="96.242941" r="0.540000" fill="#000"/><circle cx="120.084944" cy="99.425040" r="0.540000" fill="#000"/><circle cx="118.143693" cy="102.492706" r="0.540000" fill="#000"/><circle cx="116.016041" cy="105.434144" r="0.540000" fill="#000"/><circle cx="113.710168" cy="108.238047" r="0.540000" fill="#000"/><circle cx="111.234939" cy="110.893635" r="0.540000" fill="#000"/><circle cx="108.599872" cy="113.390700" r="0.540000" fill="#000"/><circle cx="105.815096" cy="115.719639" r="0.540000" fill="#000"/><circle cx="102.891316" cy="117.871501" r="0.540000" fill="#000"/><circle cx="99.839774" cy="119.838009" r="0.540000" fill="#000"/><circle cx="96.687181" cy="121.603530" r="0.540000" fill="#000"/><circle cx="93.416020" cy="123.177877" r="0.540000" fill="#000"/><circle cx="90.053577" cy="124.546441" r="0.540000" fill="#000"/><circle cx="86.612780" cy="125.703962" r="0.540000" fill="#000"/><circle cx="83.106857" cy="126.645990" r="0.540000" fill="#000"/><circle cx="79.549288" cy="127.368903" r="0.540000" fill="#000"/><circle cx="75.953749" cy="127.869923" r="0.540000" fill="#000"/><circle cx="72.334063" cy="128.147123" r="0.540000" fill="#000"/><circle cx="68.704147" cy="128.199436" r="0.540000" fill="#000"/><circle cx="65.094921" cy="128.027992" r="0.540000" fill="#000"/><circle cx="61.486350" cy="127.631341" r="0.540000" fill="#000"/><circle cx="57.909315" cy="127.011791" r="0.540000" fill="#000"/><circle cx="54.377567" cy="126.171723" r="0.540000" fill="#000"/><circle cx="50.904683" cy="125.114368" r="0.540000" fill="#000"/><circle cx="47.504015" cy="123.843792" r="0.540000" fill="#000"/><circle cx="44.188637" cy="122.364879" r="0.540000" fill="#000"/><circle cx="40.971296" cy="120.683316" r="0.540000" fill="#000"/><circle cx="37.864361" cy="118.805566" r="0.540000" fill="#000"/><circle cx="34.879777" cy="116.738847" r="0.540000" fill="#000"/><circle cx="32.042213" cy="114.501855" r="0.540000" fill="#000"/><circle cx="29.335896" cy="112.082162" r="0.540000" fill="#000"/><circle cx="26.784766" cy="109.499387" r="0.540000" fill="#000"/><circle cx="24.398631" cy="106.763460" r="0.540000" fill="#000"/><circle cx="22.186663" cy="103.884899" r="0.540000" fill="#000"/><circle cx="20.157366" cy="100.874773" r="0.540000" fill="#000"/><circle cx="18.318543" cy="97.744653" r="0.540000" fill="#000"/><circle cx="16.677263" cy="94.506573" r="0.540000" fill="#000"/><circle cx="15.239836" cy="91.172982" r="0.540000" fill="#000"/><circle cx="14.017053" cy="87.772877" r="0.540000" fill="#000"/><circle cx="13.002584" cy="84.287198" r="0.540000" fill="#000"/><circle cx="12.206115" cy="80.745353" r="0.540000" fill="#000"/><circle cx="11.630709" cy="77.160961" r="0.540000" fill="#000"/><circle cx="11.278576" cy="73.547801" r="0.540000" fill="#000"/><circle cx="11.151070" cy="69.919765" r="0.540000" fill="#000"/><circle cx="11.248680" cy="66.290800" r="0.540000" fill="#000"/><circle cx="11.571033" cy="62.674859" r="0.540000" fill="#000"/><circle cx="12.116889" cy="59.085844" r="0.540000" fill="#000"/><circle cx="12.884150" cy="55.537552" r="0.540000" fill="#000"/><circle cx="13.864989" cy="52.059929" r="0.540000" fill="#000"/><circle cx="15.064844" cy="48.633646" r="0.540000" fill="#000"/><circle cx="16.474754" cy="45.288330" r="0.540000" fill="#000"/><circle cx="18.089299" cy="42.036840" r="0.540000" fill="#000"/><circle cx="19.902271" cy="38.891678" r="0.540000" fill="#000"/><circle cx="21.906698" cy="35.864935" r="0.540000" fill="#000"/><circle cx="24.094876" cy="32.968246" r="0.540000" fill="#000"/><circle cx="26.458391" cy="30.212750" r="0.540000" fill="#000"/><circle cx="28.988158" cy="27.609041" r="0.540000" fill="#000"/><circle cx="31.661517" cy="25.178185" r="0.540000" fill="#000"/><circle cx="34.493653" cy="22.907036" r="0.540000" fill="#000"/><circle cx="37.461103" cy="20.815801" r="0.540000" fill="#000"/><circle cx="40.552459" cy="18.912519" r="0.540000" fill="#000"/><circle cx="43.755835" cy="17.204507" r="0.540000" fill="#000"/><circle cx="47.058914" cy="15.698330" r="0.540000" fill="#000"/><circle cx="50.448999" cy="14.399778" r="0.540000" fill="#000"/><circle cx="53.913056" cy="13.313846" r="0.540000" fill="#000"/><circle cx="57.437768" cy="12.444707" r="0.540000" fill="#000"/><circle cx="61.009583" cy="11.795706" r="0.540000" fill="#000"/><circle cx="64.597840" cy="11.371069" r="0.540000" fill="#000"/><circle cx="68.222478" cy="11.168423" r="0.540000" fill="#000"/><circle cx="71.852696" cy="11.190827" r="0.540000" fill="#000"/><circle cx="75.474539" cy="11.438195" r="0.540000" fill="#000"/><circle cx="79.074083" cy="11.909574" r="0.540000" fill="#000"/><circle cx="82.637488" cy="12.603153" r="0.540000" fill="#000"/><circle cx="86.151054" cy="13.516264" r="0.540000" fill="#000"/><circle cx="89.601274" cy="14.645398" r="0.540000" fill="#000"/><circle cx="92.974884" cy="15.986214" r="0.540000" fill="#000"/><circle cx="96.243745" cy="17.525842" r="0.540000" fill="#000"/><circle cx="99.425818" cy="19.273275" r="0.540000" fill="#000"/><circle cx="102.493453" cy="21.214573" r="0.540000" fill="#000"/><circle cx="105.434859" cy="23.342270" r="0.540000" fill="#000"/><circle cx="108.238727" cy="25.648185" r="0.540000" fill="#000"/><circle cx="110.894278" cy="28.123454" r="0.540000" fill="#000"/><circle cx="113.391302" cy="30.758559" r="0.540000" fill="#000"/><circle cx="115.720199" cy="33.543371" r="0.540000" fill="#000"/><circle cx="117.872016" cy="36.467183" r="0.540000" fill="#000"/><circle cx="119.838478" cy="39.518756" r="0.540000" fill="#000"/><circle cx="121.603944" cy="42.671379" r="0.540000" fill="#000"/><circle cx="123.178241" cy="45.942564" r="0.540000" fill="#000"/><circle cx="124.546754" cy="49.305028" r="0.540000" fill="#000"/><circle cx="125.704223" cy="52.745843" r="0.540000" fill="#000"/><circle cx="126.646197" cy="56.251780" r="0.540000" fill="#000"/><circle cx="127.369057" cy="59.809360" r="0.540000" fill="#000"/><circle cx="127.870022" cy="63.404907" r="0.540000" fill="#000"/><circle cx="128.147166" cy="67.024597" r="0.540000" fill="#000"/><circle cx="128.206690" cy="69.438595" r="0.540000" fill="#000"/><text x="69.678878" y="64.661999" font-family="Arial, Helvetica, sans-serif" font-size="4.180733" text-anchor="middle" fill="#000">Shape: Circle  |  Perimeter: 38.000cm</text><text x="69.678878" y="69.678878" font-family="Arial, Helvetica, sans-serif" font-size="4.180733" text-anchor="middle" fill="#000">Barrier: 3.000mm  |  Slit: 0.750mm  |  Period: 3.750mm</text><text x="69.678878" y="74.695758" font-family="Arial, Helvetica, sans-serif" font-size="4.180733" text-anchor="middle" fill="#000">N images: 5  |  Periods: 101.333</text>
</svg>
