<?xml version="1.0" encoding="UTF-8" standalone="no"?>
<svg xmlns="http://www.w3.org/2000/svg"
     width="107.924655mm" height="107.924655mm"
     viewBox="0 0 107.924655 107.924655">
  <title>Lamp Template (Circle, Ticks + Specs)</title>
  <desc>Perimeter=11.073in; bar=3.000mm, slit=0.750mm</desc>
  <polyline points="98.724655,53.962328 98.722951,54.352948 98.717838,54.743538 98.709317,55.134069 98.697387,55.524510 98.682052,55.914833 98.663310,56.305007 98.641165,56.695002 98.615617,57.084790 98.586668,57.474340 98.554321,57.863622 98.518579,58.252607 98.479443,58.641265 98.436917,59.029567 98.391004,59.417483 98.341708,59.804984 98.289032,60.192040 98.232980,60.578621 98.173557,60.964699 98.110767,61.350243 98.044615,61.735224 97.975106,62.119614 97.902245,62.503383 97.826039,62.886501 97.746491,63.268939 97.663610,63.650669 97.577400,64.031661 97.487869,64.411886 97.395023,64.791315 97.298870,65.169920 97.199416,65.547671 97.096670,65.924540 96.990639,66.300497 96.881331,66.675516 96.768755,67.049566 96.652918,67.422619 96.533831,67.794648 96.411502,68.165623 96.285940,68.535516 96.157155,68.904300 96.025157,69.271945 95.889955,69.638425 95.751561,70.003711 95.609984,70.367776 95.465235,70.730591 95.317326,71.092129 95.166268,71.452363 95.012071,71.811264 94.854749,72.168807 94.694312,72.524963 94.530774,72.879705 94.364146,73.233007 94.194441,73.584841 94.021673,73.935180 93.845854,74.283999 93.666997,74.631271 93.485117,74.976968 93.300227,75.321065 93.112342,75.663535 92.921475,76.004353 92.727641,76.343492 92.530855,76.680926 92.331131,77.016631 92.128486,77.350580 91.922935,77.682748 91.714492,78.013109 91.503175,78.341639 91.288998,78.668312 91.071979,78.993104 90.852134,79.315989 90.629480,79.636944 90.404033,79.955944 90.175812,80.272964 89.944832,80.587980 89.711112,80.900969 89.474670,81.211906 89.235523,81.520768 88.993691,81.827532 88.749190,82.132173 88.502040,82.434670 88.252260,82.734997 87.999869,83.033134 87.744885,83.329057 87.487329,83.622744 87.227220,83.914171 86.964578,84.203318 86.699422,84.490162 86.431773,84.774681 86.161652,85.056853 85.889078,85.336658 85.614073,85.614073 85.336658,85.889078 85.056853,86.161652 84.774681,86.431773 84.490162,86.699422 84.203318,86.964578 83.914171,87.227220 83.622744,87.487329 83.329057,87.744885 83.033134,87.999869 82.734997,88.252260 82.434670,88.502040 82.132173,88.749190 81.827532,88.993691 81.520768,89.235523 81.211906,89.474670 80.900969,89.711112 80.587980,89.944832 80.272964,90.175812 79.955944,90.404033 79.636944,90.629480 79.315989,90.852134 78.993104,91.071979 78.668312,91.288998 78.341639,91.503175 78.013109,91.714492 77.682748,91.922935 77.350580,92.128486 77.016631,92.331131 76.680926,92.530855 76.343492,92.727641 76.004353,92.921475 75.663535,93.112342 75.321065,93.300227 74.976968,93.485117 74.631271,93.666997 74.283999,93.845854 73.935180,94.021673 73.584841,94.194441 73.233007,94.364146 72.879705,94.530774 72.524963,94.694312 72.168807,94.854749 71.811264,95.012071 71.452363,95.166268 71.092129,95.317326 70.730591,95.465235 70.367776,95.609984 70.003711,95.751561 69.638425,95.889955 69.271945,96.025157 68.904300,96.157155 68.535516,96.285940 68.165623,96.411502 67.794648,96.533831 67.422619,96.652918 67.049566,96.768755 66.675516,96.881331 66.300497,96.990639 65.924540,97.096670 65.547671,97.199416 65.169920,97.298870 64.791315,97.395023 64.411886,97.487869 64.031661,97.577400 63.650669,97.663610 63.268939,97.746491 62.886501,97.826039 62.503383,97.902245 62.119614,97.975106 61.735224,98.044615 61.350243,98.110767 60.964699,98.173557 60.578621,98.232980 60.192040,98.289032 59.804984,98.341708 59.417483,98.391004 59.029567,98.436917 58.641265,98.479443 58.252607,98.518579 57.863622,98.554321 57.474340,98.586668 57.084790,98.615617 56.695002,98.641165 56.305007,98.663310 55.914833,98.682052 55.524510,98.697387 55.134069,98.709317 54.743538,98.717838 54.352948,98.722951 53.962328,98.724655 53.571708,98.722951 53.181117,98.717838 52.790587,98.709317 52.400145,98.697387 52.009822,98.682052 51.619649,98.663310 51.229653,98.641165 50.839866,98.615617 50.450316,98.586668 50.061034,98.554321 49.672049,98.518579 49.283390,98.479443 48.895088,98.436917 48.507172,98.391004 48.119672,98.341708 47.732616,98.289032 47.346034,98.232980 46.959957,98.173557 46.574413,98.110767 46.189431,98.044615 45.805041,97.975106 45.421273,97.902245 45.038155,97.826039 44.655716,97.746491 44.273987,97.663610 43.892995,97.577400 43.512770,97.487869 43.133341,97.395023 42.754736,97.298870 42.376985,97.199416 42.000116,97.096670 41.624158,96.990639 41.249140,96.881331 40.875090,96.768755 40.502036,96.652918 40.130008,96.533831 39.759033,96.411502 39.389139,96.285940 39.020356,96.157155 38.652710,96.025157 38.286230,95.889955 37.920944,95.751561 37.556880,95.609984 37.194065,95.465235 36.832527,95.317326 36.472293,95.166268 36.113391,95.012071 35.755849,94.854749 35.399693,94.694312 35.044951,94.530774 34.691649,94.364146 34.339815,94.194441 33.989475,94.021673 33.640656,93.845854 33.293385,93.666997 32.947688,93.485117 32.603591,93.300227 32.261121,93.112342 31.920303,92.921475 31.581164,92.727641 31.243729,92.530855 30.908025,92.331131 30.574076,92.128486 30.241908,91.922935 29.911547,91.714492 29.583017,91.503175 29.256344,91.288998 28.931552,91.071979 28.608666,90.852134 28.287711,90.629480 27.968712,90.404033 27.651692,90.175812 27.336675,89.944832 27.023686,89.711112 26.712749,89.474670 26.403887,89.235523 26.097124,88.993691 25.792482,88.749190 25.489986,88.502040 25.189658,88.252260 24.891521,87.999869 24.595598,87.744885 24.301912,87.487329 24.010484,87.227220 23.721337,86.964578 23.434494,86.699422 23.149975,86.431773 22.867802,86.161652 22.587998,85.889078 22.310582,85.614073 22.035577,85.336658 21.763004,85.056853 21.492882,84.774681 21.225234,84.490162 20.960078,84.203318 20.697436,83.914171 20.437326,83.622744 20.179770,83.329057 19.924787,83.033134 19.672395,82.734997 19.422615,82.434670 19.175466,82.132173 18.930965,81.827532 18.689132,81.520768 18.449986,81.211906 18.213543,80.900969 17.979823,80.587980 17.748844,80.272964 17.520622,79.955944 17.295175,79.636944 17.072521,79.315989 16.852676,78.993104 16.635657,78.668312 16.421481,78.341639 16.210163,78.013109 16.001721,77.682748 15.796169,77.350580 15.593524,77.016631 15.393801,76.680926 15.197015,76.343492 15.003181,76.004353 14.812314,75.663535 14.624428,75.321065 14.439538,74.976968 14.257658,74.631271 14.078802,74.283999 13.902983,73.935180 13.730214,73.584841 13.560509,73.233007 13.393882,72.879705 13.230343,72.524963 13.069907,72.168807 12.912584,71.811264 12.758388,71.452363 12.607329,71.092129 12.459420,70.730591 12.314672,70.367776 12.173095,70.003711 12.034700,69.638425 11.899499,69.271945 11.767500,68.904300 11.638715,68.535516 11.513153,68.165623 11.390824,67.794648 11.271737,67.422619 11.155901,67.049566 11.043325,66.675516 10.934017,66.300497 10.827986,65.924540 10.725239,65.547671 10.625786,65.169920 10.529632,64.791315 10.436787,64.411886 10.347256,64.031661 10.261046,63.650669 10.178164,63.268939 10.098617,62.886501 10.022410,62.503383 9.949549,62.119614 9.880040,61.735224 9.813888,61.350243 9.751099,60.964699 9.691676,60.578621 9.635624,60.192040 9.582948,59.804984 9.533652,59.417483 9.487739,59.029567 9.445213,58.641265 9.406077,58.252607 9.370334,57.863622 9.337987,57.474340 9.309039,57.084790 9.283491,56.695002 9.261345,56.305007 9.242604,55.914833 9.227268,55.524510 9.215339,55.134069 9.206818,54.743538 9.201704,54.352948 9.200000,53.962328 9.201704,53.571708 9.206818,53.181117 9.215339,52.790587 9.227268,52.400145 9.242604,52.009822 9.261345,51.619649 9.283491,51.229653 9.309039,50.839866 9.337987,50.450316 9.370334,50.061034 9.406077,49.672049 9.445213,49.283390 9.487739,48.895088 9.533652,48.507172 9.582948,48.119672 9.635624,47.732616 9.691676,47.346034 9.751099,46.959957 9.813888,46.574413 9.880040,46.189431 9.949549,45.805041 10.022410,45.421273 10.098617,45.038155 10.178164,44.655716 10.261046,44.273987 10.347256,43.892995 10.436787,43.512770 10.529632,43.133341 10.625786,42.754736 10.725239,42.376985 10.827986,42.000116 10.934017,41.624158 11.043325,41.249140 11.155901,40.875090 11.271737,40.502036 11.390824,40.130008 11.513153,39.759033 11.638715,39.389139 11.767500,39.020356 11.899499,38.652710 12.034700,38.286230 12.173095,37.920944 12.314672,37.556880 12.459420,37.194065 12.607329,36.832527 12.758388,36.472293 12.912584,36.113391 13.069907,35.755849 13.230343,35.399693 13.393882,35.044951 13.560509,34.691649 13.730214,34.339815 13.902983,33.989475 14.078802,33.640656 14.257658,33.293385 14.439538,32.947688 14.624428,32.603591 14.812314,32.261121 15.003181,31.920303 15.197015,31.581164 15.393801,31.243729 15.593524,30.908025 15.796169,30.574076 16.001721,30.241908 16.210163,29.911547 16.421481,29.583017 16.635657,29.256344 16.852676,28.931552 17.072521,28.608666 17.295175,28.287711 17.520622,27.968712 17.748844,27.651692 17.979823,27.336675 18.213543,27.023686 18.449986,26.712749 18.689132,26.403887 18.930965,26.097124 19.175466,25.792482 19.422615,25.489986 19.672395,25.189658 19.924787,24.891521 20.179770,24.595598 20.437326,24.301912 20.697436,24.010484 20.960078,23.721337 21.225234,23.434494 21.492882,23.149975 21.763004,22.867802 22.035577,22.587998 22.310582,22.310582 22.587998,22.035577 22.867802,21.763004 23.149975,21.492882 23.434494,21.225234 23.721337,20.960078 24.010484,20.697436 24.301912,20.437326 24.595598,20.179770 24.891521,19.924787 25.189658,19.672395 25.489986,19.422615 25.792482,19.175466 26.097124,18.930965 26.403887,18.689132 26.712749,18.449986 27.023686,18.213543 27.336675,17.979823 27.651692,17.748844 27.968712,17.520622 28.287711,17.295175 28.608666,17.072521 28.931552,16.852676 29.256344,16.635657 29.583017,16.421481 29.911547,16.210163 30.241908,16.001721 30.574076,15.796169 30.908025,15.593524 31.243729,15.393801 31.581164,15.197015 31.920303,15.003181 32.261121,14.812314 32.603591,14.624428 32.947688,14.439538 33.293385,14.257658 33.640656,14.078802 33.989475,13.902983 34.339815,13.730214 34.691649,13.560509 35.044951,13.393882 35.399693,13.230343 35.755849,13.069907 36.113391,12.912584 36.472293,12.758388 36.832527,12.607329 37.194065,12.459420 37.556880,12.314672 37.920944,12.173095 38.286230,12.034700 38.652710,11.899499 39.020356,11.767500 39.389139,11.638715 39.759033,11.513153 40.130008,11.390824 40.502036,11.271737 40.875090,11.155901 41.249140,11.043325 41.624158,10.934017 42.000116,10.827986 42.376985,10.725239 42.754736,10.625786 43.133341,10.529632 43.512770,10.436787 43.892995,10.347256 44.273987,10.261046 44.655716,10.178164 45.038155,10.098617 45.421273,10.022410 45.805041,9.949549 46.189431,9.880040 46.574413,9.813888 46.959957,9.751099 47.346034,9.691676 47.732616,9.635624 48.119672,9.582948 48.507172,9.533652 48.895088,9.487739 49.283390,9.445213 49.672049,9.406077 50.061034,9.370334 50.450316,9.337987 50.839866,9.309039 51.229653,9.283491 51.619649,9.261345 52.009822,9.242604 52.400145,9.227268 52.790587,9.215339 53.181117,9.206818 53.571708,9.201704 53.962328,9.200000 54.352948,9.201704 54.743538,9.206818 55.134069,9.215339 55.524510,9.227268 55.914833,9.242604 56.305007,9.261345 56.695002,9.283491 57.084790,9.309039 57.474340,9.337987 57.863622,9.370334 58.252607,9.406077 58.641265,9.445213 59.029567,9.487739 59.417483,9.533652 59.804984,9.582948 60.192040,9.635624 60.578621,9.691676 60.964699,9.751099 61.350243,9.813888 61.735224,9.880040 62.119614,9.949549 62.503383,10.022410 62.886501,10.098617 63.268939,10.178164 63.650669,10.261046 64.031661,10.347256 64.411886,10.436787 64.791315,10.529632 65.169920,10.625786 65.547671,10.725239 65.924540,10.827986 66.300497,10.934017 66.675516,11.043325 67.049566,11.155901 67.422619,11.271737 67.794648,11.390824 68.165623,11.513153 68.535516,11.638715 68.904300,11.767500 69.271945,11.899499 69.638425,12.034700 70.003711,12.173095 70.367776,12.314672 70.730591,12.459420 71.092129,12.607329 71.452363,12.758388 71.811264,12.912584 72.168807,13.069907 72.524963,13.230343 72.879705,13.393882 73.233007,13.560509 73.584841,13.730214 73.935180,13.902983 74.283999,14.078802 74.631271,14.257658 74.976968,14.439538 75.321065,14.624428 75.663535,14.812314 76.004353,15.003181 76.343492,15.197015 76.680926,15.393801 77.016631,15.593524 77.350580,15.796169 77.682748,16.001721 78.013109,16.210163 78.341639,16.421481 78.668312,16.635657 78.993104,16.852676 79.315989,17.072521 79.636944,17.295175 79.955944,17.520622 80.272964,17.748844 80.587980,17.979823 80.900969,18.213543 81.211906,18.449986 81.520768,18.689132 81.827532,18.930965 82.132173,19.175466 82.434670,19.422615 82.734997,19.672395 83.033134,19.924787 83.329057,20.179770 83.622744,20.437326 83.914171,20.697436 84.203318,20.960078 84.490162,21.225234 84.774681,21.492882 85.056853,21.763004 85.336658,22.035577 85.614073,22.310582 85.889078,22.587998 86.161652,22.867802 86.431773,23.149975 86.699422,23.434494 86.964578,23.721337 87.227220,24.010484 87.487329,24.301912 87.744885,24.595598 87.999869,24.891521 88.252260,25.189658 88.502040,25.489986 88.749190,25.792482 88.993691,26.097124 89.235523,26.403887 89.474670,26.712749 89.711112,27.023686 89.944832,27.336675 90.175812,27.651692 90.404033,27.968712 90.629480,28.287711 90.852134,28.608666 91.071979,28.931552 91.288998,29.256344 91.503175,29.583017 91.714492,29.911547 91.922935,30.241908 92.128486,30.574076 92.331131,30.908025 92.530855,31.243729 92.727641,31.581164 92.921475,31.920303 93.112342,32.261121 93.300227,32.603591 93.485117,32.947688 93.666997,33.293385 93.845854,33.640656 94.021673,33.989475 94.194441,34.339815 94.364146,34.691649 94.530774,35.044951 94.694312,35.399693 94.854749,35.755849 95.012071,36.113391 95.166268,36.472293 95.317326,36.832527 95.465235,37.194065 95.609984,37.556880 95.751561,37.920944 95.889955,38.286230 96.025157,38.652710 96.157155,39.020356 96.285940,39.389139 96.411502,39.759033 96.533831,40.130008 96.652918,40.502036 96.768755,40.875090 96.881331,41.249140 96.990639,41.624158 97.096670,42.000116 97.199416,42.376985 97.298870,42.754736 97.395023,43.133341 97.487869,43.512770 97.577400,43.892995 97.663610,44.273987 97.746491,44.655716 97.826039,45.038155 97.902245,45.421273 97.975106,45.805041 98.044615,46.189431 98.110767,46.574413 98.173557,46.959957 98.232980,47.346034 98.289032,47.732616 98.341708,48.119672 98.391004,48.507172 98.436917,48.895088 98.479443,49.283390 98.518579,49.672049 98.554321,50.061034 98.586668,50.450316 98.615617,50.839866 98.641165,51.229653 98.663310,51.619649 98.682052,52.009822 98.697387,52.400145 98.709317,52.790587 98.717838,53.181117 98.722951,53.571708 98.724655,53.962328" fill="none" stroke="#000" stroke-width="0.300000"/><line x1="96.168465" y1="54.678915" x2="98.568260" y2="54.710330" stroke="#000" stroke-width="0.300000" stroke-linecap="round"/><line x1="96.026017" y1="57.496760" x2="98.417774" y2="57.695499" stroke="#000" stroke-width="0.300000" stroke-linecap="round"/><line x1="95.961057" y1="58.199244" x2="98.348981" y2="58.439695" stroke="#000" stroke-width="0.300000" stroke-linecap="round"/><line x1="95.584365" y1="60.995421" x2="97.949699" y2="61.401860" stroke="#000" stroke-width="0.300000" stroke-linecap="round"/><line x1="95.461109" y1="61.690056" x2="97.818990" y2="62.137713" stroke="#000" stroke-width="0.300000" stroke-linecap="round"/><line x1="94.846553" y1="64.466542" x2="97.172707" y2="65.057310" stroke="#000" stroke-width="0.300000" stroke-linecap="round"/><line x1="94.665221" y1="65.148323" x2="96.980711" y2="65.779598" stroke="#000" stroke-width="0.300000" stroke-linecap="round"/><line x1="93.826983" y1="67.842363" x2="96.092797" y2="68.633621" stroke="#000" stroke-width="0.300000" stroke-linecap="round"/><line x1="93.589487" y1="68.506667" x2="95.841146" y2="69.337348" stroke="#000" stroke-width="0.300000" stroke-linecap="round"/><line x1="92.529731" y1="71.121528" x2="94.717960" y2="72.107253" stroke="#000" stroke-width="0.300000" stroke-linecap="round"/><line x1="92.228066" y1="71.783799" x2="94.407610" y2="72.788583" stroke="#000" stroke-width="0.300000" stroke-linecap="round"/><line x1="90.951808" y1="74.300088" x2="93.055953" y2="75.454461" stroke="#000" stroke-width="0.300000" stroke-linecap="round"/><line x1="90.606737" y1="74.915417" x2="92.690415" y2="76.106336" stroke="#000" stroke-width="0.300000" stroke-linecap="round"/><line x1="89.125301" y1="77.316635" x2="91.120828" y2="78.650004" stroke="#000" stroke-width="0.300000" stroke-linecap="round"/><line x1="88.730167" y1="77.901083" x2="90.702120" y2="79.269075" stroke="#000" stroke-width="0.300000" stroke-linecap="round"/><line x1="87.039440" y1="80.187564" x2="88.924201" y2="81.673390" stroke="#000" stroke-width="0.300000" stroke-linecap="round"/><line x1="86.596479" y1="80.736648" x2="88.455022" y2="82.255140" stroke="#000" stroke-width="0.300000" stroke-linecap="round"/><line x1="84.734943" y1="82.856831" x2="86.483033" y2="84.501270" stroke="#000" stroke-width="0.300000" stroke-linecap="round"/><line x1="84.247782" y1="83.367104" x2="85.966906" y2="85.041801" stroke="#000" stroke-width="0.300000" stroke-linecap="round"/><line x1="82.216084" y1="85.324853" x2="83.814200" y2="87.115391" stroke="#000" stroke-width="0.300000" stroke-linecap="round"/><line x1="81.671129" y1="85.807169" x2="83.253559" y2="87.611585" stroke="#000" stroke-width="0.300000" stroke-linecap="round"/><line x1="79.481740" y1="87.586809" x2="80.934446" y2="89.497214" stroke="#000" stroke-width="0.300000" stroke-linecap="round"/><line x1="78.916225" y1="88.008586" x2="80.335368" y2="89.944054" stroke="#000" stroke-width="0.300000" stroke-linecap="round"/><line x1="76.586199" y1="89.599651" x2="77.866874" y2="91.629398" stroke="#000" stroke-width="0.300000" stroke-linecap="round"/><line x1="75.987510" y1="89.972854" x2="77.232566" y2="92.024642" stroke="#000" stroke-width="0.300000" stroke-linecap="round"/><line x1="73.512956" y1="91.373975" x2="74.630431" y2="93.497945" stroke="#000" stroke-width="0.300000" stroke-linecap="round"/><line x1="72.884958" y1="91.695418" x2="73.965195" y2="93.838567" stroke="#000" stroke-width="0.300000" stroke-linecap="round"/><line x1="70.322003" y1="92.875143" x2="71.250109" y2="95.088425" stroke="#000" stroke-width="0.300000" stroke-linecap="round"/><line x1="69.669412" y1="93.143153" x2="70.558749" y2="95.372296" stroke="#000" stroke-width="0.300000" stroke-linecap="round"/><line x1="67.017074" y1="94.105276" x2="67.748748" y2="96.391026" stroke="#000" stroke-width="0.300000" stroke-linecap="round"/><line x1="66.323056" y1="94.324241" x2="67.034756" y2="96.616288" stroke="#000" stroke-width="0.300000" stroke-linecap="round"/><line x1="63.599104" y1="95.059514" x2="64.149185" y2="97.395624" stroke="#000" stroke-width="0.300000" stroke-linecap="round"/><line x1="62.910928" y1="95.214810" x2="63.420154" y2="97.560164" stroke="#000" stroke-width="0.300000" stroke-linecap="round"/><line x1="60.135198" y1="95.720608" x2="60.479581" y2="98.095772" stroke="#000" stroke-width="0.300000" stroke-linecap="round"/><line x1="59.436473" y1="95.818036" x2="59.739351" y2="98.198848" stroke="#000" stroke-width="0.300000" stroke-linecap="round"/><line x1="56.605968" y1="96.091529" x2="56.762936" y2="98.486390" stroke="#000" stroke-width="0.300000" stroke-linecap="round"/><line x1="55.901521" y1="96.129751" x2="56.016669" y2="98.526987" stroke="#000" stroke-width="0.300000" stroke-linecap="round"/><line x1="53.080307" y1="96.165031" x2="53.027951" y2="98.564460" stroke="#000" stroke-width="0.300000" stroke-linecap="round"/><line x1="52.375126" y1="96.144437" x2="52.280902" y2="98.542587" stroke="#000" stroke-width="0.300000" stroke-linecap="round"/><line x1="49.560764" y1="95.944573" x2="49.299484" y2="98.330308" stroke="#000" stroke-width="0.300000" stroke-linecap="round"/><line x1="48.837687" y1="95.862324" x2="48.555597" y2="98.245688" stroke="#000" stroke-width="0.300000" stroke-linecap="round"/><line x1="46.050171" y1="95.426095" x2="45.602513" y2="97.783976" stroke="#000" stroke-width="0.300000" stroke-linecap="round"/><line x1="45.358326" y1="95.288057" x2="44.869586" y2="97.637766" stroke="#000" stroke-width="0.300000" stroke-linecap="round"/><line x1="42.616846" y1="94.621132" x2="41.965389" y2="96.931024" stroke="#000" stroke-width="0.300000" stroke-linecap="round"/><line x1="41.938901" y1="94.425939" x2="41.247230" y2="96.724110" stroke="#000" stroke-width="0.300000" stroke-linecap="round"/><line x1="39.241868" y1="93.524513" x2="38.411187" y2="95.776172" stroke="#000" stroke-width="0.300000" stroke-linecap="round"/><line x1="38.582777" y1="93.272905" x2="37.712926" y2="95.509724" stroke="#000" stroke-width="0.300000" stroke-linecap="round"/><line x1="35.991122" y1="92.157640" x2="34.967357" y2="94.328333" stroke="#000" stroke-width="0.300000" stroke-linecap="round"/><line x1="35.355284" y1="91.852003" x2="34.293791" y2="94.004497" stroke="#000" stroke-width="0.300000" stroke-linecap="round"/><line x1="32.865531" y1="90.524710" x2="31.656473" y2="92.597916" stroke="#000" stroke-width="0.300000" stroke-linecap="round"/><line x1="32.238421" y1="90.155470" x2="31.011317" y2="92.218045" stroke="#000" stroke-width="0.300000" stroke-linecap="round"/><line x1="29.869331" y1="88.623166" x2="28.501339" y2="90.595118" stroke="#000" stroke-width="0.300000" stroke-linecap="round"/><line x1="29.293445" y1="88.215662" x2="27.891246" y2="90.163440" stroke="#000" stroke-width="0.300000" stroke-linecap="round"/><line x1="27.060243" y1="86.491332" x2="25.525589" y2="88.336553" stroke="#000" stroke-width="0.300000" stroke-linecap="round"/><line x1="26.520303" y1="86.037269" x2="24.953679" y2="87.855425" stroke="#000" stroke-width="0.300000" stroke-linecap="round"/><line x1="24.423085" y1="84.116790" x2="22.748388" y2="85.835915" stroke="#000" stroke-width="0.300000" stroke-linecap="round"/><line x1="23.923315" y1="83.618858" x2="22.218870" y2="85.308494" stroke="#000" stroke-width="0.300000" stroke-linecap="round"/><line x1="22.009342" y1="81.545889" x2="20.191186" y2="83.112512" stroke="#000" stroke-width="0.300000" stroke-linecap="round"/><line x1="21.552790" y1="81.008056" x2="19.707570" y2="82.542709" stroke="#000" stroke-width="0.300000" stroke-linecap="round"/><line x1="19.818149" y1="78.782837" x2="17.870371" y2="80.185037" stroke="#000" stroke-width="0.300000" stroke-linecap="round"/><line x1="19.395440" y1="78.190450" x2="17.435500" y2="79.575599" stroke="#000" stroke-width="0.300000" stroke-linecap="round"/><line x1="17.854416" y1="75.827023" x2="15.802628" y2="77.072079" stroke="#000" stroke-width="0.300000" stroke-linecap="round"/><line x1="17.494066" y1="75.220516" x2="15.420860" y2="76.429573" stroke="#000" stroke-width="0.300000" stroke-linecap="round"/><line x1="16.155286" y1="72.736935" x2="14.002791" y2="73.798428" stroke="#000" stroke-width="0.300000" stroke-linecap="round"/><line x1="15.846711" y1="72.102514" x2="13.676019" y2="73.126279" stroke="#000" stroke-width="0.300000" stroke-linecap="round"/><line x1="14.711940" y1="69.495053" x2="12.482797" y2="70.384390" stroke="#000" stroke-width="0.300000" stroke-linecap="round"/><line x1="14.457906" y1="68.836894" x2="12.213581" y2="69.687192" stroke="#000" stroke-width="0.300000" stroke-linecap="round"/><line x1="13.552561" y1="66.164658" x2="11.254389" y2="66.856329" stroke="#000" stroke-width="0.300000" stroke-linecap="round"/><line x1="13.354237" y1="65.487626" x2="11.044345" y2="66.139083" stroke="#000" stroke-width="0.300000" stroke-linecap="round"/><line x1="12.674645" y1="62.749245" x2="10.324936" y2="63.237985" stroke="#000" stroke-width="0.300000" stroke-linecap="round"/><line x1="12.529427" y1="62.036141" x2="10.175543" y2="62.504358" stroke="#000" stroke-width="0.300000" stroke-linecap="round"/><line x1="12.082929" y1="59.250251" x2="9.702117" y2="59.553129" stroke="#000" stroke-width="0.300000" stroke-linecap="round"/><line x1="12.000422" y1="58.549611" x2="9.614687" y2="58.810892" stroke="#000" stroke-width="0.300000" stroke-linecap="round"/><line x1="11.787553" y1="55.736216" x2="9.389404" y2="55.830440" stroke="#000" stroke-width="0.300000" stroke-linecap="round"/><line x1="11.763700" y1="55.031135" x2="9.364271" y2="55.083490" stroke="#000" stroke-width="0.300000" stroke-linecap="round"/><line x1="11.787588" y1="52.187548" x2="9.389439" y2="52.093324" stroke="#000" stroke-width="0.300000" stroke-linecap="round"/><line x1="11.823215" y1="51.482965" x2="9.427075" y2="51.346902" stroke="#000" stroke-width="0.300000" stroke-linecap="round"/><line x1="12.083041" y1="48.673519" x2="9.702229" y2="48.370641" stroke="#000" stroke-width="0.300000" stroke-linecap="round"/><line x1="12.177238" y1="47.974354" x2="9.802075" y2="47.629972" stroke="#000" stroke-width="0.300000" stroke-linecap="round"/><line x1="12.670205" y1="45.196304" x2="10.324850" y2="44.687078" stroke="#000" stroke-width="0.300000" stroke-linecap="round"/><line x1="12.827587" y1="44.485786" x2="10.486766" y2="43.956112" stroke="#000" stroke-width="0.300000" stroke-linecap="round"/><line x1="13.552818" y1="41.759143" x2="11.254647" y2="41.067472" stroke="#000" stroke-width="0.300000" stroke-linecap="round"/><line x1="13.762421" y1="41.085518" x2="11.476671" y2="40.353844" stroke="#000" stroke-width="0.300000" stroke-linecap="round"/><line x1="14.712271" y1="38.428774" x2="12.483128" y2="37.539436" stroke="#000" stroke-width="0.300000" stroke-linecap="round"/><line x1="14.977263" y1="37.774948" x2="12.763981" y2="36.846842" stroke="#000" stroke-width="0.300000" stroke-linecap="round"/><line x1="16.155681" y1="35.186920" x2="14.003186" y2="34.125427" stroke="#000" stroke-width="0.300000" stroke-linecap="round"/><line x1="16.474807" y1="34.557742" x2="14.341166" y2="33.458845" stroke="#000" stroke-width="0.300000" stroke-linecap="round"/><line x1="17.854879" y1="32.096869" x2="15.803091" y2="30.851813" stroke="#000" stroke-width="0.300000" stroke-linecap="round"/><line x1="18.225309" y1="31.496465" x2="16.195562" y2="30.215790" stroke="#000" stroke-width="0.300000" stroke-linecap="round"/><line x1="19.805594" y1="29.159099" x2="17.870127" y2="27.739956" stroke="#000" stroke-width="0.300000" stroke-linecap="round"/><line x1="20.238365" y1="28.574022" x2="18.315356" y2="27.138043" stroke="#000" stroke-width="0.300000" stroke-linecap="round"/><line x1="22.009925" y1="26.378090" x2="20.191769" y2="24.811467" stroke="#000" stroke-width="0.300000" stroke-linecap="round"/><line x1="22.475395" y1="25.847958" x2="20.684858" y2="24.249842" stroke="#000" stroke-width="0.300000" stroke-linecap="round"/><line x1="24.423725" y1="23.807242" x2="22.749028" y2="22.088118" stroke="#000" stroke-width="0.300000" stroke-linecap="round"/><line x1="24.931743" y1="23.317726" x2="23.287303" y2="21.569635" stroke="#000" stroke-width="0.300000" stroke-linecap="round"/><line x1="27.060929" y1="21.432753" x2="25.526275" y2="19.587532" stroke="#000" stroke-width="0.300000" stroke-linecap="round"/><line x1="27.608376" y1="20.987772" x2="26.106160" y2="19.116049" stroke="#000" stroke-width="0.300000" stroke-linecap="round"/><line x1="29.870064" y1="19.300981" x2="28.502072" y2="17.329028" stroke="#000" stroke-width="0.300000" stroke-linecap="round"/><line x1="30.452676" y1="18.903152" x2="29.119307" y2="16.907625" stroke="#000" stroke-width="0.300000" stroke-linecap="round"/><line x1="32.847032" y1="17.410627" x2="31.656113" y2="15.326949" stroke="#000" stroke-width="0.300000" stroke-linecap="round"/><line x1="33.480361" y1="17.052156" x2="32.307670" y2="14.958166" stroke="#000" stroke-width="0.300000" stroke-linecap="round"/><line x1="35.991929" y1="15.766634" x2="34.968164" y2="13.595942" stroke="#000" stroke-width="0.300000" stroke-linecap="round"/><line x1="36.632783" y1="15.471659" x2="35.647057" y2="13.283430" stroke="#000" stroke-width="0.300000" stroke-linecap="round"/><line x1="39.242705" y1="14.399834" x2="38.412024" y2="12.148174" stroke="#000" stroke-width="0.300000" stroke-linecap="round"/><line x1="39.905907" y1="14.159268" x2="39.114650" y2="11.893455" stroke="#000" stroke-width="0.300000" stroke-linecap="round"/><line x1="42.617705" y1="13.303281" x2="41.966247" y2="10.993389" stroke="#000" stroke-width="0.300000" stroke-linecap="round"/><line x1="43.298813" y1="13.119439" x2="42.687768" y2="10.798528" stroke="#000" stroke-width="0.300000" stroke-linecap="round"/><line x1="46.051048" y1="12.498394" x2="45.603390" y2="10.140513" stroke="#000" stroke-width="0.300000" stroke-linecap="round"/><line x1="46.745102" y1="12.371930" x2="46.338663" y2="10.006596" stroke="#000" stroke-width="0.300000" stroke-linecap="round"/><line x1="49.539521" y1="11.982317" x2="49.299070" y2="9.594392" stroke="#000" stroke-width="0.300000" stroke-linecap="round"/><line x1="50.263898" y1="11.912436" x2="50.044294" y2="9.522504" stroke="#000" stroke-width="0.300000" stroke-linecap="round"/><line x1="53.081199" y1="11.759605" x2="53.028844" y2="9.360176" stroke="#000" stroke-width="0.300000" stroke-linecap="round"/><line x1="53.786625" y1="11.750791" x2="53.776153" y2="9.350814" stroke="#000" stroke-width="0.300000" stroke-linecap="round"/><line x1="56.606859" y1="11.833185" x2="56.763826" y2="9.438324" stroke="#000" stroke-width="0.300000" stroke-linecap="round"/><line x1="57.310571" y1="11.883167" x2="57.509310" y2="9.491410" stroke="#000" stroke-width="0.300000" stroke-linecap="round"/><line x1="60.136082" y1="12.204175" x2="60.480464" y2="9.829012" stroke="#000" stroke-width="0.300000" stroke-linecap="round"/><line x1="60.833080" y1="12.313259" x2="61.218863" y2="9.944468" stroke="#000" stroke-width="0.300000" stroke-linecap="round"/><line x1="63.599973" y1="12.865346" x2="64.150054" y2="10.529236" stroke="#000" stroke-width="0.300000" stroke-linecap="round"/><line x1="64.285460" y1="13.032114" x2="64.876228" y2="10.705960" stroke="#000" stroke-width="0.300000" stroke-linecap="round"/><line x1="66.996758" y1="13.812781" x2="67.748351" y2="11.533503" stroke="#000" stroke-width="0.300000" stroke-linecap="round"/><line x1="67.686932" y1="14.043573" x2="68.458387" y2="11.770940" stroke="#000" stroke-width="0.300000" stroke-linecap="round"/><line x1="70.322826" y1="15.049858" x2="71.250932" y2="12.836575" stroke="#000" stroke-width="0.300000" stroke-linecap="round"/><line x1="70.970849" y1="15.328729" x2="71.937441" y2="13.131982" stroke="#000" stroke-width="0.300000" stroke-linecap="round"/><line x1="73.513746" y1="16.551096" x2="74.631221" y2="14.427126" stroke="#000" stroke-width="0.300000" stroke-linecap="round"/><line x1="74.136289" y1="16.882984" x2="75.290662" y2="14.778839" stroke="#000" stroke-width="0.300000" stroke-linecap="round"/><line x1="76.586954" y1="18.325481" x2="77.867628" y2="16.295734" stroke="#000" stroke-width="0.300000" stroke-linecap="round"/><line x1="77.179325" y1="18.708630" x2="78.495228" y2="16.701543" stroke="#000" stroke-width="0.300000" stroke-linecap="round"/><line x1="79.482450" y1="20.338386" x2="80.935156" y2="18.427981" stroke="#000" stroke-width="0.300000" stroke-linecap="round"/><line x1="80.040843" y1="20.769550" x2="81.526669" y2="18.884789" stroke="#000" stroke-width="0.300000" stroke-linecap="round"/><line x1="82.200208" y1="22.585512" x2="83.813889" y2="20.808988" stroke="#000" stroke-width="0.300000" stroke-linecap="round"/><line x1="82.736842" y1="23.077070" x2="84.365964" y2="21.314696" stroke="#000" stroke-width="0.300000" stroke-linecap="round"/><line x1="84.735554" y1="25.068475" x2="86.483645" y2="23.424035" stroke="#000" stroke-width="0.300000" stroke-linecap="round"/><line x1="85.214125" y1="25.586812" x2="86.990649" y2="23.973132" stroke="#000" stroke-width="0.300000" stroke-linecap="round"/><line x1="87.039993" y1="27.737792" x2="88.924753" y2="26.251966" stroke="#000" stroke-width="0.300000" stroke-linecap="round"/><line x1="87.473722" y1="28.294198" x2="89.384127" y2="26.841492" stroke="#000" stroke-width="0.300000" stroke-linecap="round"/><line x1="89.125796" y1="30.608762" x2="91.121324" y2="29.275393" stroke="#000" stroke-width="0.300000" stroke-linecap="round"/><line x1="89.511113" y1="31.199726" x2="91.529606" y2="29.901387" stroke="#000" stroke-width="0.300000" stroke-linecap="round"/><line x1="90.952238" y1="33.625350" x2="93.056382" y2="32.470977" stroke="#000" stroke-width="0.300000" stroke-linecap="round"/><line x1="91.286984" y1="34.246357" x2="93.410954" y2="33.128882" stroke="#000" stroke-width="0.300000" stroke-linecap="round"/><line x1="92.521040" y1="36.783615" x2="94.717788" y2="35.817023" stroke="#000" stroke-width="0.300000" stroke-linecap="round"/><line x1="92.811344" y1="37.450945" x2="95.016443" y2="36.503560" stroke="#000" stroke-width="0.300000" stroke-linecap="round"/><line x1="93.827278" y1="40.083135" x2="96.093091" y2="39.291877" stroke="#000" stroke-width="0.300000" stroke-linecap="round"/><line x1="94.053646" y1="40.751312" x2="96.332924" y2="39.999719" stroke="#000" stroke-width="0.300000" stroke-linecap="round"/><line x1="94.846772" y1="43.458978" x2="97.172927" y2="42.868210" stroke="#000" stroke-width="0.300000" stroke-linecap="round"/><line x1="95.016692" y1="44.143694" x2="97.352803" y2="43.593613" stroke="#000" stroke-width="0.300000" stroke-linecap="round"/><line x1="95.584516" y1="46.930114" x2="97.949850" y2="46.523675" stroke="#000" stroke-width="0.300000" stroke-linecap="round"/><line x1="95.696152" y1="47.626708" x2="98.068220" y2="47.261612" stroke="#000" stroke-width="0.300000" stroke-linecap="round"/><line x1="96.026091" y1="50.428785" x2="98.417848" y2="50.230045" stroke="#000" stroke-width="0.300000" stroke-linecap="round"/><line x1="96.079310" y1="51.132257" x2="98.474171" y2="50.975289" stroke="#000" stroke-width="0.300000" stroke-linecap="round"/><line x1="96.174676" y1="53.952094" x2="98.574653" y2="53.962566" stroke="#000" stroke-width="0.300000" stroke-linecap="round"/><circle cx="96.720054" cy="56.117815" r="0.540000" fill="#000"/><circle cx="96.390553" cy="59.681384" r="0.540000" fill="#000"/><circle cx="95.761318" cy="63.221683" r="0.540000" fill="#000"/><circle cx="94.841585" cy="66.680261" r="0.540000" fill="#000"/><circle cx="93.636745" cy="70.050123" r="0.540000" fill="#000"/><circle cx="92.146711" cy="73.322650" r="0.540000" fill="#000"/><circle cx="90.396259" cy="76.444110" r="0.540000" fill="#000"/><circle cx="88.381451" cy="79.422399" r="0.540000" fill="#000"/><circle cx="86.134499" cy="82.207874" r="0.540000" fill="#000"/><circle cx="83.663173" cy="84.796340" r="0.540000" fill="#000"/><circle cx="80.970899" cy="87.179888" r="0.540000" fill="#000"/><circle cx="78.102167" cy="89.319506" r="0.540000" fill="#000"/><circle cx="75.050166" cy="91.220808" r="0.540000" fill="#000"/><circle cx="71.864516" cy="92.851544" r="0.540000" fill="#000"/><circle cx="68.554021" cy="94.211042" r="0.540000" fill="#000"/><circle cx="65.125029" cy="95.293471" r="0.540000" fill="#000"/><circle cx="61.634049" cy="96.081285" r="0.540000" fill="#000"/><circle cx="58.072578" cy="96.576846" r="0.540000" fill="#000"/><circle cx="54.499062" cy="96.770871" r="0.540000" fill="#000"/><circle cx="50.921817" cy="96.666330" r="0.540000" fill="#000"/><circle cx="47.349014" cy="96.260476" r="0.540000" fill="#000"/><circle cx="43.839413" cy="95.560266" r="0.540000" fill="#000"/><circle cx="40.384286" cy="94.564398" r="0.540000" fill="#000"/><circle cx="37.040800" cy="93.288164" r="0.540000" fill="#000"/><circle cx="33.815348" cy="91.737659" r="0.540000" fill="#000"/><circle cx="30.716508" cy="89.913700" r="0.540000" fill="#000"/><circle cx="27.795132" cy="87.846539" r="0.540000" fill="#000"/><circle cx="25.043775" cy="85.531437" r="0.540000" fill="#000"/><circle cx="22.508444" cy="83.005618" r="0.540000" fill="#000"/><circle cx="20.192498" cy="80.277248" r="0.540000" fill="#000"/><circle cx="18.103442" cy="77.350564" r="0.540000" fill="#000"/><circle cx="16.275427" cy="74.273885" r="0.540000" fill="#000"/><circle cx="14.703578" cy="71.039855" r="0.540000" fill="#000"/><circle cx="13.414786" cy="67.701190" r="0.540000" fill="#000"/><circle cx="12.408796" cy="64.266719" r="0.540000" fill="#000"/><circle cx="11.690743" cy="60.743363" r="0.540000" fill="#000"/><circle cx="11.272171" cy="57.189156" r="0.540000" fill="#000"/><circle cx="11.151620" cy="53.595394" r="0.540000" fill="#000"/><circle cx="11.332212" cy="50.021173" r="0.540000" fill="#000"/><circle cx="11.810125" cy="46.474455" r="0.540000" fill="#000"/><circle cx="12.587233" cy="42.963652" r="0.540000" fill="#000"/><circle cx="13.650480" cy="39.546475" r="0.540000" fill="#000"/><circle cx="15.002070" cy="36.214379" r="0.540000" fill="#000"/><circle cx="16.620820" cy="33.022622" r="0.540000" fill="#000"/><circle cx="18.500000" cy="29.976921" r="0.540000" fill="#000"/><circle cx="20.637900" cy="27.085724" r="0.540000" fill="#000"/><circle cx="22.999119" cy="24.396442" r="0.540000" fill="#000"/><circle cx="25.589147" cy="21.902165" r="0.540000" fill="#000"/><circle cx="28.366156" cy="19.644759" r="0.540000" fill="#000"/><circle cx="31.321674" cy="17.626709" r="0.540000" fill="#000"/><circle cx="34.450701" cy="15.855035" r="0.540000" fill="#000"/><circle cx="37.701613" cy="14.358654" r="0.540000" fill="#000"/><circle cx="41.082237" cy="13.133482" r="0.540000" fill="#000"/><circle cx="44.537332" cy="12.200755" r="0.540000" fill="#000"/><circle cx="48.058148" cy="11.559297" r="0.540000" fill="#000"/><circle cx="51.637261" cy="11.213486" r="0.540000" fill="#000"/><circle cx="55.215751" cy="11.168744" r="0.540000" fill="#000"/><circle cx="58.802426" cy="11.424522" r="0.540000" fill="#000"/><circle cx="62.338186" cy="11.977753" r="0.540000" fill="#000"/><circle cx="65.815515" cy="12.823802" r="0.540000" fill="#000"/><circle cx="69.225849" cy="13.963649" r="0.540000" fill="#000"/><circle cx="72.513159" cy="15.378283" r="0.540000" fill="#000"/><circle cx="75.685713" cy="17.070784" r="0.540000" fill="#000"/><circle cx="78.690769" cy="19.014313" r="0.540000" fill="#000"/><circle cx="81.523344" cy="21.201578" r="0.540000" fill="#000"/><circle cx="84.175219" cy="23.629992" r="0.540000" fill="#000"/><circle cx="86.602938" cy="26.259397" r="0.540000" fill="#000"/><circle cx="88.812805" cy="29.095971" r="0.540000" fill="#000"/><circle cx="90.767551" cy="32.093742" r="0.540000" fill="#000"/><circle cx="92.465592" cy="35.244022" r="0.540000" fill="#000"/><circle cx="93.900471" cy="38.541106" r="0.540000" fill="#000"/><circle cx="95.048823" cy="41.930631" r="0.540000" fill="#000"/><circle cx="95.913894" cy="45.420805" r="0.540000" fill="#000"/><circle cx="96.480335" cy="48.954473" r="0.540000" fill="#000"/><circle cx="96.750233" cy="52.523053" r="0.540000" fill="#000"/><text x="53.962328" y="50.077040" font-family="Arial, Helvetica, sans-serif" font-size="3.237740" text-anchor="middle" fill="#000">Shape: Circle  |  Perimeter: 11.073in</text><text x="53.962328" y="53.962328" font-family="Arial, Helvetica, sans-serif" font-size="3.237740" text-anchor="middle" fill="#000">Barrier: 3.000mm  |  Slit: 0.750mm  |  Period: 3.750mm</text><text x="53.962328" y="57.847615" font-family="Arial, Helvetica, sans-serif" font-size="3.237740" text-anchor="middle" fill="#000">N images: 5  |  Periods: 75.000</text>
</svg>
